<?xml version="1.0" encoding="UTF-8"?><svg id="Layer_2" xmlns="http://www.w3.org/2000/svg" viewBox="0 0 1082.4 722.4"><defs><style>.cls-1{fill-rule:evenodd;stroke-width:0px;}</style></defs><g id="Layer_1-2"><path class="cls-1" d="m24.72,1.68h.96v-.96h-.96v.96Zm24,0h.96v-.96h-.96v.96Zm24,0h.96v-.96h-.96v.96Zm24,0h.96v-.96h-.96v.96ZM24.72,25.68h.96v-.96h-.96v.96Zm24,0h.96v-.96h-.96v.96Zm24,0h.96v-.96h-.96v.96Zm24,0h.96v-.96h-.96v.96ZM24.72,49.68h.96v-.96h-.96v.96Zm24,0h.96v-.96h-.96v.96Zm24,0h.96v-.96h-.96v.96Zm24,0h.96v-.96h-.96v.96Zm-72,24h.96v-.96h-.96v.96Zm24,0h.96v-.96h-.96v.96Zm24,0h.96v-.96h-.96v.96Zm24,0h.96v-.96h-.96v.96Zm-72,24h.96v-.96h-.96v.96Zm24,0h.96v-.96h-.96v.96Zm24,0h.96v-.96h-.96v.96Zm24,0h.96v-.96h-.96v.96Zm-72,24h.96v-.96h-.96v.96Zm24,0h.96v-.96h-.96v.96Zm24,0h.96v-.96h-.96v.96Zm24,0h.96v-.96h-.96v.96Zm24.96-96.96h-.96v.96h.96v-.96Zm-.96,24.96h.96v-.96h-.96v.96Zm0,24h.96v-.96h-.96v.96Zm0,24h.96v-.96h-.96v.96ZM1.68,24.72h-.96v.96h.96v-.96Zm-.96,24.96h.96v-.96h-.96v.96Zm0,24h.96v-.96h-.96v.96Zm0,24h.96v-.96h-.96v.96ZM144.72,1.68h.96v-.96h-.96v.96Zm24,0h.96v-.96h-.96v.96Zm24,0h.96v-.96h-.96v.96Zm24,0h.96v-.96h-.96v.96Zm-72,24h.96v-.96h-.96v.96Zm24,0h.96v-.96h-.96v.96Zm24,0h.96v-.96h-.96v.96Zm24,0h.96v-.96h-.96v.96Zm-72,24h.96v-.96h-.96v.96Zm24,0h.96v-.96h-.96v.96Zm24,0h.96v-.96h-.96v.96Zm24,0h.96v-.96h-.96v.96Zm-72,24h.96v-.96h-.96v.96Zm24,0h.96v-.96h-.96v.96Zm24,0h.96v-.96h-.96v.96Zm24,0h.96v-.96h-.96v.96Zm-72,24h.96v-.96h-.96v.96Zm24,0h.96v-.96h-.96v.96Zm24,0h.96v-.96h-.96v.96Zm24,0h.96v-.96h-.96v.96Zm-72,24h.96v-.96h-.96v.96Zm24,0h.96v-.96h-.96v.96Zm24,0h.96v-.96h-.96v.96Zm24,0h.96v-.96h-.96v.96Zm24.96-96.96h-.96v.96h.96v-.96Zm-.96,24.96h.96v-.96h-.96v.96Zm0,24h.96v-.96h-.96v.96Zm0,24h.96v-.96h-.96v.96ZM24.72,145.68h.96v-.96h-.96v.96Zm24,0h.96v-.96h-.96v.96Zm24,0h.96v-.96h-.96v.96Zm24,0h.96v-.96h-.96v.96Zm-72,24h.96v-.96h-.96v.96Zm24,0h.96v-.96h-.96v.96Zm24,0h.96v-.96h-.96v.96Zm24,0h.96v-.96h-.96v.96Zm-72,24h.96v-.96h-.96v.96Zm24,0h.96v-.96h-.96v.96Zm24,0h.96v-.96h-.96v.96Zm24,0h.96v-.96h-.96v.96Zm-72,24h.96v-.96h-.96v.96Zm24,0h.96v-.96h-.96v.96Zm24,0h.96v-.96h-.96v.96Zm24,0h.96v-.96h-.96v.96Zm-72,24h.96v-.96h-.96v.96Zm24,0h.96v-.96h-.96v.96Zm24,0h.96v-.96h-.96v.96Zm24,0h.96v-.96h-.96v.96Zm24.96-96.96h-.96v.96h.96v-.96Zm-.96,24.96h.96v-.96h-.96v.96Zm0,24h.96v-.96h-.96v.96Zm0,24h.96v-.96h-.96v.96ZM1.68,144.72h-.96v.96h.96v-.96Zm-.96,24.96h.96v-.96h-.96v.96Zm0,24h.96v-.96h-.96v.96Zm0,24h.96v-.96h-.96v.96Zm144-72h.96v-.96h-.96v.96Zm24,0h.96v-.96h-.96v.96Zm24,0h.96v-.96h-.96v.96Zm24,0h.96v-.96h-.96v.96Zm-72,24h.96v-.96h-.96v.96Zm24,0h.96v-.96h-.96v.96Zm24,0h.96v-.96h-.96v.96Zm24,0h.96v-.96h-.96v.96Zm-72,24h.96v-.96h-.96v.96Zm24,0h.96v-.96h-.96v.96Zm24,0h.96v-.96h-.96v.96Zm24,0h.96v-.96h-.96v.96Zm-72,24h.96v-.96h-.96v.96Zm24,0h.96v-.96h-.96v.96Zm24,0h.96v-.96h-.96v.96Zm24,0h.96v-.96h-.96v.96Zm-72,24h.96v-.96h-.96v.96Zm24,0h.96v-.96h-.96v.96Zm24,0h.96v-.96h-.96v.96Zm24,0h.96v-.96h-.96v.96Zm24.96-96.96h-.96v.96h.96v-.96Zm-.96,24.96h.96v-.96h-.96v.96Zm0,24h.96v-.96h-.96v.96Zm0,24h.96v-.96h-.96v.96ZM264.72,1.68h.96v-.96h-.96v.96Zm24,0h.96v-.96h-.96v.96Zm24,0h.96v-.96h-.96v.96Zm24,0h.96v-.96h-.96v.96Zm-72,24h.96v-.96h-.96v.96Zm24,0h.96v-.96h-.96v.96Zm24,0h.96v-.96h-.96v.96Zm24,0h.96v-.96h-.96v.96Zm-72,24h.96v-.96h-.96v.96Zm24,0h.96v-.96h-.96v.96Zm24,0h.96v-.96h-.96v.96Zm24,0h.96v-.96h-.96v.96Zm-72,24h.96v-.96h-.96v.96Zm24,0h.96v-.96h-.96v.96Zm24,0h.96v-.96h-.96v.96Zm24,0h.96v-.96h-.96v.96Zm-72,24h.96v-.96h-.96v.96Zm24,0h.96v-.96h-.96v.96Zm24,0h.96v-.96h-.96v.96Zm24,0h.96v-.96h-.96v.96Zm-72,24h.96v-.96h-.96v.96Zm24,0h.96v-.96h-.96v.96Zm24,0h.96v-.96h-.96v.96Zm24,0h.96v-.96h-.96v.96Zm24.96-96.96h-.96v.96h.96v-.96Zm-.96,24.96h.96v-.96h-.96v.96Zm0,24h.96v-.96h-.96v.96Zm0,24h.96v-.96h-.96v.96ZM384.72,1.68h.96v-.96h-.96v.96Zm24,0h.96v-.96h-.96v.96Zm24,0h.96v-.96h-.96v.96Zm24,0h.96v-.96h-.96v.96Zm-72,24h.96v-.96h-.96v.96Zm24,0h.96v-.96h-.96v.96Zm24,0h.96v-.96h-.96v.96Zm24,0h.96v-.96h-.96v.96Zm-72,24h.96v-.96h-.96v.96Zm24,0h.96v-.96h-.96v.96Zm24,0h.96v-.96h-.96v.96Zm24,0h.96v-.96h-.96v.96Zm-72,24h.96v-.96h-.96v.96Zm24,0h.96v-.96h-.96v.96Zm24,0h.96v-.96h-.96v.96Zm24,0h.96v-.96h-.96v.96Zm-72,24h.96v-.96h-.96v.96Zm24,0h.96v-.96h-.96v.96Zm24,0h.96v-.96h-.96v.96Zm24,0h.96v-.96h-.96v.96Zm-72,24h.96v-.96h-.96v.96Zm24,0h.96v-.96h-.96v.96Zm24,0h.96v-.96h-.96v.96Zm24,0h.96v-.96h-.96v.96Zm24.96-96.96h-.96v.96h.96v-.96Zm-.96,24.96h.96v-.96h-.96v.96Zm0,24h.96v-.96h-.96v.96Zm0,24h.96v-.96h-.96v.96Zm-216,48h.96v-.96h-.96v.96Zm24,0h.96v-.96h-.96v.96Zm24,0h.96v-.96h-.96v.96Zm24,0h.96v-.96h-.96v.96Zm-72,24h.96v-.96h-.96v.96Zm24,0h.96v-.96h-.96v.96Zm24,0h.96v-.96h-.96v.96Zm24,0h.96v-.96h-.96v.96Zm-72,24h.96v-.96h-.96v.96Zm24,0h.96v-.96h-.96v.96Zm24,0h.96v-.96h-.96v.96Zm24,0h.96v-.96h-.96v.96Zm-72,24h.96v-.96h-.96v.96Zm24,0h.96v-.96h-.96v.96Zm24,0h.96v-.96h-.96v.96Zm24,0h.96v-.96h-.96v.96Zm-72,24h.96v-.96h-.96v.96Zm24,0h.96v-.96h-.96v.96Zm24,0h.96v-.96h-.96v.96Zm24,0h.96v-.96h-.96v.96Zm24.96-96.96h-.96v.96h.96v-.96Zm-.96,24.96h.96v-.96h-.96v.96Zm0,24h.96v-.96h-.96v.96Zm0,24h.96v-.96h-.96v.96Zm24-72h.96v-.96h-.96v.96Zm24,0h.96v-.96h-.96v.96Zm24,0h.96v-.96h-.96v.96Zm24,0h.96v-.96h-.96v.96Zm-72,24h.96v-.96h-.96v.96Zm24,0h.96v-.96h-.96v.96Zm24,0h.96v-.96h-.96v.96Zm24,0h.96v-.96h-.96v.96Zm-72,24h.96v-.96h-.96v.96Zm24,0h.96v-.96h-.96v.96Zm24,0h.96v-.96h-.96v.96Zm24,0h.96v-.96h-.96v.96Zm-72,24h.96v-.96h-.96v.96Zm24,0h.96v-.96h-.96v.96Zm24,0h.96v-.96h-.96v.96Zm24,0h.96v-.96h-.96v.96Zm-72,24h.96v-.96h-.96v.96Zm24,0h.96v-.96h-.96v.96Zm24,0h.96v-.96h-.96v.96Zm24,0h.96v-.96h-.96v.96Zm24.96-96.96h-.96v.96h.96v-.96Zm-.96,24.96h.96v-.96h-.96v.96Zm0,24h.96v-.96h-.96v.96Zm0,24h.96v-.96h-.96v.96ZM24.72,265.68h.96v-.96h-.96v.96Zm24,0h.96v-.96h-.96v.96Zm24,0h.96v-.96h-.96v.96Zm24,0h.96v-.96h-.96v.96Zm-72,24h.96v-.96h-.96v.96Zm24,0h.96v-.96h-.96v.96Zm24,0h.96v-.96h-.96v.96Zm24,0h.96v-.96h-.96v.96Zm-72,24h.96v-.96h-.96v.96Zm24,0h.96v-.96h-.96v.96Zm24,0h.96v-.96h-.96v.96Zm24,0h.96v-.96h-.96v.96Zm-72,24h.96v-.96h-.96v.96Zm24,0h.96v-.96h-.96v.96Zm24,0h.96v-.96h-.96v.96Zm24,0h.96v-.96h-.96v.96Zm-72,24h.96v-.96h-.96v.96Zm24,0h.96v-.96h-.96v.96Zm24,0h.96v-.96h-.96v.96Zm24,0h.96v-.96h-.96v.96Zm24.96-96.96h-.96v.96h.96v-.96Zm-.96,24.96h.96v-.96h-.96v.96Zm0,24h.96v-.96h-.96v.96Zm0,24h.96v-.96h-.96v.96ZM1.68,264.72h-.96v.96h.96v-.96Zm-.96,24.96h.96v-.96h-.96v.96Zm0,24h.96v-.96h-.96v.96Zm0,24h.96v-.96h-.96v.96Zm144-72h.96v-.96h-.96v.96Zm24,0h.96v-.96h-.96v.96Zm24,0h.96v-.96h-.96v.96Zm24,0h.96v-.96h-.96v.96Zm-72,24h.96v-.96h-.96v.96Zm24,0h.96v-.96h-.96v.96Zm24,0h.96v-.96h-.96v.96Zm24,0h.96v-.96h-.96v.96Zm-72,24h.96v-.96h-.96v.96Zm24,0h.96v-.96h-.96v.96Zm24,0h.96v-.96h-.96v.96Zm24,0h.96v-.96h-.96v.96Zm-72,24h.96v-.96h-.96v.96Zm24,0h.96v-.96h-.96v.96Zm24,0h.96v-.96h-.96v.96Zm24,0h.96v-.96h-.96v.96Zm-72,24h.96v-.96h-.96v.96Zm24,0h.96v-.96h-.96v.96Zm24,0h.96v-.96h-.96v.96Zm24,0h.96v-.96h-.96v.96Zm24.96-96.96h-.96v.96h.96v-.96Zm-.96,24.96h.96v-.96h-.96v.96Zm0,24h.96v-.96h-.96v.96Zm0,24h.96v-.96h-.96v.96Zm-216,48h.96v-.96h-.96v.96Zm24,0h.96v-.96h-.96v.96Zm24,0h.96v-.96h-.96v.96Zm24,0h.96v-.96h-.96v.96Zm-72,24h.96v-.96h-.96v.96Zm24,0h.96v-.96h-.96v.96Zm24,0h.96v-.96h-.96v.96Zm24,0h.96v-.96h-.96v.96Zm-72,24h.96v-.96h-.96v.96Zm24,0h.96v-.96h-.96v.96Zm24,0h.96v-.96h-.96v.96Zm24,0h.96v-.96h-.96v.96Zm-72,24h.96v-.96h-.96v.96Zm24,0h.96v-.96h-.96v.96Zm24,0h.96v-.96h-.96v.96Zm24,0h.96v-.96h-.96v.96Zm-72,24h.96v-.96h-.96v.96Zm24,0h.96v-.96h-.96v.96Zm24,0h.96v-.96h-.96v.96Zm24,0h.96v-.96h-.96v.96Zm24.96-96.96h-.96v.96h.96v-.96Zm-.96,24.96h.96v-.96h-.96v.96Zm0,24h.96v-.96h-.96v.96Zm0,24h.96v-.96h-.96v.96ZM1.68,384.72h-.96v.96h.96v-.96Zm-.96,24.96h.96v-.96h-.96v.96Zm0,24h.96v-.96h-.96v.96Zm0,24h.96v-.96h-.96v.96Zm144-72h.96v-.96h-.96v.96Zm24,0h.96v-.96h-.96v.96Zm24,0h.96v-.96h-.96v.96Zm24,0h.96v-.96h-.96v.96Zm-72,24h.96v-.96h-.96v.96Zm24,0h.96v-.96h-.96v.96Zm24,0h.96v-.96h-.96v.96Zm24,0h.96v-.96h-.96v.96Zm-72,24h.96v-.96h-.96v.96Zm24,0h.96v-.96h-.96v.96Zm24,0h.96v-.96h-.96v.96Zm24,0h.96v-.96h-.96v.96Zm-72,24h.96v-.96h-.96v.96Zm24,0h.96v-.96h-.96v.96Zm24,0h.96v-.96h-.96v.96Zm24,0h.96v-.96h-.96v.96Zm-72,24h.96v-.96h-.96v.96Zm24,0h.96v-.96h-.96v.96Zm24,0h.96v-.96h-.96v.96Zm24,0h.96v-.96h-.96v.96Zm24.96-96.96h-.96v.96h.96v-.96Zm-.96,24.96h.96v-.96h-.96v.96Zm0,24h.96v-.96h-.96v.96Zm0,24h.96v-.96h-.96v.96Zm24-192h.96v-.96h-.96v.96Zm24,0h.96v-.96h-.96v.96Zm24,0h.96v-.96h-.96v.96Zm24,0h.96v-.96h-.96v.96Zm-72,24h.96v-.96h-.96v.96Zm24,0h.96v-.96h-.96v.96Zm24,0h.96v-.96h-.96v.96Zm24,0h.96v-.96h-.96v.96Zm-72,24h.96v-.96h-.96v.96Zm24,0h.96v-.96h-.96v.96Zm24,0h.96v-.96h-.96v.96Zm24,0h.96v-.96h-.96v.96Zm-72,24h.96v-.96h-.96v.96Zm24,0h.96v-.96h-.96v.96Zm24,0h.96v-.96h-.96v.96Zm24,0h.96v-.96h-.96v.96Zm-72,24h.96v-.96h-.96v.96Zm24,0h.96v-.96h-.96v.96Zm24,0h.96v-.96h-.96v.96Zm24,0h.96v-.96h-.96v.96Zm24.96-96.96h-.96v.96h.96v-.96Zm-.96,24.96h.96v-.96h-.96v.96Zm0,24h.96v-.96h-.96v.96Zm0,24h.96v-.96h-.96v.96Zm24-72h.96v-.96h-.96v.96Zm24,0h.96v-.96h-.96v.96Zm24,0h.96v-.96h-.96v.96Zm24,0h.96v-.96h-.96v.96Zm-72,24h.96v-.96h-.96v.96Zm24,0h.96v-.96h-.96v.96Zm24,0h.96v-.96h-.96v.96Zm24,0h.96v-.96h-.96v.96Zm-72,24h.96v-.96h-.96v.96Zm24,0h.96v-.96h-.96v.96Zm24,0h.96v-.96h-.96v.96Zm24,0h.96v-.96h-.96v.96Zm-72,24h.96v-.96h-.96v.96Zm24,0h.96v-.96h-.96v.96Zm24,0h.96v-.96h-.96v.96Zm24,0h.96v-.96h-.96v.96Zm-72,24h.96v-.96h-.96v.96Zm24,0h.96v-.96h-.96v.96Zm24,0h.96v-.96h-.96v.96Zm24,0h.96v-.96h-.96v.96Zm24.96-96.96h-.96v.96h.96v-.96Zm-.96,24.96h.96v-.96h-.96v.96Zm0,24h.96v-.96h-.96v.96Zm0,24h.96v-.96h-.96v.96Zm-216,48h.96v-.96h-.96v.96Zm24,0h.96v-.96h-.96v.96Zm24,0h.96v-.96h-.96v.96Zm24,0h.96v-.96h-.96v.96Zm-72,24h.96v-.96h-.96v.96Zm24,0h.96v-.96h-.96v.96Zm24,0h.96v-.96h-.96v.96Zm24,0h.96v-.96h-.96v.96Zm-72,24h.96v-.96h-.96v.96Zm24,0h.96v-.96h-.96v.96Zm24,0h.96v-.96h-.96v.96Zm24,0h.96v-.96h-.96v.96Zm-72,24h.96v-.96h-.96v.96Zm24,0h.96v-.96h-.96v.96Zm24,0h.96v-.96h-.96v.96Zm24,0h.96v-.96h-.96v.96Zm-72,24h.96v-.96h-.96v.96Zm24,0h.96v-.96h-.96v.96Zm24,0h.96v-.96h-.96v.96Zm24,0h.96v-.96h-.96v.96Zm24.96-96.96h-.96v.96h.96v-.96Zm-.96,24.96h.96v-.96h-.96v.96Zm0,24h.96v-.96h-.96v.96Zm0,24h.96v-.96h-.96v.96Zm24-72h.96v-.96h-.96v.96Zm24,0h.96v-.96h-.96v.96Zm24,0h.96v-.96h-.96v.96Zm24,0h.96v-.96h-.96v.96Zm-72,24h.96v-.96h-.96v.96Zm24,0h.96v-.96h-.96v.96Zm24,0h.96v-.96h-.96v.96Zm24,0h.96v-.96h-.96v.96Zm-72,24h.96v-.96h-.96v.96Zm24,0h.96v-.96h-.96v.96Zm24,0h.96v-.96h-.96v.96Zm24,0h.96v-.96h-.96v.96Zm-72,24h.96v-.96h-.96v.96Zm24,0h.96v-.96h-.96v.96Zm24,0h.96v-.96h-.96v.96Zm24,0h.96v-.96h-.96v.96Zm-72,24h.96v-.96h-.96v.96Zm24,0h.96v-.96h-.96v.96Zm24,0h.96v-.96h-.96v.96Zm24,0h.96v-.96h-.96v.96Zm24.96-96.96h-.96v.96h.96v-.96Zm-.96,24.96h.96v-.96h-.96v.96Zm0,24h.96v-.96h-.96v.96Zm0,24h.96v-.96h-.96v.96ZM24.72,505.68h.96v-.96h-.96v.96Zm24,0h.96v-.96h-.96v.96Zm24,0h.96v-.96h-.96v.96Zm24,0h.96v-.96h-.96v.96Zm-72,24h.96v-.96h-.96v.96Zm24,0h.96v-.96h-.96v.96Zm24,0h.96v-.96h-.96v.96Zm24,0h.96v-.96h-.96v.96Zm-72,24h.96v-.96h-.96v.96Zm24,0h.96v-.96h-.96v.96Zm24,0h.96v-.96h-.96v.96Zm24,0h.96v-.96h-.96v.96Zm-72,24h.96v-.96h-.96v.96Zm24,0h.96v-.96h-.96v.96Zm24,0h.96v-.96h-.96v.96Zm24,0h.96v-.96h-.96v.96Zm-72,24h.96v-.96h-.96v.96Zm24,0h.96v-.96h-.96v.96Zm24,0h.96v-.96h-.96v.96Zm24,0h.96v-.96h-.96v.96Zm24.96-96.96h-.96v.96h.96v-.96Zm-.96,24.96h.96v-.96h-.96v.96Zm0,24h.96v-.96h-.96v.96Zm0,24h.96v-.96h-.96v.96ZM1.68,504.72h-.96v.96h.96v-.96Zm-.96,24.96h.96v-.96h-.96v.96Zm0,24h.96v-.96h-.96v.96Zm0,24h.96v-.96h-.96v.96Zm144-72h.96v-.96h-.96v.96Zm24,0h.96v-.96h-.96v.96Zm24,0h.96v-.96h-.96v.96Zm24,0h.96v-.96h-.96v.96Zm-72,24h.96v-.96h-.96v.96Zm24,0h.96v-.96h-.96v.96Zm24,0h.96v-.96h-.96v.96Zm24,0h.96v-.96h-.96v.96Zm-72,24h.96v-.96h-.96v.96Zm24,0h.96v-.96h-.96v.96Zm24,0h.96v-.96h-.96v.96Zm24,0h.96v-.96h-.96v.96Zm-72,24h.96v-.96h-.96v.96Zm24,0h.96v-.96h-.96v.96Zm24,0h.96v-.96h-.96v.96Zm24,0h.96v-.96h-.96v.96Zm-72,24h.96v-.96h-.96v.96Zm24,0h.96v-.96h-.96v.96Zm24,0h.96v-.96h-.96v.96Zm24,0h.96v-.96h-.96v.96Zm24.96-96.96h-.96v.96h.96v-.96Zm-.96,24.96h.96v-.96h-.96v.96Zm0,24h.96v-.96h-.96v.96Zm0,24h.96v-.96h-.96v.96Zm-216,48h.96v-.96h-.96v.96Zm24,0h.96v-.96h-.96v.96Zm24,0h.96v-.96h-.96v.96Zm24,0h.96v-.96h-.96v.96Zm-72,24h.96v-.96h-.96v.96Zm24,0h.96v-.96h-.96v.96Zm24,0h.96v-.96h-.96v.96Zm24,0h.96v-.96h-.96v.96Zm-72,24h.96v-.96h-.96v.96Zm24,0h.96v-.96h-.96v.96Zm24,0h.96v-.96h-.96v.96Zm24,0h.96v-.96h-.96v.96Zm24.96-48.96h-.96v.96h.96v-.96Zm-.96,24.96h.96v-.96h-.96v.96Zm0,24h.96v-.96h-.96v.96ZM1.68,624.72h-.96v.96h.96v-.96Zm-.96,24.96h.96v-.96h-.96v.96Zm0,24h.96v-.96h-.96v.96Zm144-48h.96v-.96h-.96v.96Zm24,0h.96v-.96h-.96v.96Zm24,0h.96v-.96h-.96v.96Zm24,0h.96v-.96h-.96v.96Zm-72,24h.96v-.96h-.96v.96Zm24,0h.96v-.96h-.96v.96Zm24,0h.96v-.96h-.96v.96Zm24,0h.96v-.96h-.96v.96Zm-72,24h.96v-.96h-.96v.96Zm24,0h.96v-.96h-.96v.96Zm24,0h.96v-.96h-.96v.96Zm24,0h.96v-.96h-.96v.96Zm24.96-48.96h-.96v.96h.96v-.96Zm-.96,24.96h.96v-.96h-.96v.96Zm0,24h.96v-.96h-.96v.96Zm24-168h.96v-.96h-.96v.96Zm24,0h.96v-.96h-.96v.96Zm24,0h.96v-.96h-.96v.96Zm24,0h.96v-.96h-.96v.96Zm-72,24h.96v-.96h-.96v.96Zm24,0h.96v-.96h-.96v.96Zm24,0h.96v-.96h-.96v.96Zm24,0h.96v-.96h-.96v.96Zm-72,24h.96v-.96h-.96v.96Zm24,0h.96v-.96h-.96v.96Zm24,0h.96v-.96h-.96v.96Zm24,0h.96v-.96h-.96v.96Zm-72,24h.96v-.96h-.96v.96Zm24,0h.96v-.96h-.96v.96Zm24,0h.96v-.96h-.96v.96Zm24,0h.96v-.96h-.96v.96Zm-72,24h.96v-.96h-.96v.96Zm24,0h.96v-.96h-.96v.96Zm24,0h.96v-.96h-.96v.96Zm24,0h.96v-.96h-.96v.96Zm24.96-96.96h-.96v.96h.96v-.96Zm-.96,24.96h.96v-.96h-.96v.96Zm0,24h.96v-.96h-.96v.96Zm0,24h.96v-.96h-.96v.96Zm24-72h.96v-.96h-.96v.96Zm24,0h.96v-.96h-.96v.96Zm24,0h.96v-.96h-.96v.96Zm24,0h.96v-.96h-.96v.96Zm-72,24h.96v-.96h-.96v.96Zm24,0h.96v-.96h-.96v.96Zm24,0h.96v-.96h-.96v.96Zm24,0h.96v-.96h-.96v.96Zm-72,24h.96v-.96h-.96v.96Zm24,0h.96v-.96h-.96v.96Zm24,0h.96v-.96h-.96v.96Zm24,0h.96v-.96h-.96v.96Zm-72,24h.96v-.96h-.96v.96Zm24,0h.96v-.96h-.96v.96Zm24,0h.96v-.96h-.96v.96Zm24,0h.96v-.96h-.96v.96Zm-72,24h.96v-.96h-.96v.96Zm24,0h.96v-.96h-.96v.96Zm24,0h.96v-.96h-.96v.96Zm24,0h.96v-.96h-.96v.96Zm24.96-96.96h-.96v.96h.96v-.96Zm-.96,24.96h.96v-.96h-.96v.96Zm0,24h.96v-.96h-.96v.96Zm0,24h.96v-.96h-.96v.96Zm-216,48h.96v-.96h-.96v.96Zm24,0h.96v-.96h-.96v.96Zm24,0h.96v-.96h-.96v.96Zm24,0h.96v-.96h-.96v.96Zm-72,24h.96v-.96h-.96v.96Zm24,0h.96v-.96h-.96v.96Zm24,0h.96v-.96h-.96v.96Zm24,0h.96v-.96h-.96v.96Zm-72,24h.96v-.96h-.96v.96Zm24,0h.96v-.96h-.96v.96Zm24,0h.96v-.96h-.96v.96Zm24,0h.96v-.96h-.96v.96Zm24.96-48.96h-.96v.96h.96v-.96Zm-.96,24.96h.96v-.96h-.96v.96Zm0,24h.96v-.96h-.96v.96Zm24-48h.96v-.96h-.96v.96Zm24,0h.96v-.96h-.96v.96Zm24,0h.96v-.96h-.96v.96Zm24,0h.96v-.96h-.96v.96Zm-72,24h.96v-.96h-.96v.96Zm24,0h.96v-.96h-.96v.96Zm24,0h.96v-.96h-.96v.96Zm24,0h.96v-.96h-.96v.96Zm-72,24h.96v-.96h-.96v.96Zm24,0h.96v-.96h-.96v.96Zm24,0h.96v-.96h-.96v.96Zm24,0h.96v-.96h-.96v.96Zm24.96-48.96h-.96v.96h.96v-.96Zm-.96,24.96h.96v-.96h-.96v.96Zm0,24h.96v-.96h-.96v.96ZM504.72,1.68h.96v-.96h-.96v.96Zm24,0h.96v-.96h-.96v.96Zm24,0h.96v-.96h-.96v.96Zm24,0h.96v-.96h-.96v.96Zm-72,24h.96v-.96h-.96v.96Zm24,0h.96v-.96h-.96v.96Zm24,0h.96v-.96h-.96v.96Zm24,0h.96v-.96h-.96v.96Zm-72,24h.96v-.96h-.96v.96Zm24,0h.96v-.96h-.96v.96Zm24,0h.96v-.96h-.96v.96Zm24,0h.96v-.96h-.96v.96Zm-72,24h.96v-.96h-.96v.96Zm24,0h.96v-.96h-.96v.96Zm24,0h.96v-.96h-.96v.96Zm24,0h.96v-.96h-.96v.96Zm-72,24h.96v-.96h-.96v.96Zm24,0h.96v-.96h-.96v.96Zm24,0h.96v-.96h-.96v.96Zm24,0h.96v-.96h-.96v.96Zm-72,24h.96v-.96h-.96v.96Zm24,0h.96v-.96h-.96v.96Zm24,0h.96v-.96h-.96v.96Zm24,0h.96v-.96h-.96v.96Zm24.96-96.96h-.96v.96h.96v-.96Zm-.96,24.96h.96v-.96h-.96v.96Zm0,24h.96v-.96h-.96v.96Zm0,24h.96v-.96h-.96v.96ZM624.72,1.68h.96v-.96h-.96v.96Zm24,0h.96v-.96h-.96v.96Zm24,0h.96v-.96h-.96v.96Zm24,0h.96v-.96h-.96v.96Zm-72,24h.96v-.96h-.96v.96Zm24,0h.96v-.96h-.96v.96Zm24,0h.96v-.96h-.96v.96Zm24,0h.96v-.96h-.96v.96Zm-72,24h.96v-.96h-.96v.96Zm24,0h.96v-.96h-.96v.96Zm24,0h.96v-.96h-.96v.96Zm24,0h.96v-.96h-.96v.96Zm-72,24h.96v-.96h-.96v.96Zm24,0h.96v-.96h-.96v.96Zm24,0h.96v-.96h-.96v.96Zm24,0h.96v-.96h-.96v.96Zm-72,24h.96v-.96h-.96v.96Zm24,0h.96v-.96h-.96v.96Zm24,0h.96v-.96h-.96v.96Zm24,0h.96v-.96h-.96v.96Zm-72,24h.96v-.96h-.96v.96Zm24,0h.96v-.96h-.96v.96Zm24,0h.96v-.96h-.96v.96Zm24,0h.96v-.96h-.96v.96Zm24.96-96.96h-.96v.96h.96v-.96Zm-.96,24.96h.96v-.96h-.96v.96Zm0,24h.96v-.96h-.96v.96Zm0,24h.96v-.96h-.96v.96Zm-216,48h.96v-.96h-.96v.96Zm24,0h.96v-.96h-.96v.96Zm24,0h.96v-.96h-.96v.96Zm24,0h.96v-.96h-.96v.96Zm-72,24h.96v-.96h-.96v.96Zm24,0h.96v-.96h-.96v.96Zm24,0h.96v-.96h-.96v.96Zm24,0h.96v-.96h-.96v.96Zm-72,24h.96v-.96h-.96v.96Zm24,0h.96v-.96h-.96v.96Zm24,0h.96v-.96h-.96v.96Zm24,0h.96v-.96h-.96v.96Zm-72,24h.96v-.96h-.96v.96Zm24,0h.96v-.96h-.96v.96Zm24,0h.96v-.96h-.96v.96Zm24,0h.96v-.96h-.96v.96Zm-72,24h.96v-.96h-.96v.96Zm24,0h.96v-.96h-.96v.96Zm24,0h.96v-.96h-.96v.96Zm24,0h.96v-.96h-.96v.96Zm24.96-96.96h-.96v.96h.96v-.96Zm-.96,24.96h.96v-.96h-.96v.96Zm0,24h.96v-.96h-.96v.96Zm0,24h.96v-.96h-.96v.96Zm24-72h.96v-.96h-.96v.96Zm24,0h.96v-.96h-.96v.96Zm24,0h.96v-.96h-.96v.96Zm24,0h.96v-.96h-.96v.96Zm-72,24h.96v-.96h-.96v.96Zm24,0h.96v-.96h-.96v.96Zm24,0h.96v-.96h-.96v.96Zm24,0h.96v-.96h-.96v.96Zm-72,24h.96v-.96h-.96v.96Zm24,0h.96v-.96h-.96v.96Zm24,0h.96v-.96h-.96v.96Zm24,0h.96v-.96h-.96v.96Zm-72,24h.96v-.96h-.96v.96Zm24,0h.96v-.96h-.96v.96Zm24,0h.96v-.96h-.96v.96Zm24,0h.96v-.96h-.96v.96Zm-72,24h.96v-.96h-.96v.96Zm24,0h.96v-.96h-.96v.96Zm24,0h.96v-.96h-.96v.96Zm24,0h.96v-.96h-.96v.96Zm24.96-96.96h-.96v.96h.96v-.96Zm-.96,24.96h.96v-.96h-.96v.96Zm0,24h.96v-.96h-.96v.96Zm0,24h.96v-.96h-.96v.96ZM744.72,1.68h.96v-.96h-.96v.96Zm24,0h.96v-.96h-.96v.96Zm24,0h.96v-.96h-.96v.96Zm24,0h.96v-.96h-.96v.96Zm-72,24h.96v-.96h-.96v.96Zm24,0h.96v-.96h-.96v.96Zm24,0h.96v-.96h-.96v.96Zm24,0h.96v-.96h-.96v.96Zm-72,24h.96v-.96h-.96v.96Zm24,0h.96v-.96h-.96v.96Zm24,0h.96v-.96h-.96v.96Zm24,0h.96v-.96h-.96v.96Zm-72,24h.96v-.96h-.96v.96Zm24,0h.96v-.96h-.96v.96Zm24,0h.96v-.96h-.96v.96Zm24,0h.96v-.96h-.96v.96Zm-72,24h.96v-.96h-.96v.96Zm24,0h.96v-.96h-.96v.96Zm24,0h.96v-.96h-.96v.96Zm24,0h.96v-.96h-.96v.96Zm-72,24h.96v-.96h-.96v.96Zm24,0h.96v-.96h-.96v.96Zm24,0h.96v-.96h-.96v.96Zm24,0h.96v-.96h-.96v.96Zm24.96-96.96h-.96v.96h.96v-.96Zm-.96,24.96h.96v-.96h-.96v.96Zm0,24h.96v-.96h-.96v.96Zm0,24h.96v-.96h-.96v.96ZM864.72,1.68h.96v-.96h-.96v.96Zm24,0h.96v-.96h-.96v.96Zm24,0h.96v-.96h-.96v.96Zm24,0h.96v-.96h-.96v.96Zm-72,24h.96v-.96h-.96v.96Zm24,0h.96v-.96h-.96v.96Zm24,0h.96v-.96h-.96v.96Zm24,0h.96v-.96h-.96v.96Zm-72,24h.96v-.96h-.96v.96Zm24,0h.96v-.96h-.96v.96Zm24,0h.96v-.96h-.96v.96Zm24,0h.96v-.96h-.96v.96Zm-72,24h.96v-.96h-.96v.96Zm24,0h.96v-.96h-.96v.96Zm24,0h.96v-.96h-.96v.96Zm24,0h.96v-.96h-.96v.96Zm-72,24h.96v-.96h-.96v.96Zm24,0h.96v-.96h-.96v.96Zm24,0h.96v-.96h-.96v.96Zm24,0h.96v-.96h-.96v.96Zm-72,24h.96v-.96h-.96v.96Zm24,0h.96v-.96h-.96v.96Zm24,0h.96v-.96h-.96v.96Zm24,0h.96v-.96h-.96v.96Zm24.96-96.96h-.96v.96h.96v-.96Zm-.96,24.96h.96v-.96h-.96v.96Zm0,24h.96v-.96h-.96v.96Zm0,24h.96v-.96h-.96v.96Zm-216,48h.96v-.96h-.96v.96Zm24,0h.96v-.96h-.96v.96Zm24,0h.96v-.96h-.96v.96Zm24,0h.96v-.96h-.96v.96Zm-72,24h.96v-.96h-.96v.96Zm24,0h.96v-.96h-.96v.96Zm24,0h.96v-.96h-.96v.96Zm24,0h.96v-.96h-.96v.96Zm-72,24h.96v-.96h-.96v.96Zm24,0h.96v-.96h-.96v.96Zm24,0h.96v-.96h-.96v.96Zm24,0h.96v-.96h-.96v.96Zm-72,24h.96v-.96h-.96v.96Zm24,0h.96v-.96h-.96v.96Zm24,0h.96v-.96h-.96v.96Zm24,0h.96v-.96h-.96v.96Zm-72,24h.96v-.96h-.96v.96Zm24,0h.96v-.96h-.96v.96Zm24,0h.96v-.96h-.96v.96Zm24,0h.96v-.96h-.96v.96Zm24.96-96.96h-.96v.96h.96v-.96Zm-.96,24.96h.96v-.96h-.96v.96Zm0,24h.96v-.96h-.96v.96Zm0,24h.96v-.96h-.96v.96Zm24-72h.96v-.96h-.96v.96Zm24,0h.96v-.96h-.96v.96Zm24,0h.96v-.96h-.96v.96Zm24,0h.96v-.96h-.96v.96Zm-72,24h.96v-.96h-.96v.96Zm24,0h.96v-.96h-.96v.96Zm24,0h.96v-.96h-.96v.96Zm24,0h.96v-.96h-.96v.96Zm-72,24h.96v-.96h-.96v.96Zm24,0h.96v-.96h-.96v.96Zm24,0h.96v-.96h-.96v.96Zm24,0h.96v-.96h-.96v.96Zm-72,24h.96v-.96h-.96v.96Zm24,0h.96v-.96h-.96v.96Zm24,0h.96v-.96h-.96v.96Zm24,0h.96v-.96h-.96v.96Zm-72,24h.96v-.96h-.96v.96Zm24,0h.96v-.96h-.96v.96Zm24,0h.96v-.96h-.96v.96Zm24,0h.96v-.96h-.96v.96Zm24.96-96.96h-.96v.96h.96v-.96Zm-.96,24.96h.96v-.96h-.96v.96Zm0,24h.96v-.96h-.96v.96Zm0,24h.96v-.96h-.96v.96Zm-456,48h.96v-.96h-.96v.96Zm24,0h.96v-.96h-.96v.96Zm24,0h.96v-.96h-.96v.96Zm24,0h.96v-.96h-.96v.96Zm-72,24h.96v-.96h-.96v.96Zm24,0h.96v-.96h-.96v.96Zm24,0h.96v-.96h-.96v.96Zm24,0h.96v-.96h-.96v.96Zm-72,24h.96v-.96h-.96v.96Zm24,0h.96v-.96h-.96v.96Zm24,0h.96v-.96h-.96v.96Zm24,0h.96v-.96h-.96v.96Zm-72,24h.96v-.96h-.96v.96Zm24,0h.96v-.96h-.96v.96Zm24,0h.96v-.96h-.96v.96Zm24,0h.96v-.96h-.96v.96Zm-72,24h.96v-.96h-.96v.96Zm24,0h.96v-.96h-.96v.96Zm24,0h.96v-.96h-.96v.96Zm24,0h.96v-.96h-.96v.96Zm24.96-96.96h-.96v.96h.96v-.96Zm-.96,24.96h.96v-.96h-.96v.96Zm0,24h.96v-.96h-.96v.96Zm0,24h.96v-.96h-.96v.96Zm24-72h.96v-.96h-.96v.96Zm24,0h.96v-.96h-.96v.96Zm24,0h.96v-.96h-.96v.96Zm24,0h.96v-.96h-.96v.96Zm-72,24h.96v-.96h-.96v.96Zm24,0h.96v-.96h-.96v.96Zm24,0h.96v-.96h-.96v.96Zm24,0h.96v-.96h-.96v.96Zm-72,24h.96v-.96h-.96v.96Zm24,0h.96v-.96h-.96v.96Zm24,0h.96v-.96h-.96v.96Zm24,0h.96v-.96h-.96v.96Zm-72,24h.96v-.96h-.96v.96Zm24,0h.96v-.96h-.96v.96Zm24,0h.96v-.96h-.96v.96Zm24,0h.96v-.96h-.96v.96Zm-72,24h.96v-.96h-.96v.96Zm24,0h.96v-.96h-.96v.96Zm24,0h.96v-.96h-.96v.96Zm24,0h.96v-.96h-.96v.96Zm24.96-96.96h-.96v.96h.96v-.96Zm-.96,24.96h.96v-.96h-.96v.96Zm0,24h.96v-.96h-.96v.96Zm0,24h.96v-.96h-.96v.96Zm-216,48h.96v-.96h-.96v.96Zm24,0h.96v-.96h-.96v.96Zm24,0h.96v-.96h-.96v.96Zm24,0h.96v-.96h-.96v.96Zm-72,24h.96v-.96h-.96v.96Zm24,0h.96v-.96h-.96v.96Zm24,0h.96v-.96h-.96v.96Zm24,0h.96v-.96h-.96v.96Zm-72,24h.96v-.96h-.96v.96Zm24,0h.96v-.96h-.96v.96Zm24,0h.96v-.96h-.96v.96Zm24,0h.96v-.96h-.96v.96Zm-72,24h.96v-.96h-.96v.96Zm24,0h.96v-.96h-.96v.96Zm24,0h.96v-.96h-.96v.96Zm24,0h.96v-.96h-.96v.96Zm-72,24h.96v-.96h-.96v.96Zm24,0h.96v-.96h-.96v.96Zm24,0h.96v-.96h-.96v.96Zm24,0h.96v-.96h-.96v.96Zm24.96-96.96h-.96v.96h.96v-.96Zm-.96,24.96h.96v-.96h-.96v.96Zm0,24h.96v-.96h-.96v.96Zm0,24h.96v-.96h-.96v.96Zm24-72h.96v-.96h-.96v.96Zm24,0h.96v-.96h-.96v.96Zm24,0h.96v-.96h-.96v.96Zm24,0h.96v-.96h-.96v.96Zm-72,24h.96v-.96h-.96v.96Zm24,0h.96v-.96h-.96v.96Zm24,0h.96v-.96h-.96v.96Zm24,0h.96v-.96h-.96v.96Zm-72,24h.96v-.96h-.96v.96Zm24,0h.96v-.96h-.96v.96Zm24,0h.96v-.96h-.96v.96Zm24,0h.96v-.96h-.96v.96Zm-72,24h.96v-.96h-.96v.96Zm24,0h.96v-.96h-.96v.96Zm24,0h.96v-.96h-.96v.96Zm24,0h.96v-.96h-.96v.96Zm-72,24h.96v-.96h-.96v.96Zm24,0h.96v-.96h-.96v.96Zm24,0h.96v-.96h-.96v.96Zm24,0h.96v-.96h-.96v.96Zm24.96-96.96h-.96v.96h.96v-.96Zm-.96,24.96h.96v-.96h-.96v.96Zm0,24h.96v-.96h-.96v.96Zm0,24h.96v-.96h-.96v.96Zm24-192h.96v-.96h-.96v.96Zm24,0h.96v-.96h-.96v.96Zm24,0h.96v-.96h-.96v.96Zm24,0h.96v-.96h-.96v.96Zm-72,24h.96v-.96h-.96v.96Zm24,0h.96v-.96h-.96v.96Zm24,0h.96v-.96h-.96v.96Zm24,0h.96v-.96h-.96v.96Zm-72,24h.96v-.96h-.96v.96Zm24,0h.96v-.96h-.96v.96Zm24,0h.96v-.96h-.96v.96Zm24,0h.96v-.96h-.96v.96Zm-72,24h.96v-.96h-.96v.96Zm24,0h.96v-.96h-.96v.96Zm24,0h.96v-.96h-.96v.96Zm24,0h.96v-.96h-.96v.96Zm-72,24h.96v-.96h-.96v.96Zm24,0h.96v-.96h-.96v.96Zm24,0h.96v-.96h-.96v.96Zm24,0h.96v-.96h-.96v.96Zm24.96-96.96h-.96v.96h.96v-.96Zm-.96,24.96h.96v-.96h-.96v.96Zm0,24h.96v-.96h-.96v.96Zm0,24h.96v-.96h-.96v.96Zm24-72h.96v-.96h-.96v.96Zm24,0h.96v-.96h-.96v.96Zm24,0h.96v-.96h-.96v.96Zm24,0h.96v-.96h-.96v.96Zm-72,24h.96v-.96h-.96v.96Zm24,0h.96v-.96h-.96v.96Zm24,0h.96v-.96h-.96v.96Zm24,0h.96v-.96h-.96v.96Zm-72,24h.96v-.96h-.96v.96Zm24,0h.96v-.96h-.96v.96Zm24,0h.96v-.96h-.96v.96Zm24,0h.96v-.96h-.96v.96Zm-72,24h.96v-.96h-.96v.96Zm24,0h.96v-.96h-.96v.96Zm24,0h.96v-.96h-.96v.96Zm24,0h.96v-.96h-.96v.96Zm-72,24h.96v-.96h-.96v.96Zm24,0h.96v-.96h-.96v.96Zm24,0h.96v-.96h-.96v.96Zm24,0h.96v-.96h-.96v.96Zm24.96-96.96h-.96v.96h.96v-.96Zm-.96,24.96h.96v-.96h-.96v.96Zm0,24h.96v-.96h-.96v.96Zm0,24h.96v-.96h-.96v.96Zm-216,48h.96v-.96h-.96v.96Zm24,0h.96v-.96h-.96v.96Zm24,0h.96v-.96h-.96v.96Zm24,0h.96v-.96h-.96v.96Zm-72,24h.96v-.96h-.96v.96Zm24,0h.96v-.96h-.96v.96Zm24,0h.96v-.96h-.96v.96Zm24,0h.96v-.96h-.96v.96Zm-72,24h.96v-.96h-.96v.96Zm24,0h.96v-.96h-.96v.96Zm24,0h.96v-.96h-.96v.96Zm24,0h.96v-.96h-.96v.96Zm-72,24h.96v-.96h-.96v.96Zm24,0h.96v-.96h-.96v.96Zm24,0h.96v-.96h-.96v.96Zm24,0h.96v-.96h-.96v.96Zm-72,24h.96v-.96h-.96v.96Zm24,0h.96v-.96h-.96v.96Zm24,0h.96v-.96h-.96v.96Zm24,0h.96v-.96h-.96v.96Zm24.96-96.96h-.96v.96h.96v-.96Zm-.96,24.96h.96v-.96h-.96v.96Zm0,24h.96v-.96h-.96v.96Zm0,24h.96v-.96h-.96v.96Zm24-72h.96v-.96h-.96v.96Zm24,0h.96v-.96h-.96v.96Zm24,0h.96v-.96h-.96v.96Zm24,0h.96v-.96h-.96v.96Zm-72,24h.96v-.96h-.96v.96Zm24,0h.96v-.96h-.96v.96Zm24,0h.96v-.96h-.96v.96Zm24,0h.96v-.96h-.96v.96Zm-72,24h.96v-.96h-.96v.96Zm24,0h.96v-.96h-.96v.96Zm24,0h.96v-.96h-.96v.96Zm24,0h.96v-.96h-.96v.96Zm-72,24h.96v-.96h-.96v.96Zm24,0h.96v-.96h-.96v.96Zm24,0h.96v-.96h-.96v.96Zm24,0h.96v-.96h-.96v.96Zm-72,24h.96v-.96h-.96v.96Zm24,0h.96v-.96h-.96v.96Zm24,0h.96v-.96h-.96v.96Zm24,0h.96v-.96h-.96v.96Zm24.96-96.96h-.96v.96h.96v-.96Zm-.96,24.96h.96v-.96h-.96v.96Zm0,24h.96v-.96h-.96v.96Zm0,24h.96v-.96h-.96v.96Zm-456,48h.96v-.96h-.96v.96Zm24,0h.96v-.96h-.96v.96Zm24,0h.96v-.96h-.96v.96Zm24,0h.96v-.96h-.96v.96Zm-72,24h.96v-.96h-.96v.96Zm24,0h.96v-.96h-.96v.96Zm24,0h.96v-.96h-.96v.96Zm24,0h.96v-.96h-.96v.96Zm-72,24h.96v-.96h-.96v.96Zm24,0h.96v-.96h-.96v.96Zm24,0h.96v-.96h-.96v.96Zm24,0h.96v-.96h-.96v.96Zm-72,24h.96v-.96h-.96v.96Zm24,0h.96v-.96h-.96v.96Zm24,0h.96v-.96h-.96v.96Zm24,0h.96v-.96h-.96v.96Zm-72,24h.96v-.96h-.96v.96Zm24,0h.96v-.96h-.96v.96Zm24,0h.96v-.96h-.96v.96Zm24,0h.96v-.96h-.96v.96Zm24.96-96.96h-.96v.96h.96v-.96Zm-.96,24.96h.96v-.96h-.96v.96Zm0,24h.96v-.96h-.96v.96Zm0,24h.96v-.96h-.96v.96Zm24-72h.96v-.96h-.96v.96Zm24,0h.96v-.96h-.96v.96Zm24,0h.96v-.96h-.96v.96Zm24,0h.96v-.96h-.96v.96Zm-72,24h.96v-.96h-.96v.96Zm24,0h.96v-.96h-.96v.96Zm24,0h.96v-.96h-.96v.96Zm24,0h.96v-.96h-.96v.96Zm-72,24h.96v-.96h-.96v.96Zm24,0h.96v-.96h-.96v.96Zm24,0h.96v-.96h-.96v.96Zm24,0h.96v-.96h-.96v.96Zm-72,24h.96v-.96h-.96v.96Zm24,0h.96v-.96h-.96v.96Zm24,0h.96v-.96h-.96v.96Zm24,0h.96v-.96h-.96v.96Zm-72,24h.96v-.96h-.96v.96Zm24,0h.96v-.96h-.96v.96Zm24,0h.96v-.96h-.96v.96Zm24,0h.96v-.96h-.96v.96Zm24.96-96.96h-.96v.96h.96v-.96Zm-.96,24.96h.96v-.96h-.96v.96Zm0,24h.96v-.96h-.96v.96Zm0,24h.96v-.96h-.96v.96Zm-216,48h.96v-.96h-.96v.96Zm24,0h.96v-.96h-.96v.96Zm24,0h.96v-.96h-.96v.96Zm24,0h.96v-.96h-.96v.96Zm-72,24h.96v-.96h-.96v.96Zm24,0h.96v-.96h-.96v.96Zm24,0h.96v-.96h-.96v.96Zm24,0h.96v-.96h-.96v.96Zm-72,24h.96v-.96h-.96v.96Zm24,0h.96v-.96h-.96v.96Zm24,0h.96v-.96h-.96v.96Zm24,0h.96v-.96h-.96v.96Zm24.96-48.96h-.96v.96h.96v-.96Zm-.96,24.96h.96v-.96h-.96v.96Zm0,24h.96v-.96h-.96v.96Zm24-48h.96v-.96h-.96v.96Zm24,0h.96v-.96h-.96v.96Zm24,0h.96v-.96h-.96v.96Zm24,0h.96v-.96h-.96v.96Zm-72,24h.96v-.96h-.96v.96Zm24,0h.96v-.96h-.96v.96Zm24,0h.96v-.96h-.96v.96Zm24,0h.96v-.96h-.96v.96Zm-72,24h.96v-.96h-.96v.96Zm24,0h.96v-.96h-.96v.96Zm24,0h.96v-.96h-.96v.96Zm24,0h.96v-.96h-.96v.96Zm24.96-48.96h-.96v.96h.96v-.96Zm-.96,24.96h.96v-.96h-.96v.96Zm0,24h.96v-.96h-.96v.96Zm24-168h.96v-.96h-.96v.96Zm24,0h.96v-.96h-.96v.96Zm24,0h.96v-.96h-.96v.96Zm24,0h.96v-.96h-.96v.96Zm-72,24h.96v-.96h-.96v.96Zm24,0h.96v-.96h-.96v.96Zm24,0h.96v-.96h-.96v.96Zm24,0h.96v-.96h-.96v.96Zm-72,24h.96v-.96h-.96v.96Zm24,0h.96v-.96h-.96v.96Zm24,0h.96v-.96h-.96v.96Zm24,0h.96v-.96h-.96v.96Zm-72,24h.96v-.96h-.96v.96Zm24,0h.96v-.96h-.96v.96Zm24,0h.96v-.96h-.96v.96Zm24,0h.96v-.96h-.96v.96Zm-72,24h.96v-.96h-.96v.96Zm24,0h.96v-.96h-.96v.96Zm24,0h.96v-.96h-.96v.96Zm24,0h.96v-.96h-.96v.96Zm24.96-96.96h-.96v.96h.96v-.96Zm-.96,24.96h.96v-.96h-.96v.96Zm0,24h.96v-.96h-.96v.96Zm0,24h.96v-.96h-.96v.96Zm24-72h.96v-.96h-.96v.96Zm24,0h.96v-.96h-.96v.96Zm24,0h.96v-.96h-.96v.96Zm24,0h.96v-.96h-.96v.96Zm-72,24h.96v-.96h-.96v.96Zm24,0h.96v-.96h-.96v.96Zm24,0h.96v-.96h-.96v.96Zm24,0h.96v-.96h-.96v.96Zm-72,24h.96v-.96h-.96v.96Zm24,0h.96v-.96h-.96v.96Zm24,0h.96v-.96h-.96v.96Zm24,0h.96v-.96h-.96v.96Zm-72,24h.96v-.96h-.96v.96Zm24,0h.96v-.96h-.96v.96Zm24,0h.96v-.96h-.96v.96Zm24,0h.96v-.96h-.96v.96Zm-72,24h.96v-.96h-.96v.96Zm24,0h.96v-.96h-.96v.96Zm24,0h.96v-.96h-.96v.96Zm24,0h.96v-.96h-.96v.96Zm24.96-96.96h-.96v.96h.96v-.96Zm-.96,24.96h.96v-.96h-.96v.96Zm0,24h.96v-.96h-.96v.96Zm0,24h.96v-.96h-.96v.96Zm-216,48h.96v-.96h-.96v.96Zm24,0h.96v-.96h-.96v.96Zm24,0h.96v-.96h-.96v.96Zm24,0h.96v-.96h-.96v.96Zm-72,24h.96v-.96h-.96v.96Zm24,0h.96v-.96h-.96v.96Zm24,0h.96v-.96h-.96v.96Zm24,0h.96v-.96h-.96v.96Zm-72,24h.96v-.96h-.96v.96Zm24,0h.96v-.96h-.96v.96Zm24,0h.96v-.96h-.96v.96Zm24,0h.96v-.96h-.96v.96Zm24.96-48.96h-.96v.96h.96v-.96Zm-.96,24.96h.96v-.96h-.96v.96Zm0,24h.96v-.96h-.96v.96Zm24-48h.96v-.96h-.96v.96Zm24,0h.96v-.96h-.96v.96Zm24,0h.96v-.96h-.96v.96Zm24,0h.96v-.96h-.96v.96Zm-72,24h.96v-.96h-.96v.96Zm24,0h.96v-.96h-.96v.96Zm24,0h.96v-.96h-.96v.96Zm24,0h.96v-.96h-.96v.96Zm-72,24h.96v-.96h-.96v.96Zm24,0h.96v-.96h-.96v.96Zm24,0h.96v-.96h-.96v.96Zm24,0h.96v-.96h-.96v.96Zm24.96-48.96h-.96v.96h.96v-.96Zm-.96,24.96h.96v-.96h-.96v.96Zm0,24h.96v-.96h-.96v.96ZM984.72,1.68h.96v-.96h-.96v.96Zm24,0h.96v-.96h-.96v.96Zm24,0h.96v-.96h-.96v.96Zm24,0h.96v-.96h-.96v.96Zm-72,24h.96v-.96h-.96v.96Zm24,0h.96v-.96h-.96v.96Zm24,0h.96v-.96h-.96v.96Zm24,0h.96v-.96h-.96v.96Zm-72,24h.96v-.96h-.96v.96Zm24,0h.96v-.96h-.96v.96Zm24,0h.96v-.96h-.96v.96Zm24,0h.96v-.96h-.96v.96Zm-72,24h.96v-.96h-.96v.96Zm24,0h.96v-.96h-.96v.96Zm24,0h.96v-.96h-.96v.96Zm24,0h.96v-.96h-.96v.96Zm-72,24h.96v-.96h-.96v.96Zm24,0h.96v-.96h-.96v.96Zm24,0h.96v-.96h-.96v.96Zm24,0h.96v-.96h-.96v.96Zm-72,24h.96v-.96h-.96v.96Zm24,0h.96v-.96h-.96v.96Zm24,0h.96v-.96h-.96v.96Zm24,0h.96v-.96h-.96v.96Zm24.96-96.96h-.96v.96h.96v-.96Zm-.96,24.96h.96v-.96h-.96v.96Zm0,24h.96v-.96h-.96v.96Zm0,24h.96v-.96h-.96v.96Zm-96,48h.96v-.96h-.96v.96Zm24,0h.96v-.96h-.96v.96Zm24,0h.96v-.96h-.96v.96Zm24,0h.96v-.96h-.96v.96Zm-72,24h.96v-.96h-.96v.96Zm24,0h.96v-.96h-.96v.96Zm24,0h.96v-.96h-.96v.96Zm24,0h.96v-.96h-.96v.96Zm-72,24h.96v-.96h-.96v.96Zm24,0h.96v-.96h-.96v.96Zm24,0h.96v-.96h-.96v.96Zm24,0h.96v-.96h-.96v.96Zm-72,24h.96v-.96h-.96v.96Zm24,0h.96v-.96h-.96v.96Zm24,0h.96v-.96h-.96v.96Zm24,0h.96v-.96h-.96v.96Zm-72,24h.96v-.96h-.96v.96Zm24,0h.96v-.96h-.96v.96Zm24,0h.96v-.96h-.96v.96Zm24,0h.96v-.96h-.96v.96Zm24.96-96.96h-.96v.96h.96v-.96Zm-.96,24.96h.96v-.96h-.96v.96Zm0,24h.96v-.96h-.96v.96Zm0,24h.96v-.96h-.96v.96Zm-96,48h.96v-.96h-.96v.96Zm24,0h.96v-.96h-.96v.96Zm24,0h.96v-.96h-.96v.96Zm24,0h.96v-.96h-.96v.96Zm-72,24h.96v-.96h-.96v.96Zm24,0h.96v-.96h-.96v.96Zm24,0h.96v-.96h-.96v.96Zm24,0h.96v-.96h-.96v.96Zm-72,24h.96v-.96h-.96v.96Zm24,0h.96v-.96h-.96v.96Zm24,0h.96v-.96h-.96v.96Zm24,0h.96v-.96h-.96v.96Zm-72,24h.96v-.96h-.96v.96Zm24,0h.96v-.96h-.96v.96Zm24,0h.96v-.96h-.96v.96Zm24,0h.96v-.96h-.96v.96Zm-72,24h.96v-.96h-.96v.96Zm24,0h.96v-.96h-.96v.96Zm24,0h.96v-.96h-.96v.96Zm24,0h.96v-.96h-.96v.96Zm24.96-96.96h-.96v.96h.96v-.96Zm-.96,24.96h.96v-.96h-.96v.96Zm0,24h.96v-.96h-.96v.96Zm0,24h.96v-.96h-.96v.96Zm-96,48h.96v-.96h-.96v.96Zm24,0h.96v-.96h-.96v.96Zm24,0h.96v-.96h-.96v.96Zm24,0h.96v-.96h-.96v.96Zm-72,24h.96v-.96h-.96v.96Zm24,0h.96v-.96h-.96v.96Zm24,0h.96v-.96h-.96v.96Zm24,0h.96v-.96h-.96v.96Zm-72,24h.96v-.96h-.96v.96Zm24,0h.96v-.96h-.96v.96Zm24,0h.96v-.96h-.96v.96Zm24,0h.96v-.96h-.96v.96Zm-72,24h.96v-.96h-.96v.96Zm24,0h.96v-.96h-.96v.96Zm24,0h.96v-.96h-.96v.96Zm24,0h.96v-.96h-.96v.96Zm-72,24h.96v-.96h-.96v.96Zm24,0h.96v-.96h-.96v.96Zm24,0h.96v-.96h-.96v.96Zm24,0h.96v-.96h-.96v.96Zm24.96-96.96h-.96v.96h.96v-.96Zm-.96,24.96h.96v-.96h-.96v.96Zm0,24h.96v-.96h-.96v.96Zm0,24h.96v-.96h-.96v.96Zm-96,48h.96v-.96h-.96v.96Zm24,0h.96v-.96h-.96v.96Zm24,0h.96v-.96h-.96v.96Zm24,0h.96v-.96h-.96v.96Zm-72,24h.96v-.96h-.96v.96Zm24,0h.96v-.96h-.96v.96Zm24,0h.96v-.96h-.96v.96Zm24,0h.96v-.96h-.96v.96Zm-72,24h.96v-.96h-.96v.96Zm24,0h.96v-.96h-.96v.96Zm24,0h.96v-.96h-.96v.96Zm24,0h.96v-.96h-.96v.96Zm-72,24h.96v-.96h-.96v.96Zm24,0h.96v-.96h-.96v.96Zm24,0h.96v-.96h-.96v.96Zm24,0h.96v-.96h-.96v.96Zm-72,24h.96v-.96h-.96v.96Zm24,0h.96v-.96h-.96v.96Zm24,0h.96v-.96h-.96v.96Zm24,0h.96v-.96h-.96v.96Zm24.96-96.96h-.96v.96h.96v-.96Zm-.96,24.96h.96v-.96h-.96v.96Zm0,24h.96v-.96h-.96v.96Zm0,24h.96v-.96h-.96v.96Zm-96,48h.96v-.96h-.96v.96Zm24,0h.96v-.96h-.96v.96Zm24,0h.96v-.96h-.96v.96Zm24,0h.96v-.96h-.96v.96Zm-72,24h.96v-.96h-.96v.96Zm24,0h.96v-.96h-.96v.96Zm24,0h.96v-.96h-.96v.96Zm24,0h.96v-.96h-.96v.96Zm-72,24h.96v-.96h-.96v.96Zm24,0h.96v-.96h-.96v.96Zm24,0h.96v-.96h-.96v.96Zm24,0h.96v-.96h-.96v.96Zm24.96-48.96h-.96v.96h.96v-.96Zm-.96,24.96h.96v-.96h-.96v.96Zm0,24h.96v-.96h-.96v.96ZM24.72,697.68h.96v-.96h-.96v.96Zm24,0h.96v-.96h-.96v.96Zm24,0h.96v-.96h-.96v.96Zm24,0h.96v-.96h-.96v.96Zm-72,24h.96v-.96h-.96v.96Zm24,0h.96v-.96h-.96v.96Zm24,0h.96v-.96h-.96v.96Zm24,0h.96v-.96h-.96v.96Zm24-24h.96v-.96h-.96v.96Zm-120,0h.96v-.96h-.96v.96Zm144,0h.96v-.96h-.96v.96Zm24,0h.96v-.96h-.96v.96Zm24,0h.96v-.96h-.96v.96Zm24,0h.96v-.96h-.96v.96Zm-72,24h.96v-.96h-.96v.96Zm24,0h.96v-.96h-.96v.96Zm24,0h.96v-.96h-.96v.96Zm24,0h.96v-.96h-.96v.96Zm24-24h.96v-.96h-.96v.96Zm24,0h.96v-.96h-.96v.96Zm24,0h.96v-.96h-.96v.96Zm24,0h.96v-.96h-.96v.96Zm24,0h.96v-.96h-.96v.96Zm-72,24h.96v-.96h-.96v.96Zm24,0h.96v-.96h-.96v.96Zm24,0h.96v-.96h-.96v.96Zm24,0h.96v-.96h-.96v.96Zm24-24h.96v-.96h-.96v.96Zm24,0h.96v-.96h-.96v.96Zm24,0h.96v-.96h-.96v.96Zm24,0h.96v-.96h-.96v.96Zm24,0h.96v-.96h-.96v.96Zm-72,24h.96v-.96h-.96v.96Zm24,0h.96v-.96h-.96v.96Zm24,0h.96v-.96h-.96v.96Zm24,0h.96v-.96h-.96v.96Zm24-24h.96v-.96h-.96v.96Zm24,0h.96v-.96h-.96v.96Zm24,0h.96v-.96h-.96v.96Zm24,0h.96v-.96h-.96v.96Zm24,0h.96v-.96h-.96v.96Zm-72,24h.96v-.96h-.96v.96Zm24,0h.96v-.96h-.96v.96Zm24,0h.96v-.96h-.96v.96Zm24,0h.96v-.96h-.96v.96Zm24-24h.96v-.96h-.96v.96Zm24,0h.96v-.96h-.96v.96Zm24,0h.96v-.96h-.96v.96Zm24,0h.96v-.96h-.96v.96Zm24,0h.96v-.96h-.96v.96Zm-72,24h.96v-.96h-.96v.96Zm24,0h.96v-.96h-.96v.96Zm24,0h.96v-.96h-.96v.96Zm24,0h.96v-.96h-.96v.96Zm24-24h.96v-.96h-.96v.96Zm24,0h.96v-.96h-.96v.96Zm24,0h.96v-.96h-.96v.96Zm24,0h.96v-.96h-.96v.96Zm24,0h.96v-.96h-.96v.96Zm-72,24h.96v-.96h-.96v.96Zm24,0h.96v-.96h-.96v.96Zm24,0h.96v-.96h-.96v.96Zm24,0h.96v-.96h-.96v.96Zm24-24h.96v-.96h-.96v.96Zm24,0h.96v-.96h-.96v.96Zm24,0h.96v-.96h-.96v.96Zm24,0h.96v-.96h-.96v.96Zm24,0h.96v-.96h-.96v.96Zm-72,24h.96v-.96h-.96v.96Zm24,0h.96v-.96h-.96v.96Zm24,0h.96v-.96h-.96v.96Zm24,0h.96v-.96h-.96v.96Zm24-24h.96v-.96h-.96v.96Zm24,0h.96v-.96h-.96v.96Zm24,0h.96v-.96h-.96v.96Zm24,0h.96v-.96h-.96v.96Zm24,0h.96v-.96h-.96v.96Zm-72,24h.96v-.96h-.96v.96Zm24,0h.96v-.96h-.96v.96Zm24,0h.96v-.96h-.96v.96Zm24,0h.96v-.96h-.96v.96Zm24-24h.96v-.96h-.96v.96ZM0,2.4h2.4V0H0v2.4ZM0,122.4h2.4v-2.4H0v2.4ZM120,2.4h2.4V0h-2.4v2.4Zm0,120h2.4v-2.4h-2.4v2.4ZM240,2.4h2.4V0h-2.4v2.4Zm0,120h2.4v-2.4h-2.4v2.4ZM0,242.4h2.4v-2.4H0v2.4Zm120,0h2.4v-2.4h-2.4v2.4Zm120,0h2.4v-2.4h-2.4v2.4ZM360,2.4h2.4V0h-2.4v2.4Zm0,120h2.4v-2.4h-2.4v2.4ZM480,2.4h2.4V0h-2.4v2.4Zm0,120h2.4v-2.4h-2.4v2.4Zm-120,120h2.4v-2.4h-2.4v2.4Zm120,0h2.4v-2.4h-2.4v2.4ZM0,362.4h2.4v-2.4H0v2.4Zm120,0h2.4v-2.4h-2.4v2.4Zm120,0h2.4v-2.4h-2.4v2.4ZM0,482.4h2.4v-2.4H0v2.4Zm120,0h2.4v-2.4h-2.4v2.4Zm120,0h2.4v-2.4h-2.4v2.4Zm120-120h2.4v-2.4h-2.4v2.4Zm120,0h2.4v-2.4h-2.4v2.4Zm-120,120h2.4v-2.4h-2.4v2.4Zm120,0h2.4v-2.4h-2.4v2.4ZM0,602.4h2.4v-2.4H0v2.4Zm120,0h2.4v-2.4h-2.4v2.4Zm120,0h2.4v-2.4h-2.4v2.4Zm120,0h2.4v-2.4h-2.4v2.4Zm120,0h2.4v-2.4h-2.4v2.4ZM600,2.4h2.4V0h-2.4v2.4Zm0,120h2.4v-2.4h-2.4v2.4ZM720,2.4h2.4V0h-2.4v2.4Zm0,120h2.4v-2.4h-2.4v2.4Zm-120,120h2.4v-2.4h-2.4v2.4Zm120,0h2.4v-2.4h-2.4v2.4ZM840,2.4h2.4V0h-2.4v2.4Zm0,120h2.4v-2.4h-2.4v2.4ZM960,2.4h2.4V0h-2.4v2.4Zm0,120h2.4v-2.4h-2.4v2.4Zm-120,120h2.4v-2.4h-2.4v2.4Zm120,0h2.4v-2.4h-2.4v2.4Zm-360,120h2.4v-2.4h-2.4v2.4Zm120,0h2.4v-2.4h-2.4v2.4Zm-120,120h2.4v-2.4h-2.4v2.4Zm120,0h2.4v-2.4h-2.4v2.4Zm120-120h2.4v-2.4h-2.4v2.4Zm120,0h2.4v-2.4h-2.4v2.4Zm-120,120h2.4v-2.4h-2.4v2.4Zm120,0h2.4v-2.4h-2.4v2.4Zm-360,120h2.4v-2.4h-2.4v2.4Zm120,0h2.4v-2.4h-2.4v2.4Zm120,0h2.4v-2.4h-2.4v2.4Zm120,0h2.4v-2.4h-2.4v2.4ZM1080,0v2.4h2.4V0h-2.4Zm0,122.4h2.4v-2.4h-2.4v2.4Zm0,120h2.4v-2.4h-2.4v2.4Zm0,120h2.4v-2.4h-2.4v2.4Zm0,120h2.4v-2.4h-2.4v2.4Zm0,120h2.4v-2.4h-2.4v2.4ZM0,722.4h2.4v-2.4H0v2.4Zm120,0h2.4v-2.4h-2.4v2.4Zm120,0h2.4v-2.4h-2.4v2.4Zm120,0h2.4v-2.4h-2.4v2.4Zm120,0h2.4v-2.4h-2.4v2.4Zm120,0h2.4v-2.4h-2.4v2.4Zm120,0h2.4v-2.4h-2.4v2.4Zm120,0h2.4v-2.4h-2.4v2.4Zm120,0h2.4v-2.4h-2.4v2.4Zm120,0h2.4v-2.4h-2.4v2.4Z"/></g></svg>