<?xml version="1.0" encoding="UTF-8"?><svg id="Layer_2" xmlns="http://www.w3.org/2000/svg" viewBox="0 0 1128 768"><defs><style>.cls-1{fill-rule:evenodd;stroke-width:0px;}</style></defs><g id="Layer_1-2"><path class="cls-1" d="m1128,24.24v-.48h-23.76V0h-.48v23.76h-23.52V0h-.48v23.76h-23.52V0h-.48v23.76h-23.52V0h-.48v23.76h-23.52V0h-.48v23.76h-23.52V0h-.48v23.76h-23.52V0h-.48v23.76h-23.52V0h-.48v23.76h-23.52V0h-.48v23.76h-23.52V0h-.48v23.76h-23.52V0h-.48v23.76h-23.52V0h-.48v23.76h-23.52V0h-.48v23.76h-23.52V0h-.48v23.76h-23.52V0h-.48v23.76h-23.52V0h-.48v23.76h-23.52V0h-.48v23.76h-23.52V0h-.48v23.76h-23.52V0h-.48v23.76h-23.52V0h-.48v23.76h-23.52V0h-.48v23.76h-23.52V0h-.48v23.76h-23.52V0h-.48v23.76h-23.52V0h-.48v23.76h-23.52V0h-.48v23.76h-23.52V0h-.48v23.76h-23.52V0h-.48v23.76h-23.52V0h-.48v23.76h-23.52V0h-.48v23.76h-23.52V0h-.48v23.76h-23.52V0h-.48v23.76h-23.52V0h-.48v23.76h-23.52V0h-.48v23.76h-23.52V0h-.48v23.76h-23.52V0h-.48v23.76h-23.52V0h-.48v23.76h-23.52V0h-.48v23.76h-23.52V0h-.48v23.76h-23.52V0h-.48v23.76h-23.52V0h-.48v23.76h-23.52V0h-.48v23.76h-23.52V0h-.48v23.76h-23.52V0h-.48v23.76h-23.52V0h-.48v23.76h-23.52V0h-.48v23.76h-23.52V0h-.48v23.76H0v.48h23.76v23.52H0v.48h23.76v23.52H0v.48h23.76v23.52H0v.48h23.76v23.52H0v.48h23.76v23.52H0v.48h23.76v23.52H0v.48h23.76v23.52H0v.48h23.76v23.52H0v.48h23.76v23.52H0v.48h23.76v23.52H0v.48h23.76v23.52H0v.48h23.76v23.52H0v.48h23.76v23.52H0v.48h23.76v23.52H0v.48h23.76v23.52H0v.48h23.76v23.52H0v.48h23.76v23.52H0v.48h23.76v23.52H0v.48h23.76v23.52H0v.48h23.76v23.52H0v.48h23.76v23.52H0v.48h23.76v23.52H0v.48h23.76v23.52H0v.48h23.76v23.52H0v.48h23.76v23.52H0v.48h23.76v23.52H0v.48h23.76v23.52H0v.48h23.76v23.52H0v.48h23.76v23.52H0v.48h23.76v23.52H0v.48h23.76v23.76h.48v-23.76h23.52v23.76h.48v-23.76h23.52v23.76h.48v-23.76h23.52v23.76h.48v-23.76h23.52v23.76h.48v-23.76h23.52v23.76h.48v-23.76h23.52v23.76h.48v-23.76h23.52v23.76h.48v-23.76h23.52v23.76h.48v-23.76h23.52v23.76h.48v-23.76h23.52v23.76h.48v-23.76h23.52v23.76h.48v-23.76h23.52v23.76h.48v-23.76h23.52v23.76h.48v-23.76h23.52v23.76h.48v-23.76h23.52v23.76h.48v-23.76h23.52v23.76h.48v-23.76h23.52v23.76h.48v-23.76h23.52v23.76h.48v-23.76h23.52v23.76h.48v-23.76h23.52v23.76h.48v-23.76h23.52v23.76h.48v-23.76h23.52v23.76h.48v-23.76h23.52v23.76h.48v-23.76h23.52v23.76h.48v-23.76h23.52v23.76h.48v-23.76h23.52v23.76h.48v-23.76h23.52v23.76h.48v-23.76h23.52v23.76h.48v-23.76h23.52v23.76h.48v-23.76h23.52v23.76h.48v-23.76h23.52v23.76h.48v-23.76h23.52v23.76h.48v-23.76h23.52v23.76h.48v-23.76h23.52v23.76h.48v-23.76h23.52v23.76h.48v-23.76h23.52v23.76h.48v-23.76h23.52v23.76h.48v-23.76h23.52v23.76h.48v-23.76h23.52v23.76h.48v-23.76h23.52v23.76h.48v-23.76h23.52v23.76h.48v-23.76h23.52v23.76h.48v-23.76h23.52v23.76h.48v-23.76h23.52v23.76h.48v-23.76h23.52v23.76h.48v-23.76h23.76v-.48h-23.76v-23.52h23.76v-.48h-23.76v-23.52h23.76v-.48h-23.76v-23.52h23.76v-.48h-23.76v-23.52h23.76v-.48h-23.76v-23.52h23.76v-.48h-23.76v-23.52h23.76v-.48h-23.76v-23.52h23.76v-.48h-23.76v-23.52h23.76v-.48h-23.76v-23.52h23.76v-.48h-23.76v-23.52h23.76v-.48h-23.76v-23.52h23.76v-.48h-23.76v-23.52h23.76v-.48h-23.76v-23.52h23.76v-.48h-23.76v-23.52h23.76v-.48h-23.76v-23.52h23.76v-.48h-23.76v-23.52h23.76v-.48h-23.76v-23.52h23.76v-.48h-23.76v-23.52h23.76v-.48h-23.76v-23.52h23.76v-.48h-23.76v-23.52h23.76v-.48h-23.76v-23.52h23.76v-.48h-23.76v-23.52h23.76v-.48h-23.76v-23.52h23.76v-.48h-23.76v-23.52h23.76v-.48h-23.76v-23.52h23.76v-.48h-23.76v-23.52h23.76v-.48h-23.76v-23.52h23.76v-.48h-23.76v-23.52h23.76v-.48h-23.76v-23.52h23.76v-.48h-23.76v-23.52h23.76Zm-48.24,0v23.52h-23.52v-23.52h23.52Zm-360,359.52h-23.52v-23.52h23.52v23.52Zm.48-23.52h23.52v23.52h-23.52v-23.52Zm-24.48,23.52h-23.52v-23.52h23.52v23.52Zm-24,0h-23.52v-23.52h23.52v23.52Zm-24,0h-23.52v-23.52h23.52v23.52Zm-24,0h-23.52v-23.52h23.52v23.52Zm-24,0h-23.52v-23.52h23.52v23.52Zm-24,0h-23.52v-23.52h23.52v23.52Zm-24,0h-23.52v-23.52h23.52v23.52Zm-24,0h-23.52v-23.52h23.52v23.52Zm-24,0h-23.52v-23.52h23.52v23.52Zm-24,0h-23.52v-23.52h23.52v23.52Zm-24,0h-23.52v-23.52h23.52v23.52Zm-24,0h-23.52v-23.52h23.52v23.52Zm-24,0h-23.52v-23.52h23.52v23.52Zm-24,0h-23.52v-23.52h23.52v23.52Zm0,.48v23.52h-23.52v-23.52h23.52Zm.48,0h23.52v23.52h-23.52v-23.52Zm24,0h23.52v23.52h-23.52v-23.52Zm24,0h23.52v23.52h-23.52v-23.52Zm24,0h23.52v23.52h-23.52v-23.52Zm24,0h23.52v23.52h-23.52v-23.52Zm24,0h23.52v23.52h-23.52v-23.52Zm24,0h23.52v23.52h-23.52v-23.52Zm24,0h23.52v23.52h-23.52v-23.52Zm24,0h23.52v23.52h-23.52v-23.52Zm24,0h23.52v23.52h-23.52v-23.52Zm24,0h23.52v23.52h-23.52v-23.52Zm24,0h23.52v23.52h-23.52v-23.52Zm24,0h23.52v23.52h-23.52v-23.52Zm24,0h23.52v23.52h-23.52v-23.52Zm24,0h23.52v23.52h-23.52v-23.52Zm24,0h23.52v23.52h-23.52v-23.52Zm0-.48v-23.52h23.52v23.52h-23.52Zm0-24v-23.52h23.52v23.52h-23.52Zm-.48,0h-23.52v-23.52h23.52v23.52Zm-24,0h-23.52v-23.52h23.52v23.52Zm-24,0h-23.52v-23.52h23.52v23.52Zm-24,0h-23.52v-23.52h23.52v23.52Zm-24,0h-23.52v-23.52h23.52v23.52Zm-24,0h-23.52v-23.52h23.52v23.52Zm-24,0h-23.52v-23.52h23.52v23.52Zm-24,0h-23.52v-23.52h23.52v23.52Zm-24,0h-23.52v-23.52h23.52v23.52Zm-24,0h-23.52v-23.52h23.52v23.52Zm-24,0h-23.52v-23.52h23.52v23.52Zm-24,0h-23.52v-23.52h23.52v23.52Zm-24,0h-23.52v-23.52h23.52v23.52Zm-24,0h-23.52v-23.52h23.52v23.52Zm-24,0h-23.52v-23.52h23.52v23.52Zm-24,0h-23.52v-23.52h23.52v23.52Zm-24,0h-23.52v-23.52h23.52v23.52Zm0,.48v23.52h-23.52v-23.52h23.52Zm0,24v23.52h-23.52v-23.52h23.52Zm0,24v23.52h-23.52v-23.52h23.52Zm.48,0h23.52v23.52h-23.52v-23.52Zm24,0h23.52v23.52h-23.52v-23.52Zm24,0h23.52v23.52h-23.52v-23.52Zm24,0h23.52v23.52h-23.52v-23.52Zm24,0h23.52v23.52h-23.52v-23.52Zm24,0h23.52v23.52h-23.52v-23.52Zm24,0h23.52v23.52h-23.52v-23.52Zm24,0h23.52v23.52h-23.52v-23.52Zm24,0h23.52v23.52h-23.52v-23.52Zm24,0h23.52v23.52h-23.52v-23.52Zm24,0h23.52v23.52h-23.52v-23.52Zm24,0h23.52v23.52h-23.52v-23.52Zm24,0h23.52v23.52h-23.52v-23.52Zm24,0h23.52v23.52h-23.52v-23.52Zm24,0h23.52v23.52h-23.52v-23.52Zm24,0h23.52v23.52h-23.52v-23.52Zm24,0h23.52v23.52h-23.52v-23.52Zm24,0h23.52v23.52h-23.52v-23.52Zm0-.48v-23.52h23.52v23.52h-23.52Zm0-24v-23.52h23.52v23.52h-23.52Zm0-24v-23.52h23.52v23.52h-23.52Zm0-24v-23.52h23.52v23.52h-23.52Zm-.48,0h-23.52v-23.52h23.52v23.52Zm-24,0h-23.52v-23.52h23.52v23.52Zm-24,0h-23.52v-23.52h23.52v23.52Zm-24,0h-23.52v-23.52h23.52v23.52Zm-24,0h-23.52v-23.52h23.52v23.52Zm-24,0h-23.52v-23.52h23.52v23.52Zm-24,0h-23.52v-23.52h23.52v23.52Zm-24,0h-23.52v-23.52h23.52v23.52Zm-24,0h-23.52v-23.52h23.52v23.52Zm-24,0h-23.52v-23.52h23.52v23.52Zm-24,0h-23.52v-23.52h23.52v23.52Zm-24,0h-23.52v-23.52h23.52v23.52Zm-24,0h-23.52v-23.52h23.52v23.52Zm-24,0h-23.52v-23.52h23.52v23.52Zm-24,0h-23.52v-23.52h23.52v23.52Zm-24,0h-23.52v-23.52h23.52v23.52Zm-24,0h-23.52v-23.52h23.52v23.52Zm-24,0h-23.52v-23.52h23.52v23.52Zm-24,0h-23.52v-23.52h23.52v23.52Zm0,.48v23.52h-23.52v-23.52h23.52Zm0,24v23.52h-23.52v-23.52h23.52Zm0,24v23.52h-23.52v-23.52h23.52Zm0,24v23.52h-23.52v-23.52h23.52Zm0,24v23.52h-23.52v-23.52h23.52Zm.48,0h23.52v23.52h-23.52v-23.52Zm24,0h23.52v23.52h-23.52v-23.52Zm24,0h23.52v23.52h-23.52v-23.52Zm24,0h23.52v23.52h-23.52v-23.52Zm24,0h23.52v23.52h-23.52v-23.52Zm24,0h23.52v23.52h-23.52v-23.52Zm24,0h23.52v23.52h-23.52v-23.52Zm24,0h23.52v23.52h-23.52v-23.52Zm24,0h23.52v23.52h-23.52v-23.52Zm24,0h23.52v23.52h-23.52v-23.52Zm24,0h23.52v23.52h-23.52v-23.52Zm24,0h23.52v23.52h-23.52v-23.52Zm24,0h23.52v23.52h-23.52v-23.52Zm24,0h23.52v23.52h-23.52v-23.52Zm24,0h23.52v23.52h-23.52v-23.52Zm24,0h23.52v23.52h-23.52v-23.52Zm24,0h23.52v23.52h-23.52v-23.52Zm24,0h23.52v23.52h-23.52v-23.52Zm24,0h23.52v23.52h-23.52v-23.52Zm24,0h23.52v23.52h-23.52v-23.52Zm0-.48v-23.52h23.52v23.52h-23.52Zm0-24v-23.52h23.52v23.52h-23.52Zm0-24v-23.52h23.52v23.52h-23.52Zm0-24v-23.52h23.52v23.52h-23.52Zm0-24v-23.52h23.52v23.52h-23.52Zm0-24v-23.52h23.52v23.52h-23.52Zm-.48,0h-23.52v-23.52h23.52v23.52Zm-24,0h-23.52v-23.52h23.52v23.52Zm-24,0h-23.52v-23.52h23.52v23.52Zm-24,0h-23.52v-23.52h23.52v23.52Zm-24,0h-23.52v-23.52h23.52v23.52Zm-24,0h-23.52v-23.52h23.52v23.52Zm-24,0h-23.52v-23.52h23.52v23.52Zm-24,0h-23.52v-23.52h23.52v23.52Zm-24,0h-23.52v-23.52h23.52v23.52Zm-24,0h-23.52v-23.52h23.52v23.52Zm-24,0h-23.52v-23.52h23.52v23.52Zm-24,0h-23.52v-23.52h23.52v23.52Zm-24,0h-23.52v-23.52h23.52v23.52Zm-24,0h-23.52v-23.52h23.52v23.52Zm-24,0h-23.52v-23.52h23.52v23.52Zm-24,0h-23.52v-23.52h23.52v23.52Zm-24,0h-23.52v-23.52h23.52v23.52Zm-24,0h-23.52v-23.52h23.52v23.52Zm-24,0h-23.52v-23.52h23.52v23.52Zm-24,0h-23.52v-23.52h23.52v23.52Zm-24,0h-23.52v-23.52h23.52v23.52Zm0,.48v23.52h-23.52v-23.52h23.52Zm0,24v23.52h-23.52v-23.52h23.52Zm0,24v23.52h-23.52v-23.52h23.52Zm0,24v23.52h-23.52v-23.52h23.52Zm0,24v23.52h-23.52v-23.52h23.52Zm0,24v23.52h-23.52v-23.52h23.52Zm0,24v23.52h-23.52v-23.52h23.52Zm.48,0h23.52v23.52h-23.52v-23.52Zm24,0h23.52v23.52h-23.52v-23.52Zm24,0h23.52v23.52h-23.52v-23.52Zm24,0h23.52v23.52h-23.52v-23.52Zm24,0h23.52v23.52h-23.52v-23.52Zm24,0h23.52v23.52h-23.52v-23.52Zm24,0h23.52v23.52h-23.52v-23.52Zm24,0h23.52v23.52h-23.52v-23.52Zm24,0h23.52v23.52h-23.52v-23.52Zm24,0h23.52v23.52h-23.52v-23.52Zm24,0h23.52v23.52h-23.52v-23.52Zm24,0h23.52v23.52h-23.52v-23.52Zm24,0h23.52v23.52h-23.52v-23.52Zm24,0h23.52v23.52h-23.52v-23.52Zm24,0h23.52v23.52h-23.52v-23.52Zm24,0h23.52v23.52h-23.52v-23.52Zm24,0h23.52v23.52h-23.52v-23.52Zm24,0h23.52v23.52h-23.52v-23.52Zm24,0h23.52v23.52h-23.52v-23.52Zm24,0h23.52v23.52h-23.52v-23.52Zm24,0h23.52v23.52h-23.52v-23.52Zm24,0h23.52v23.52h-23.52v-23.52Zm0-.48v-23.52h23.52v23.52h-23.52Zm0-24v-23.52h23.52v23.52h-23.52Zm0-24v-23.52h23.52v23.52h-23.52Zm0-24v-23.52h23.52v23.52h-23.52Zm0-24v-23.52h23.52v23.52h-23.52Zm0-24v-23.52h23.52v23.52h-23.52Zm0-24v-23.52h23.52v23.52h-23.52Zm0-24v-23.52h23.52v23.52h-23.52Zm-.48,0h-23.52v-23.52h23.52v23.52Zm-24,0h-23.52v-23.52h23.52v23.52Zm-24,0h-23.52v-23.52h23.52v23.52Zm-24,0h-23.52v-23.52h23.52v23.52Zm-24,0h-23.52v-23.52h23.52v23.52Zm-24,0h-23.52v-23.52h23.52v23.52Zm-24,0h-23.52v-23.52h23.52v23.52Zm-24,0h-23.52v-23.52h23.52v23.52Zm-24,0h-23.52v-23.52h23.52v23.52Zm-24,0h-23.52v-23.52h23.52v23.52Zm-24,0h-23.52v-23.52h23.52v23.52Zm-24,0h-23.52v-23.52h23.52v23.52Zm-24,0h-23.52v-23.52h23.52v23.52Zm-24,0h-23.52v-23.52h23.52v23.52Zm-24,0h-23.52v-23.52h23.52v23.52Zm-24,0h-23.52v-23.52h23.52v23.52Zm-24,0h-23.52v-23.52h23.52v23.52Zm-24,0h-23.52v-23.52h23.52v23.52Zm-24,0h-23.52v-23.52h23.52v23.52Zm-24,0h-23.52v-23.52h23.52v23.52Zm-24,0h-23.52v-23.52h23.52v23.52Zm-24,0h-23.52v-23.52h23.52v23.52Zm-24,0h-23.52v-23.52h23.52v23.52Zm0,.48v23.52h-23.52v-23.52h23.52Zm0,24v23.52h-23.52v-23.52h23.52Zm0,24v23.52h-23.52v-23.52h23.52Zm0,24v23.52h-23.52v-23.52h23.52Zm0,24v23.52h-23.52v-23.52h23.52Zm0,24v23.52h-23.52v-23.52h23.52Zm0,24v23.52h-23.52v-23.52h23.52Zm0,24v23.52h-23.52v-23.52h23.52Zm0,24v23.52h-23.52v-23.52h23.52Zm.48,0h23.52v23.52h-23.52v-23.52Zm24,0h23.52v23.52h-23.52v-23.52Zm24,0h23.52v23.52h-23.52v-23.52Zm24,0h23.52v23.52h-23.52v-23.52Zm24,0h23.52v23.52h-23.52v-23.52Zm24,0h23.52v23.52h-23.52v-23.52Zm24,0h23.52v23.52h-23.52v-23.52Zm24,0h23.52v23.52h-23.52v-23.52Zm24,0h23.52v23.52h-23.52v-23.52Zm24,0h23.52v23.52h-23.52v-23.52Zm24,0h23.52v23.52h-23.52v-23.52Zm24,0h23.52v23.52h-23.52v-23.52Zm24,0h23.52v23.52h-23.52v-23.52Zm24,0h23.52v23.52h-23.52v-23.52Zm24,0h23.52v23.52h-23.52v-23.52Zm24,0h23.52v23.52h-23.52v-23.52Zm24,0h23.52v23.52h-23.52v-23.52Zm24,0h23.52v23.52h-23.52v-23.52Zm24,0h23.52v23.52h-23.52v-23.52Zm24,0h23.52v23.52h-23.52v-23.52Zm24,0h23.52v23.52h-23.52v-23.52Zm24,0h23.52v23.52h-23.52v-23.52Zm24,0h23.52v23.52h-23.52v-23.52Zm24,0h23.52v23.52h-23.52v-23.52Zm0-.48v-23.52h23.52v23.52h-23.52Zm0-24v-23.52h23.52v23.52h-23.52Zm0-24v-23.52h23.52v23.52h-23.52Zm0-24v-23.52h23.52v23.52h-23.52Zm0-24v-23.52h23.52v23.52h-23.52Zm0-24v-23.52h23.52v23.52h-23.52Zm0-24v-23.52h23.52v23.52h-23.52Zm0-24v-23.52h23.52v23.52h-23.52Zm0-24v-23.52h23.52v23.52h-23.52Zm0-24v-23.52h23.52v23.52h-23.52Zm-.48,0h-23.52v-23.52h23.52v23.52Zm-24,0h-23.52v-23.52h23.52v23.52Zm-24,0h-23.52v-23.52h23.52v23.52Zm-24,0h-23.52v-23.52h23.52v23.52Zm-24,0h-23.52v-23.52h23.52v23.52Zm-24,0h-23.52v-23.52h23.52v23.52Zm-24,0h-23.52v-23.52h23.52v23.52Zm-24,0h-23.52v-23.52h23.52v23.52Zm-24,0h-23.52v-23.52h23.52v23.52Zm-24,0h-23.52v-23.52h23.52v23.52Zm-24,0h-23.52v-23.52h23.52v23.52Zm-24,0h-23.52v-23.52h23.52v23.52Zm-24,0h-23.52v-23.52h23.52v23.52Zm-24,0h-23.52v-23.52h23.52v23.52Zm-24,0h-23.52v-23.52h23.52v23.52Zm-24,0h-23.52v-23.52h23.52v23.52Zm-24,0h-23.52v-23.52h23.52v23.52Zm-24,0h-23.52v-23.52h23.52v23.52Zm-24,0h-23.52v-23.52h23.52v23.52Zm-24,0h-23.52v-23.52h23.52v23.52Zm-24,0h-23.52v-23.52h23.52v23.52Zm-24,0h-23.52v-23.52h23.52v23.52Zm-24,0h-23.52v-23.52h23.52v23.52Zm-24,0h-23.52v-23.52h23.52v23.52Zm-24,0h-23.52v-23.52h23.52v23.52Zm0,.48v23.52h-23.52v-23.52h23.52Zm0,24v23.52h-23.52v-23.52h23.52Zm0,24v23.52h-23.52v-23.52h23.52Zm0,24v23.52h-23.52v-23.52h23.52Zm0,24v23.52h-23.52v-23.52h23.52Zm0,24v23.52h-23.52v-23.52h23.52Zm0,24v23.52h-23.52v-23.52h23.52Zm0,24v23.52h-23.52v-23.52h23.52Zm0,24v23.52h-23.52v-23.52h23.52Zm0,24v23.52h-23.52v-23.52h23.52Zm0,24v23.52h-23.52v-23.52h23.52Zm.48,0h23.52v23.52h-23.52v-23.52Zm24,0h23.52v23.52h-23.52v-23.52Zm24,0h23.52v23.52h-23.52v-23.52Zm24,0h23.52v23.52h-23.52v-23.52Zm24,0h23.52v23.52h-23.52v-23.52Zm24,0h23.52v23.52h-23.52v-23.52Zm24,0h23.52v23.52h-23.52v-23.52Zm24,0h23.52v23.52h-23.52v-23.52Zm24,0h23.52v23.52h-23.52v-23.52Zm24,0h23.52v23.52h-23.52v-23.52Zm24,0h23.52v23.52h-23.52v-23.52Zm24,0h23.52v23.52h-23.52v-23.52Zm24,0h23.52v23.52h-23.52v-23.52Zm24,0h23.52v23.52h-23.52v-23.52Zm24,0h23.52v23.52h-23.52v-23.52Zm24,0h23.52v23.52h-23.52v-23.52Zm24,0h23.52v23.52h-23.52v-23.52Zm24,0h23.52v23.52h-23.52v-23.52Zm24,0h23.52v23.52h-23.52v-23.52Zm24,0h23.52v23.52h-23.52v-23.52Zm24,0h23.52v23.52h-23.52v-23.52Zm24,0h23.52v23.52h-23.52v-23.52Zm24,0h23.52v23.52h-23.52v-23.52Zm24,0h23.52v23.52h-23.52v-23.52Zm24,0h23.52v23.52h-23.52v-23.52Zm24,0h23.52v23.52h-23.52v-23.52Zm0-.48v-23.52h23.52v23.52h-23.52Zm0-24v-23.52h23.52v23.52h-23.52Zm0-24v-23.52h23.52v23.52h-23.52Zm0-24v-23.52h23.52v23.52h-23.52Zm0-24v-23.52h23.52v23.52h-23.52Zm0-24v-23.52h23.52v23.52h-23.52Zm0-24v-23.52h23.52v23.52h-23.52Zm0-24v-23.52h23.52v23.52h-23.52Zm0-24v-23.52h23.52v23.52h-23.52Zm0-24v-23.52h23.52v23.52h-23.52Zm0-24v-23.52h23.52v23.52h-23.52Zm0-24v-23.52h23.52v23.52h-23.52Zm-.48,0h-23.52v-23.52h23.52v23.52Zm-24,0h-23.52v-23.52h23.52v23.52Zm-24,0h-23.52v-23.52h23.52v23.52Zm-24,0h-23.52v-23.52h23.52v23.52Zm-24,0h-23.52v-23.52h23.52v23.52Zm-24,0h-23.52v-23.52h23.52v23.52Zm-24,0h-23.52v-23.52h23.52v23.52Zm-24,0h-23.52v-23.52h23.52v23.52Zm-24,0h-23.52v-23.52h23.52v23.52Zm-24,0h-23.52v-23.52h23.52v23.52Zm-24,0h-23.52v-23.52h23.52v23.52Zm-24,0h-23.52v-23.52h23.52v23.52Zm-24,0h-23.52v-23.52h23.52v23.52Zm-24,0h-23.52v-23.52h23.52v23.52Zm-24,0h-23.52v-23.52h23.52v23.52Zm-24,0h-23.52v-23.52h23.52v23.52Zm-24,0h-23.52v-23.52h23.52v23.52Zm-24,0h-23.52v-23.52h23.52v23.52Zm-24,0h-23.52v-23.52h23.52v23.52Zm-24,0h-23.52v-23.52h23.52v23.52Zm-24,0h-23.52v-23.52h23.52v23.52Zm-24,0h-23.52v-23.52h23.52v23.52Zm-24,0h-23.52v-23.52h23.52v23.52Zm-24,0h-23.52v-23.52h23.52v23.52Zm-24,0h-23.52v-23.52h23.52v23.52Zm-24,0h-23.52v-23.52h23.52v23.52Zm-24,0h-23.52v-23.52h23.52v23.52Zm0,.48v23.52h-23.52v-23.52h23.52Zm0,24v23.52h-23.52v-23.52h23.52Zm0,24v23.52h-23.52v-23.52h23.52Zm0,24v23.52h-23.52v-23.52h23.52Zm0,24v23.52h-23.52v-23.52h23.52Zm0,24v23.52h-23.52v-23.52h23.52Zm0,24v23.52h-23.52v-23.52h23.52Zm0,24v23.52h-23.52v-23.52h23.52Zm0,24v23.52h-23.52v-23.52h23.52Zm0,24v23.52h-23.52v-23.52h23.52Zm0,24v23.52h-23.52v-23.52h23.52Zm0,24v23.52h-23.52v-23.52h23.52Zm0,24v23.52h-23.52v-23.52h23.52Zm.48,0h23.52v23.52h-23.52v-23.52Zm24,0h23.52v23.52h-23.52v-23.52Zm24,0h23.52v23.52h-23.52v-23.52Zm24,0h23.52v23.52h-23.52v-23.52Zm24,0h23.52v23.52h-23.52v-23.52Zm24,0h23.52v23.52h-23.52v-23.52Zm24,0h23.52v23.52h-23.52v-23.52Zm24,0h23.52v23.52h-23.52v-23.52Zm24,0h23.52v23.52h-23.52v-23.52Zm24,0h23.52v23.52h-23.52v-23.52Zm24,0h23.52v23.52h-23.52v-23.52Zm24,0h23.52v23.52h-23.52v-23.52Zm24,0h23.52v23.52h-23.52v-23.52Zm24,0h23.52v23.52h-23.52v-23.52Zm24,0h23.52v23.52h-23.52v-23.52Zm24,0h23.52v23.52h-23.52v-23.52Zm24,0h23.52v23.52h-23.52v-23.52Zm24,0h23.52v23.52h-23.52v-23.52Zm24,0h23.52v23.52h-23.52v-23.52Zm24,0h23.52v23.52h-23.52v-23.52Zm24,0h23.52v23.52h-23.52v-23.52Zm24,0h23.52v23.52h-23.52v-23.52Zm24,0h23.52v23.52h-23.52v-23.52Zm24,0h23.52v23.52h-23.52v-23.52Zm24,0h23.52v23.52h-23.52v-23.52Zm24,0h23.52v23.52h-23.52v-23.52Zm24,0h23.52v23.52h-23.52v-23.52Zm24,0h23.52v23.52h-23.52v-23.52Zm0-.48v-23.52h23.52v23.52h-23.52Zm0-24v-23.52h23.52v23.52h-23.52Zm0-24v-23.52h23.52v23.52h-23.52Zm0-24v-23.52h23.52v23.52h-23.52Zm0-24v-23.52h23.52v23.52h-23.52Zm0-24v-23.52h23.52v23.52h-23.52Zm0-24v-23.52h23.52v23.52h-23.52Zm0-24v-23.52h23.52v23.52h-23.52Zm0-24v-23.52h23.52v23.52h-23.52Zm0-24v-23.52h23.52v23.52h-23.52Zm0-24v-23.52h23.52v23.52h-23.52Zm0-24v-23.52h23.52v23.52h-23.52Zm0-24v-23.52h23.52v23.52h-23.52Zm0-24v-23.52h23.52v23.52h-23.52Zm-.48,0h-23.52v-23.52h23.52v23.52Zm-24,0h-23.52v-23.52h23.52v23.52Zm-24,0h-23.52v-23.52h23.52v23.52Zm-24,0h-23.52v-23.52h23.52v23.52Zm-24,0h-23.52v-23.52h23.52v23.52Zm-24,0h-23.52v-23.52h23.52v23.52Zm-24,0h-23.52v-23.52h23.52v23.52Zm-24,0h-23.52v-23.52h23.52v23.52Zm-24,0h-23.52v-23.52h23.52v23.52Zm-24,0h-23.52v-23.52h23.52v23.52Zm-24,0h-23.52v-23.52h23.52v23.52Zm-24,0h-23.52v-23.52h23.52v23.52Zm-24,0h-23.52v-23.52h23.52v23.52Zm-24,0h-23.52v-23.52h23.52v23.52Zm-24,0h-23.52v-23.52h23.52v23.52Zm-24,0h-23.52v-23.52h23.52v23.52Zm-24,0h-23.52v-23.52h23.52v23.52Zm-24,0h-23.52v-23.52h23.52v23.52Zm-24,0h-23.52v-23.52h23.52v23.52Zm-24,0h-23.52v-23.52h23.52v23.52Zm-24,0h-23.52v-23.52h23.52v23.52Zm-24,0h-23.52v-23.52h23.52v23.52Zm-24,0h-23.52v-23.52h23.52v23.52Zm-24,0h-23.52v-23.52h23.52v23.52Zm-24,0h-23.52v-23.52h23.52v23.52Zm-24,0h-23.52v-23.52h23.52v23.52Zm-24,0h-23.52v-23.52h23.52v23.52Zm-24,0h-23.52v-23.52h23.52v23.52Zm-24,0h-23.52v-23.52h23.52v23.52Zm0,.48v23.52h-23.52v-23.52h23.52Zm0,24v23.52h-23.52v-23.52h23.52Zm0,24v23.52h-23.52v-23.52h23.52Zm0,24v23.52h-23.52v-23.52h23.52Zm0,24v23.52h-23.52v-23.52h23.52Zm0,24v23.52h-23.52v-23.52h23.52Zm0,24v23.52h-23.52v-23.52h23.52Zm0,24v23.52h-23.52v-23.52h23.52Zm0,24v23.52h-23.52v-23.52h23.52Zm0,24v23.52h-23.52v-23.52h23.52Zm0,24v23.52h-23.52v-23.52h23.52Zm0,24v23.52h-23.52v-23.52h23.52Zm0,24v23.52h-23.52v-23.52h23.52Zm0,24v23.52h-23.52v-23.52h23.52Zm0,24v23.52h-23.52v-23.52h23.52Zm.48,0h23.52v23.52h-23.52v-23.52Zm24,0h23.52v23.52h-23.52v-23.52Zm24,0h23.52v23.52h-23.52v-23.52Zm24,0h23.52v23.52h-23.52v-23.52Zm24,0h23.52v23.52h-23.52v-23.52Zm24,0h23.52v23.52h-23.52v-23.52Zm24,0h23.52v23.52h-23.52v-23.52Zm24,0h23.52v23.52h-23.52v-23.52Zm24,0h23.52v23.52h-23.52v-23.52Zm24,0h23.52v23.52h-23.52v-23.52Zm24,0h23.52v23.52h-23.52v-23.52Zm24,0h23.52v23.52h-23.52v-23.52Zm24,0h23.52v23.52h-23.52v-23.52Zm24,0h23.52v23.52h-23.52v-23.52Zm24,0h23.52v23.52h-23.52v-23.52Zm24,0h23.52v23.52h-23.52v-23.52Zm24,0h23.52v23.52h-23.52v-23.52Zm24,0h23.52v23.52h-23.52v-23.52Zm24,0h23.52v23.52h-23.52v-23.52Zm24,0h23.52v23.52h-23.52v-23.52Zm24,0h23.52v23.52h-23.52v-23.52Zm24,0h23.52v23.52h-23.52v-23.52Zm24,0h23.52v23.52h-23.52v-23.52Zm24,0h23.52v23.52h-23.52v-23.52Zm24,0h23.52v23.52h-23.52v-23.52Zm24,0h23.52v23.52h-23.52v-23.52Zm24,0h23.52v23.52h-23.52v-23.52Zm24,0h23.52v23.52h-23.52v-23.52Zm24,0h23.52v23.52h-23.52v-23.52Zm24,0h23.52v23.52h-23.52v-23.52Zm0-.48v-23.52h23.52v23.52h-23.52Zm0-24v-23.52h23.52v23.52h-23.52Zm0-24v-23.52h23.52v23.52h-23.52Zm0-24v-23.52h23.52v23.52h-23.52Zm0-24v-23.52h23.52v23.52h-23.52Zm0-24v-23.52h23.52v23.52h-23.52Zm0-24v-23.52h23.52v23.52h-23.52Zm0-24v-23.52h23.52v23.52h-23.52Zm0-24v-23.52h23.52v23.52h-23.52Zm0-24v-23.52h23.52v23.52h-23.52Zm0-24v-23.52h23.52v23.52h-23.52Zm0-24v-23.52h23.52v23.52h-23.52Zm0-24v-23.52h23.52v23.52h-23.52Zm0-24v-23.52h23.52v23.52h-23.52Zm0-24v-23.52h23.52v23.52h-23.52Zm0-24v-23.52h23.52v23.52h-23.52Zm-.48,0h-23.52v-23.52h23.52v23.52Zm-24,0h-23.52v-23.52h23.52v23.52Zm-24,0h-23.52v-23.52h23.52v23.52Zm-24,0h-23.52v-23.52h23.52v23.52Zm-24,0h-23.52v-23.52h23.52v23.52Zm-24,0h-23.52v-23.52h23.52v23.52Zm-24,0h-23.52v-23.52h23.52v23.52Zm-24,0h-23.52v-23.52h23.52v23.52Zm-24,0h-23.52v-23.52h23.52v23.52Zm-24,0h-23.52v-23.52h23.52v23.52Zm-24,0h-23.52v-23.52h23.52v23.52Zm-24,0h-23.52v-23.52h23.52v23.52Zm-24,0h-23.52v-23.52h23.52v23.52Zm-24,0h-23.52v-23.52h23.52v23.52Zm-24,0h-23.52v-23.52h23.52v23.52Zm-24,0h-23.52v-23.52h23.52v23.52Zm-24,0h-23.52v-23.52h23.52v23.52Zm-24,0h-23.52v-23.52h23.52v23.52Zm-24,0h-23.52v-23.52h23.52v23.52Zm-24,0h-23.52v-23.52h23.52v23.52Zm-24,0h-23.52v-23.52h23.52v23.52Zm-24,0h-23.52v-23.52h23.52v23.52Zm-24,0h-23.52v-23.52h23.52v23.52Zm-24,0h-23.52v-23.52h23.52v23.52Zm-24,0h-23.52v-23.52h23.52v23.52Zm-24,0h-23.52v-23.52h23.52v23.52Zm-24,0h-23.52v-23.52h23.52v23.52Zm-24,0h-23.52v-23.52h23.52v23.52Zm-24,0h-23.52v-23.52h23.52v23.52Zm-24,0h-23.52v-23.52h23.52v23.52Zm-24,0h-23.52v-23.52h23.52v23.52Zm0,.48v23.52h-23.52v-23.52h23.52Zm0,24v23.52h-23.52v-23.52h23.52Zm0,24v23.52h-23.52v-23.52h23.52Zm0,24v23.52h-23.52v-23.52h23.52Zm0,24v23.52h-23.52v-23.52h23.52Zm0,24v23.52h-23.52v-23.52h23.52Zm0,24v23.52h-23.52v-23.52h23.52Zm0,24v23.52h-23.52v-23.52h23.52Zm0,24v23.52h-23.52v-23.52h23.52Zm0,24v23.52h-23.52v-23.52h23.52Zm0,24v23.52h-23.52v-23.52h23.52Zm0,24v23.52h-23.52v-23.52h23.52Zm0,24v23.52h-23.52v-23.52h23.52Zm0,24v23.52h-23.52v-23.52h23.52Zm0,24v23.52h-23.52v-23.52h23.52Zm0,24v23.52h-23.52v-23.52h23.52Zm0,24v23.52h-23.52v-23.52h23.52Zm.48,0h23.52v23.52h-23.52v-23.52Zm24,0h23.52v23.52h-23.52v-23.52Zm24,0h23.52v23.52h-23.52v-23.52Zm24,0h23.52v23.52h-23.52v-23.52Zm24,0h23.52v23.52h-23.52v-23.52Zm24,0h23.52v23.52h-23.52v-23.52Zm24,0h23.52v23.52h-23.52v-23.52Zm24,0h23.52v23.52h-23.52v-23.52Zm24,0h23.52v23.52h-23.52v-23.52Zm24,0h23.52v23.52h-23.52v-23.52Zm24,0h23.52v23.52h-23.52v-23.52Zm24,0h23.52v23.52h-23.52v-23.52Zm24,0h23.52v23.52h-23.52v-23.52Zm24,0h23.52v23.52h-23.52v-23.52Zm24,0h23.52v23.52h-23.52v-23.52Zm24,0h23.52v23.52h-23.52v-23.52Zm24,0h23.52v23.52h-23.52v-23.52Zm24,0h23.52v23.52h-23.52v-23.52Zm24,0h23.52v23.52h-23.52v-23.52Zm24,0h23.52v23.52h-23.52v-23.52Zm24,0h23.52v23.52h-23.52v-23.52Zm24,0h23.52v23.52h-23.52v-23.52Zm24,0h23.52v23.52h-23.52v-23.52Zm24,0h23.52v23.52h-23.52v-23.52Zm24,0h23.52v23.52h-23.52v-23.52Zm24,0h23.52v23.52h-23.52v-23.52Zm24,0h23.52v23.52h-23.52v-23.52Zm24,0h23.52v23.52h-23.52v-23.52Zm24,0h23.52v23.52h-23.52v-23.52Zm24,0h23.52v23.52h-23.52v-23.52Zm24,0h23.52v23.52h-23.52v-23.52Zm24,0h23.52v23.52h-23.52v-23.52Zm0-.48v-23.52h23.52v23.52h-23.52Zm0-24v-23.52h23.52v23.52h-23.52Zm0-24v-23.52h23.52v23.52h-23.52Zm0-24v-23.52h23.52v23.52h-23.52Zm0-24v-23.52h23.52v23.52h-23.52Zm0-24v-23.52h23.52v23.52h-23.52Zm0-24v-23.52h23.52v23.52h-23.52Zm0-24v-23.52h23.52v23.52h-23.52Zm0-24v-23.52h23.52v23.52h-23.52Zm0-24v-23.52h23.52v23.52h-23.52Zm0-24v-23.52h23.52v23.52h-23.52Zm0-24v-23.52h23.52v23.52h-23.52Zm0-24v-23.52h23.52v23.52h-23.52Zm0-24v-23.52h23.52v23.52h-23.52Zm0-24v-23.52h23.52v23.52h-23.52Zm0-24v-23.52h23.52v23.52h-23.52Zm0-24v-23.52h23.52v23.52h-23.52Zm0-24v-23.52h23.52v23.52h-23.52Zm-.48,0h-23.52v-23.52h23.52v23.52Zm-24,0h-23.52v-23.52h23.52v23.52Zm-24,0h-23.52v-23.52h23.52v23.52Zm-24,0h-23.52v-23.52h23.52v23.52Zm-24,0h-23.52v-23.52h23.52v23.52Zm-24,0h-23.52v-23.52h23.52v23.52Zm-24,0h-23.52v-23.52h23.52v23.52Zm-24,0h-23.52v-23.52h23.52v23.52Zm-24,0h-23.52v-23.52h23.52v23.52Zm-24,0h-23.52v-23.52h23.52v23.52Zm-24,0h-23.52v-23.52h23.52v23.52Zm-24,0h-23.52v-23.52h23.52v23.52Zm-24,0h-23.52v-23.52h23.52v23.52Zm-24,0h-23.52v-23.52h23.52v23.52Zm-24,0h-23.52v-23.52h23.52v23.52Zm-24,0h-23.52v-23.52h23.52v23.52Zm-24,0h-23.52v-23.52h23.52v23.52Zm-24,0h-23.52v-23.52h23.52v23.52Zm-24,0h-23.52v-23.52h23.52v23.52Zm-24,0h-23.52v-23.52h23.52v23.52Zm-24,0h-23.52v-23.52h23.52v23.52Zm-24,0h-23.52v-23.52h23.52v23.52Zm-24,0h-23.52v-23.52h23.52v23.52Zm-24,0h-23.52v-23.52h23.52v23.52Zm-24,0h-23.52v-23.52h23.52v23.52Zm-24,0h-23.52v-23.52h23.52v23.52Zm-24,0h-23.52v-23.52h23.52v23.52Zm-24,0h-23.52v-23.52h23.52v23.52Zm-24,0h-23.52v-23.52h23.52v23.52Zm-24,0h-23.52v-23.52h23.52v23.52Zm-24,0h-23.52v-23.52h23.52v23.52Zm-24,0h-23.52v-23.52h23.52v23.52Zm-24,0h-23.52v-23.52h23.52v23.52Zm0,.48v23.52h-23.52v-23.52h23.52Zm0,24v23.52h-23.52v-23.52h23.52Zm0,24v23.52h-23.52v-23.52h23.52Zm0,24v23.52h-23.52v-23.52h23.52Zm0,24v23.52h-23.52v-23.52h23.52Zm0,24v23.52h-23.52v-23.52h23.52Zm0,24v23.52h-23.52v-23.52h23.52Zm0,24v23.52h-23.52v-23.52h23.52Zm0,24v23.52h-23.52v-23.52h23.52Zm0,24v23.52h-23.52v-23.52h23.52Zm0,24v23.52h-23.52v-23.52h23.52Zm0,24v23.52h-23.52v-23.52h23.52Zm0,24v23.52h-23.52v-23.52h23.52Zm0,24v23.52h-23.52v-23.52h23.52Zm0,24v23.52h-23.52v-23.52h23.52Zm0,24v23.52h-23.52v-23.52h23.52Zm0,24v23.52h-23.52v-23.52h23.52Zm0,24v23.52h-23.52v-23.52h23.52Zm0,24v23.52h-23.52v-23.52h23.52Zm.48,0h23.52v23.52h-23.52v-23.52Zm24,0h23.52v23.52h-23.52v-23.52Zm24,0h23.52v23.52h-23.52v-23.52Zm24,0h23.52v23.52h-23.52v-23.52Zm24,0h23.52v23.52h-23.52v-23.52Zm24,0h23.52v23.52h-23.52v-23.52Zm24,0h23.52v23.52h-23.52v-23.52Zm24,0h23.52v23.52h-23.52v-23.52Zm24,0h23.52v23.52h-23.52v-23.52Zm24,0h23.52v23.52h-23.52v-23.52Zm24,0h23.52v23.52h-23.52v-23.52Zm24,0h23.52v23.52h-23.52v-23.52Zm24,0h23.52v23.52h-23.52v-23.52Zm24,0h23.52v23.52h-23.52v-23.52Zm24,0h23.52v23.52h-23.52v-23.52Zm24,0h23.52v23.52h-23.52v-23.52Zm24,0h23.52v23.52h-23.52v-23.52Zm24,0h23.52v23.52h-23.52v-23.52Zm24,0h23.52v23.52h-23.52v-23.52Zm24,0h23.52v23.52h-23.52v-23.52Zm24,0h23.52v23.52h-23.52v-23.52Zm24,0h23.52v23.52h-23.52v-23.52Zm24,0h23.52v23.52h-23.52v-23.52Zm24,0h23.52v23.52h-23.52v-23.52Zm24,0h23.52v23.52h-23.52v-23.52Zm24,0h23.52v23.52h-23.52v-23.52Zm24,0h23.52v23.52h-23.52v-23.52Zm24,0h23.52v23.52h-23.52v-23.52Zm24,0h23.52v23.52h-23.52v-23.52Zm24,0h23.52v23.52h-23.52v-23.52Zm24,0h23.52v23.52h-23.52v-23.52Zm24,0h23.52v23.52h-23.52v-23.52Zm24,0h23.52v23.52h-23.52v-23.52Zm24,0h23.52v23.52h-23.52v-23.52Zm0-.48v-23.52h23.52v23.52h-23.52Zm0-24v-23.52h23.52v23.52h-23.52Zm0-24v-23.52h23.52v23.52h-23.52Zm0-24v-23.52h23.52v23.52h-23.52Zm0-24v-23.52h23.52v23.52h-23.52Zm0-24v-23.52h23.52v23.52h-23.52Zm0-24v-23.52h23.52v23.52h-23.52Zm0-24v-23.52h23.52v23.52h-23.52Zm0-24v-23.52h23.52v23.52h-23.52Zm0-24v-23.52h23.52v23.52h-23.52Zm0-24v-23.52h23.52v23.52h-23.52Zm0-24v-23.52h23.52v23.52h-23.52Zm0-24v-23.52h23.52v23.52h-23.52Zm0-24v-23.52h23.52v23.52h-23.52Zm0-24v-23.52h23.52v23.52h-23.52Zm0-24v-23.52h23.52v23.52h-23.52Zm0-24v-23.52h23.52v23.52h-23.52Zm0-24v-23.52h23.52v23.52h-23.52Zm0-24v-23.52h23.52v23.52h-23.52Zm0-24v-23.52h23.52v23.52h-23.52Zm-.48,0h-23.52v-23.52h23.52v23.52Zm-24,0h-23.52v-23.52h23.52v23.52Zm-24,0h-23.52v-23.52h23.52v23.52Zm-24,0h-23.52v-23.52h23.52v23.52Zm-24,0h-23.52v-23.52h23.52v23.52Zm-24,0h-23.52v-23.52h23.52v23.52Zm-24,0h-23.52v-23.52h23.52v23.52Zm-24,0h-23.52v-23.52h23.52v23.52Zm-24,0h-23.52v-23.52h23.52v23.52Zm-24,0h-23.52v-23.52h23.52v23.52Zm-24,0h-23.52v-23.52h23.52v23.52Zm-24,0h-23.52v-23.52h23.52v23.52Zm-24,0h-23.52v-23.52h23.52v23.52Zm-24,0h-23.52v-23.52h23.52v23.52Zm-24,0h-23.52v-23.52h23.52v23.52Zm-24,0h-23.52v-23.52h23.52v23.52Zm-24,0h-23.52v-23.52h23.52v23.52Zm-24,0h-23.52v-23.52h23.52v23.52Zm-24,0h-23.52v-23.52h23.52v23.52Zm-24,0h-23.52v-23.52h23.52v23.52Zm-24,0h-23.52v-23.52h23.52v23.52Zm-24,0h-23.52v-23.52h23.52v23.52Zm-24,0h-23.52v-23.52h23.52v23.52Zm-24,0h-23.52v-23.52h23.52v23.52Zm-24,0h-23.52v-23.52h23.52v23.52Zm-24,0h-23.52v-23.52h23.52v23.52Zm-24,0h-23.52v-23.52h23.52v23.52Zm-24,0h-23.52v-23.52h23.52v23.52Zm-24,0h-23.52v-23.52h23.52v23.52Zm-24,0h-23.52v-23.52h23.52v23.52Zm-24,0h-23.52v-23.52h23.52v23.52Zm-24,0h-23.52v-23.52h23.52v23.52Zm-24,0h-23.52v-23.52h23.52v23.52Zm-24,0h-23.52v-23.52h23.52v23.52Zm-24,0h-23.52v-23.52h23.52v23.52Zm0,.48v23.52h-23.52v-23.52h23.52Zm0,24v23.52h-23.52v-23.52h23.52Zm0,24v23.52h-23.52v-23.52h23.52Zm0,24v23.52h-23.52v-23.52h23.52Zm0,24v23.52h-23.52v-23.52h23.52Zm0,24v23.52h-23.52v-23.52h23.52Zm0,24v23.52h-23.52v-23.52h23.52Zm0,24v23.52h-23.52v-23.52h23.52Zm0,24v23.52h-23.52v-23.52h23.52Zm0,24v23.52h-23.52v-23.52h23.52Zm0,24v23.52h-23.52v-23.52h23.52Zm0,24v23.52h-23.52v-23.52h23.52Zm0,24v23.52h-23.52v-23.52h23.52Zm0,24v23.52h-23.52v-23.52h23.52Zm0,24v23.52h-23.52v-23.52h23.52Zm0,24v23.52h-23.52v-23.52h23.52Zm0,24v23.52h-23.52v-23.52h23.52Zm0,24v23.52h-23.52v-23.52h23.52Zm0,24v23.52h-23.52v-23.52h23.52Zm0,24v23.52h-23.52v-23.52h23.52Zm0,24v23.52h-23.52v-23.52h23.52Zm.48,0h23.52v23.52h-23.52v-23.52Zm24,0h23.52v23.52h-23.52v-23.52Zm24,0h23.52v23.52h-23.52v-23.52Zm24,0h23.52v23.52h-23.52v-23.52Zm24,0h23.52v23.52h-23.52v-23.52Zm24,0h23.52v23.52h-23.52v-23.52Zm24,0h23.52v23.52h-23.52v-23.52Zm24,0h23.52v23.52h-23.52v-23.52Zm24,0h23.52v23.52h-23.52v-23.52Zm24,0h23.52v23.52h-23.52v-23.52Zm24,0h23.52v23.52h-23.52v-23.52Zm24,0h23.52v23.52h-23.52v-23.52Zm24,0h23.52v23.52h-23.52v-23.52Zm24,0h23.52v23.52h-23.52v-23.52Zm24,0h23.52v23.52h-23.52v-23.52Zm24,0h23.52v23.52h-23.52v-23.52Zm24,0h23.52v23.52h-23.52v-23.52Zm24,0h23.52v23.52h-23.52v-23.52Zm24,0h23.52v23.52h-23.52v-23.52Zm24,0h23.52v23.52h-23.52v-23.52Zm24,0h23.52v23.52h-23.52v-23.52Zm24,0h23.52v23.52h-23.52v-23.52Zm24,0h23.52v23.52h-23.52v-23.52Zm24,0h23.52v23.52h-23.52v-23.52Zm24,0h23.52v23.52h-23.52v-23.52Zm24,0h23.52v23.52h-23.52v-23.52Zm24,0h23.52v23.52h-23.52v-23.52Zm24,0h23.52v23.52h-23.52v-23.52Zm24,0h23.52v23.52h-23.52v-23.52Zm24,0h23.52v23.52h-23.52v-23.52Zm24,0h23.52v23.52h-23.52v-23.52Zm24,0h23.52v23.52h-23.52v-23.52Zm24,0h23.52v23.52h-23.52v-23.52Zm24,0h23.52v23.52h-23.52v-23.52Zm24,0h23.52v23.52h-23.52v-23.52Zm24,0h23.52v23.52h-23.52v-23.52Zm0-.48v-23.52h23.52v23.52h-23.52Zm0-24v-23.52h23.52v23.52h-23.52Zm0-24v-23.52h23.52v23.52h-23.52Zm0-24v-23.52h23.52v23.52h-23.52Zm0-24v-23.52h23.52v23.52h-23.52Zm0-24v-23.52h23.52v23.52h-23.52Zm0-24v-23.52h23.52v23.52h-23.52Zm0-24v-23.52h23.52v23.52h-23.52Zm0-24v-23.52h23.52v23.52h-23.52Zm0-24v-23.52h23.52v23.52h-23.52Zm0-24v-23.52h23.52v23.52h-23.52Zm0-24v-23.52h23.52v23.52h-23.52Zm0-24v-23.52h23.52v23.52h-23.52Zm0-24v-23.52h23.52v23.52h-23.52Zm0-24v-23.52h23.52v23.52h-23.52Zm0-24v-23.52h23.52v23.52h-23.52Zm0-24v-23.52h23.52v23.52h-23.52Zm0-24v-23.52h23.52v23.52h-23.52Zm0-24v-23.52h23.52v23.52h-23.52Zm0-24v-23.52h23.52v23.52h-23.52Zm0-24v-23.52h23.52v23.52h-23.52Zm0-24v-23.52h23.52v23.52h-23.52Zm-.48,0h-23.52v-23.52h23.52v23.52Zm-24,0h-23.52v-23.52h23.52v23.52Zm-24,0h-23.52v-23.52h23.52v23.52Zm-24,0h-23.52v-23.52h23.52v23.52Zm-24,0h-23.52v-23.52h23.52v23.52Zm-24,0h-23.52v-23.52h23.52v23.52Zm-24,0h-23.52v-23.52h23.52v23.52Zm-24,0h-23.52v-23.52h23.52v23.52Zm-24,0h-23.52v-23.52h23.52v23.52Zm-24,0h-23.52v-23.52h23.52v23.52Zm-24,0h-23.52v-23.52h23.52v23.52Zm-24,0h-23.52v-23.52h23.52v23.52Zm-24,0h-23.52v-23.52h23.52v23.52Zm-24,0h-23.52v-23.52h23.52v23.52Zm-24,0h-23.52v-23.52h23.52v23.52Zm-24,0h-23.52v-23.52h23.52v23.52Zm-24,0h-23.52v-23.52h23.52v23.52Zm-24,0h-23.52v-23.52h23.52v23.52Zm-24,0h-23.52v-23.52h23.52v23.52Zm-24,0h-23.52v-23.52h23.52v23.52Zm-24,0h-23.52v-23.52h23.52v23.52Zm-24,0h-23.52v-23.52h23.52v23.52Zm-24,0h-23.52v-23.52h23.52v23.52Zm-24,0h-23.52v-23.52h23.52v23.52Zm-24,0h-23.52v-23.52h23.52v23.52Zm-24,0h-23.52v-23.52h23.52v23.52Zm-24,0h-23.52v-23.52h23.52v23.52Zm-24,0h-23.52v-23.52h23.52v23.52Zm-24,0h-23.52v-23.52h23.52v23.52Zm-24,0h-23.52v-23.52h23.52v23.52Zm-24,0h-23.52v-23.52h23.52v23.52Zm-24,0h-23.52v-23.52h23.52v23.52Zm-24,0h-23.52v-23.52h23.52v23.52Zm-24,0h-23.52v-23.52h23.52v23.52Zm-24,0h-23.52v-23.52h23.52v23.52Zm-24,0h-23.52v-23.52h23.52v23.52Zm-24,0h-23.52v-23.52h23.52v23.52Zm0,.48v23.52h-23.52v-23.52h23.52Zm0,24v23.52h-23.52v-23.52h23.52Zm0,24v23.52h-23.52v-23.52h23.52Zm0,24v23.52h-23.52v-23.52h23.52Zm0,24v23.52h-23.52v-23.52h23.52Zm0,24v23.52h-23.52v-23.52h23.52Zm0,24v23.52h-23.52v-23.52h23.52Zm0,24v23.52h-23.52v-23.52h23.52Zm0,24v23.52h-23.52v-23.52h23.52Zm0,24v23.52h-23.52v-23.52h23.52Zm0,24v23.52h-23.52v-23.52h23.52Zm0,24v23.52h-23.52v-23.52h23.52Zm0,24v23.52h-23.52v-23.52h23.52Zm0,24v23.52h-23.52v-23.52h23.52Zm0,24v23.52h-23.52v-23.52h23.52Zm0,24v23.52h-23.52v-23.52h23.52Zm0,24v23.52h-23.52v-23.52h23.52Zm0,24v23.52h-23.52v-23.52h23.52Zm0,24v23.52h-23.52v-23.52h23.52Zm0,24v23.52h-23.52v-23.52h23.52Zm0,24v23.52h-23.52v-23.52h23.52Zm0,24v23.52h-23.52v-23.52h23.52Zm0,24v23.52h-23.52v-23.52h23.52Zm.48,0h23.52v23.52h-23.52v-23.52Zm24,0h23.52v23.52h-23.52v-23.52Zm24,0h23.52v23.52h-23.52v-23.52Zm24,0h23.52v23.52h-23.52v-23.52Zm24,0h23.52v23.52h-23.52v-23.52Zm24,0h23.52v23.52h-23.52v-23.52Zm24,0h23.52v23.52h-23.52v-23.52Zm24,0h23.52v23.52h-23.52v-23.52Zm24,0h23.52v23.52h-23.52v-23.52Zm24,0h23.52v23.52h-23.52v-23.52Zm24,0h23.52v23.52h-23.52v-23.52Zm24,0h23.52v23.52h-23.52v-23.52Zm24,0h23.52v23.52h-23.52v-23.52Zm24,0h23.52v23.52h-23.52v-23.52Zm24,0h23.52v23.52h-23.52v-23.52Zm24,0h23.52v23.52h-23.52v-23.52Zm24,0h23.52v23.52h-23.52v-23.52Zm24,0h23.52v23.52h-23.52v-23.52Zm24,0h23.52v23.52h-23.52v-23.52Zm24,0h23.52v23.52h-23.52v-23.52Zm24,0h23.52v23.52h-23.52v-23.52Zm24,0h23.52v23.52h-23.52v-23.52Zm24,0h23.52v23.52h-23.52v-23.52Zm24,0h23.52v23.52h-23.52v-23.52Zm24,0h23.52v23.52h-23.52v-23.52Zm24,0h23.52v23.52h-23.52v-23.52Zm24,0h23.52v23.52h-23.52v-23.52Zm24,0h23.52v23.52h-23.52v-23.52Zm24,0h23.52v23.52h-23.52v-23.52Zm24,0h23.52v23.52h-23.52v-23.52Zm24,0h23.52v23.52h-23.52v-23.52Zm24,0h23.52v23.52h-23.52v-23.52Zm24,0h23.52v23.52h-23.52v-23.52Zm24,0h23.52v23.52h-23.52v-23.52Zm24,0h23.52v23.52h-23.52v-23.52Zm24,0h23.52v23.52h-23.52v-23.52Zm24,0h23.52v23.52h-23.52v-23.52Zm24,0h23.52v23.52h-23.52v-23.52Zm0-.48v-23.52h23.52v23.52h-23.52Zm0-24v-23.52h23.52v23.52h-23.52Zm0-24v-23.52h23.52v23.52h-23.52Zm0-24v-23.52h23.52v23.52h-23.52Zm0-24v-23.52h23.52v23.52h-23.52Zm0-24v-23.52h23.52v23.52h-23.52Zm0-24v-23.52h23.52v23.52h-23.52Zm0-24v-23.52h23.52v23.52h-23.52Zm0-24v-23.52h23.52v23.52h-23.52Zm0-24v-23.52h23.52v23.52h-23.52Zm0-24v-23.52h23.52v23.52h-23.52Zm0-24v-23.52h23.52v23.52h-23.52Zm0-24v-23.52h23.52v23.52h-23.52Zm0-24v-23.52h23.52v23.52h-23.52Zm0-24v-23.52h23.52v23.52h-23.52Zm0-24v-23.52h23.52v23.52h-23.52Zm0-24v-23.52h23.52v23.52h-23.52Zm0-24v-23.52h23.52v23.52h-23.52Zm0-24v-23.52h23.52v23.52h-23.52Zm0-24v-23.52h23.52v23.52h-23.52Zm0-24v-23.52h23.52v23.52h-23.52Zm0-24v-23.52h23.52v23.52h-23.52Zm0-24v-23.52h23.52v23.52h-23.52Zm0-24v-23.52h23.52v23.52h-23.52Zm-.48,0h-23.52v-23.52h23.52v23.52Zm-24,0h-23.52v-23.52h23.52v23.52Zm-24,0h-23.52v-23.52h23.52v23.52Zm-24,0h-23.52v-23.52h23.52v23.52Zm-24,0h-23.52v-23.52h23.52v23.52Zm-24,0h-23.52v-23.52h23.52v23.52Zm-24,0h-23.52v-23.52h23.52v23.52Zm-24,0h-23.52v-23.52h23.52v23.52Zm-24,0h-23.52v-23.52h23.52v23.52Zm-24,0h-23.52v-23.52h23.52v23.52Zm-24,0h-23.52v-23.52h23.52v23.52Zm-24,0h-23.52v-23.52h23.52v23.52Zm-24,0h-23.52v-23.52h23.52v23.52Zm-24,0h-23.52v-23.52h23.52v23.52Zm-24,0h-23.52v-23.52h23.52v23.52Zm-24,0h-23.52v-23.52h23.52v23.52Zm-24,0h-23.52v-23.52h23.52v23.52Zm-24,0h-23.52v-23.52h23.52v23.52Zm-24,0h-23.52v-23.52h23.52v23.52Zm-24,0h-23.52v-23.52h23.52v23.52Zm-24,0h-23.52v-23.52h23.52v23.52Zm-24,0h-23.52v-23.52h23.52v23.52Zm-24,0h-23.52v-23.52h23.52v23.52Zm-24,0h-23.52v-23.52h23.52v23.52Zm-24,0h-23.52v-23.52h23.52v23.52Zm-24,0h-23.52v-23.52h23.52v23.52Zm-24,0h-23.52v-23.52h23.52v23.52Zm-24,0h-23.52v-23.52h23.52v23.52Zm-24,0h-23.52v-23.52h23.52v23.52Zm-24,0h-23.52v-23.52h23.52v23.52Zm-24,0h-23.52v-23.52h23.52v23.52Zm-24,0h-23.52v-23.52h23.52v23.52Zm-24,0h-23.52v-23.52h23.52v23.52Zm-24,0h-23.52v-23.52h23.52v23.52Zm-24,0h-23.52v-23.52h23.52v23.52Zm-24,0h-23.52v-23.52h23.52v23.52Zm-24,0h-23.52v-23.52h23.52v23.52Zm-24,0h-23.52v-23.52h23.52v23.52Zm-24,0h-23.52v-23.52h23.52v23.52Zm0,.48v23.52h-23.52v-23.52h23.52Zm0,24v23.52h-23.52v-23.52h23.52Zm0,24v23.52h-23.52v-23.52h23.52Zm0,24v23.52h-23.52v-23.52h23.52Zm0,24v23.52h-23.52v-23.52h23.52Zm0,24v23.52h-23.52v-23.52h23.52Zm0,24v23.52h-23.52v-23.52h23.52Zm0,24v23.52h-23.52v-23.52h23.52Zm0,24v23.52h-23.52v-23.52h23.52Zm0,24v23.52h-23.52v-23.52h23.52Zm0,24v23.52h-23.52v-23.52h23.52Zm0,24v23.52h-23.52v-23.52h23.52Zm0,24v23.52h-23.52v-23.52h23.52Zm0,24v23.52h-23.52v-23.52h23.52Zm0,24v23.52h-23.52v-23.52h23.52Zm0,24v23.52h-23.52v-23.52h23.52Zm0,24v23.52h-23.52v-23.52h23.52Zm0,24v23.52h-23.52v-23.52h23.52Zm0,24v23.52h-23.52v-23.52h23.52Zm0,24v23.52h-23.52v-23.52h23.52Zm0,24v23.52h-23.52v-23.52h23.52Zm0,24v23.52h-23.52v-23.52h23.52Zm0,24v23.52h-23.52v-23.52h23.52Zm0,24v23.52h-23.52v-23.52h23.52Zm0,24v23.52h-23.52v-23.52h23.52Zm.48,0h23.52v23.52h-23.52v-23.52Zm24,0h23.52v23.52h-23.52v-23.52Zm24,0h23.52v23.52h-23.52v-23.52Zm24,0h23.52v23.52h-23.52v-23.52Zm24,0h23.52v23.52h-23.52v-23.52Zm24,0h23.52v23.52h-23.52v-23.52Zm24,0h23.52v23.52h-23.52v-23.52Zm24,0h23.52v23.52h-23.52v-23.52Zm24,0h23.52v23.52h-23.52v-23.52Zm24,0h23.52v23.52h-23.52v-23.52Zm24,0h23.52v23.52h-23.52v-23.52Zm24,0h23.52v23.52h-23.52v-23.52Zm24,0h23.52v23.52h-23.52v-23.52Zm24,0h23.52v23.52h-23.52v-23.52Zm24,0h23.52v23.52h-23.52v-23.52Zm24,0h23.52v23.52h-23.52v-23.52Zm24,0h23.52v23.52h-23.52v-23.52Zm24,0h23.52v23.52h-23.52v-23.52Zm24,0h23.52v23.52h-23.52v-23.52Zm24,0h23.52v23.52h-23.52v-23.52Zm24,0h23.52v23.52h-23.52v-23.52Zm24,0h23.52v23.52h-23.52v-23.52Zm24,0h23.52v23.52h-23.52v-23.52Zm24,0h23.52v23.52h-23.52v-23.52Zm24,0h23.52v23.52h-23.52v-23.52Zm24,0h23.52v23.52h-23.52v-23.52Zm24,0h23.52v23.52h-23.52v-23.52Zm24,0h23.52v23.52h-23.52v-23.52Zm24,0h23.52v23.52h-23.52v-23.52Zm24,0h23.52v23.52h-23.52v-23.52Zm24,0h23.52v23.52h-23.52v-23.52Zm24,0h23.52v23.52h-23.52v-23.52Zm24,0h23.52v23.52h-23.52v-23.52Zm24,0h23.52v23.52h-23.52v-23.52Zm24,0h23.52v23.52h-23.52v-23.52Zm24,0h23.52v23.52h-23.52v-23.52Zm24,0h23.52v23.52h-23.52v-23.52Zm24,0h23.52v23.52h-23.52v-23.52Zm24,0h23.52v23.52h-23.52v-23.52Zm24,0h23.52v23.52h-23.52v-23.52Zm0-.48v-23.52h23.52v23.52h-23.52Zm0-24v-23.52h23.52v23.52h-23.52Zm0-24v-23.52h23.52v23.52h-23.52Zm0-24v-23.52h23.52v23.52h-23.52Zm0-24v-23.52h23.52v23.52h-23.52Zm0-24v-23.52h23.52v23.52h-23.52Zm0-24v-23.52h23.52v23.52h-23.52Zm0-24v-23.52h23.52v23.52h-23.52Zm0-24v-23.52h23.52v23.52h-23.52Zm0-24v-23.52h23.52v23.52h-23.52Zm0-24v-23.52h23.52v23.52h-23.52Zm0-24v-23.52h23.52v23.52h-23.52Zm0-24v-23.52h23.52v23.52h-23.52Zm0-24v-23.52h23.52v23.52h-23.52Zm0-24v-23.52h23.52v23.52h-23.52Zm0-24v-23.52h23.52v23.52h-23.52Zm0-24v-23.52h23.52v23.52h-23.52Zm0-24v-23.52h23.52v23.52h-23.52Zm0-24v-23.52h23.52v23.52h-23.52Zm0-24v-23.52h23.52v23.52h-23.52Zm0-24v-23.52h23.52v23.52h-23.52Zm0-24v-23.52h23.52v23.52h-23.52Zm0-24v-23.52h23.52v23.52h-23.52Zm0-24v-23.52h23.52v23.52h-23.52Zm0-24v-23.52h23.52v23.52h-23.52Zm0-24v-23.52h23.52v23.52h-23.52Zm-.48,0h-23.52v-23.52h23.52v23.52Zm-24,0h-23.52v-23.52h23.52v23.52Zm-24,0h-23.52v-23.52h23.52v23.52Zm-24,0h-23.52v-23.52h23.52v23.52Zm-24,0h-23.52v-23.52h23.52v23.52Zm-24,0h-23.52v-23.52h23.52v23.52Zm-24,0h-23.52v-23.52h23.52v23.52Zm-24,0h-23.52v-23.52h23.52v23.52Zm-24,0h-23.52v-23.52h23.52v23.52Zm-24,0h-23.52v-23.52h23.52v23.52Zm-24,0h-23.52v-23.52h23.52v23.52Zm-24,0h-23.52v-23.52h23.52v23.52Zm-24,0h-23.52v-23.52h23.52v23.52Zm-24,0h-23.52v-23.52h23.52v23.52Zm-24,0h-23.52v-23.52h23.52v23.52Zm-24,0h-23.52v-23.52h23.52v23.52Zm-24,0h-23.52v-23.52h23.52v23.52Zm-24,0h-23.52v-23.52h23.52v23.52Zm-24,0h-23.52v-23.52h23.52v23.52Zm-24,0h-23.52v-23.52h23.52v23.52Zm-24,0h-23.52v-23.52h23.52v23.52Zm-24,0h-23.52v-23.52h23.52v23.52Zm-24,0h-23.52v-23.52h23.52v23.52Zm-24,0h-23.52v-23.52h23.52v23.52Zm-24,0h-23.52v-23.52h23.52v23.52Zm-24,0h-23.52v-23.52h23.52v23.52Zm-24,0h-23.52v-23.52h23.52v23.52Zm-24,0h-23.52v-23.52h23.52v23.52Zm-24,0h-23.52v-23.52h23.52v23.52Zm-24,0h-23.52v-23.52h23.52v23.52Zm-24,0h-23.52v-23.52h23.52v23.52Zm-24,0h-23.52v-23.52h23.52v23.52Zm-24,0h-23.52v-23.52h23.52v23.52Zm-24,0h-23.52v-23.52h23.52v23.52Zm-24,0h-23.52v-23.52h23.52v23.52Zm-24,0h-23.52v-23.52h23.52v23.52Zm-24,0h-23.52v-23.52h23.52v23.52Zm-24,0h-23.52v-23.52h23.52v23.52Zm-24,0h-23.52v-23.52h23.52v23.52Zm-24,0h-23.52v-23.52h23.52v23.52Zm-24,0h-23.52v-23.52h23.52v23.52Zm0,.48v23.52h-23.52v-23.52h23.52Zm0,24v23.52h-23.52v-23.52h23.52Zm0,24v23.52h-23.52v-23.52h23.52Zm0,24v23.52h-23.52v-23.52h23.52Zm0,24v23.52h-23.52v-23.52h23.52Zm0,24v23.52h-23.52v-23.52h23.52Zm0,24v23.52h-23.52v-23.52h23.52Zm0,24v23.52h-23.52v-23.52h23.52Zm0,24v23.52h-23.52v-23.52h23.52Zm0,24v23.52h-23.52v-23.52h23.52Zm0,24v23.52h-23.52v-23.52h23.52Zm0,24v23.52h-23.52v-23.52h23.52Zm0,24v23.52h-23.52v-23.52h23.52Zm0,24v23.52h-23.52v-23.52h23.52Zm0,24v23.52h-23.52v-23.52h23.52Zm0,24v23.52h-23.52v-23.52h23.52Zm0,24v23.52h-23.52v-23.52h23.52Zm0,24v23.52h-23.52v-23.52h23.52Zm0,24v23.52h-23.52v-23.52h23.52Zm0,24v23.52h-23.52v-23.52h23.52Zm0,24v23.52h-23.52v-23.52h23.52Zm0,24v23.52h-23.52v-23.52h23.52Zm0,24v23.52h-23.52v-23.52h23.52Zm0,24v23.52h-23.52v-23.52h23.52Zm0,24v23.52h-23.52v-23.52h23.52Zm0,24v23.52h-23.52v-23.52h23.52Zm0,24v23.52h-23.52v-23.52h23.52Zm.48,0h23.52v23.52h-23.52v-23.52Zm24,0h23.52v23.52h-23.52v-23.52Zm24,0h23.52v23.52h-23.52v-23.52Zm24,0h23.52v23.52h-23.52v-23.52Zm24,0h23.52v23.52h-23.52v-23.52Zm24,0h23.52v23.52h-23.52v-23.52Zm24,0h23.52v23.52h-23.52v-23.52Zm24,0h23.52v23.52h-23.52v-23.52Zm24,0h23.52v23.52h-23.52v-23.52Zm24,0h23.52v23.52h-23.52v-23.52Zm24,0h23.52v23.52h-23.52v-23.52Zm24,0h23.52v23.52h-23.52v-23.52Zm24,0h23.52v23.52h-23.52v-23.52Zm24,0h23.52v23.52h-23.52v-23.52Zm24,0h23.52v23.52h-23.52v-23.52Zm24,0h23.52v23.52h-23.52v-23.52Zm24,0h23.52v23.52h-23.52v-23.52Zm24,0h23.52v23.52h-23.52v-23.52Zm24,0h23.52v23.52h-23.52v-23.52Zm24,0h23.52v23.52h-23.52v-23.52Zm24,0h23.52v23.52h-23.52v-23.52Zm24,0h23.52v23.52h-23.52v-23.52Zm24,0h23.52v23.52h-23.52v-23.52Zm24,0h23.52v23.52h-23.52v-23.52Zm24,0h23.52v23.52h-23.52v-23.52Zm24,0h23.52v23.52h-23.52v-23.52Zm24,0h23.52v23.52h-23.52v-23.52Zm24,0h23.52v23.52h-23.52v-23.52Zm24,0h23.52v23.52h-23.52v-23.52Zm24,0h23.52v23.52h-23.52v-23.52Zm24,0h23.52v23.52h-23.52v-23.52Zm24,0h23.52v23.52h-23.52v-23.52Zm24,0h23.52v23.52h-23.52v-23.52Zm24,0h23.52v23.52h-23.52v-23.52Zm24,0h23.52v23.52h-23.52v-23.52Zm24,0h23.52v23.52h-23.52v-23.52Zm24,0h23.52v23.52h-23.52v-23.52Zm24,0h23.52v23.52h-23.52v-23.52Zm24,0h23.52v23.52h-23.52v-23.52Zm24,0h23.52v23.52h-23.52v-23.52Zm24,0h23.52v23.52h-23.52v-23.52Zm24,0h23.52v23.52h-23.52v-23.52Zm0-.48v-23.52h23.52v23.52h-23.52Zm0-24v-23.52h23.52v23.52h-23.52Zm0-24v-23.52h23.52v23.52h-23.52Zm0-24v-23.52h23.52v23.52h-23.52Zm0-24v-23.52h23.52v23.52h-23.52Zm0-24v-23.52h23.52v23.52h-23.52Zm0-24v-23.52h23.52v23.52h-23.52Zm0-24v-23.52h23.52v23.52h-23.52Zm0-24v-23.52h23.52v23.52h-23.52Zm0-24v-23.52h23.52v23.52h-23.52Zm0-24v-23.52h23.52v23.52h-23.52Zm0-24v-23.52h23.52v23.52h-23.52Zm0-24v-23.52h23.52v23.52h-23.52Zm0-24v-23.52h23.52v23.52h-23.52Zm0-24v-23.52h23.52v23.52h-23.52Zm0-24v-23.52h23.52v23.52h-23.52Zm0-24v-23.52h23.52v23.52h-23.52Zm0-24v-23.52h23.52v23.52h-23.52Zm0-24v-23.52h23.52v23.52h-23.52Zm0-24v-23.52h23.52v23.52h-23.52Zm0-24v-23.52h23.52v23.52h-23.52Zm0-24v-23.52h23.52v23.52h-23.52Zm0-24v-23.52h23.52v23.52h-23.52Zm0-24v-23.52h23.52v23.52h-23.52Zm0-24v-23.52h23.52v23.52h-23.52Zm0-24v-23.52h23.52v23.52h-23.52Zm0-24v-23.52h23.52v23.52h-23.52Zm-.48-47.52v23.52h-23.52v-23.52h23.52Zm-24,0v23.52h-23.52v-23.52h23.52Zm-24,0v23.52h-23.52v-23.52h23.52Zm-24,0v23.52h-23.52v-23.52h23.52Zm-24,0v23.52h-23.52v-23.52h23.52Zm-24,0v23.52h-23.52v-23.52h23.52Zm-24,0v23.52h-23.52v-23.52h23.52Zm-24,0v23.52h-23.52v-23.52h23.52Zm-24,0v23.52h-23.52v-23.52h23.52Zm-24,0v23.52h-23.52v-23.52h23.52Zm-24,0v23.52h-23.52v-23.52h23.52Zm-24,0v23.52h-23.52v-23.52h23.52Zm-24,0v23.52h-23.52v-23.52h23.52Zm-24,0v23.52h-23.52v-23.52h23.52Zm-24,0v23.52h-23.52v-23.52h23.52Zm-24,0v23.52h-23.52v-23.52h23.52Zm-24,0v23.52h-23.52v-23.52h23.52Zm-24,0v23.52h-23.52v-23.52h23.52Zm-24,0v23.52h-23.52v-23.52h23.52Zm-24,0v23.52h-23.52v-23.52h23.52Zm-24,0v23.52h-23.52v-23.52h23.52Zm-24,0v23.52h-23.52v-23.52h23.52Zm-24,0v23.52h-23.52v-23.52h23.52Zm-24,0v23.52h-23.52v-23.52h23.52Zm-24,0v23.52h-23.52v-23.52h23.52Zm-24,0v23.52h-23.52v-23.52h23.52Zm-24,0v23.52h-23.52v-23.52h23.52Zm-24,0v23.52h-23.52v-23.52h23.52Zm-24,0v23.52h-23.52v-23.52h23.52Zm-24,0v23.52h-23.52v-23.52h23.52Zm-24,0v23.52h-23.52v-23.52h23.52Zm-24,0v23.52h-23.52v-23.52h23.52Zm-24,0v23.52h-23.52v-23.52h23.52Zm-24,0v23.52h-23.52v-23.52h23.52Zm-24,0v23.52h-23.52v-23.52h23.52Zm-24,0v23.52h-23.52v-23.52h23.52Zm-24,0v23.52h-23.52v-23.52h23.52Zm-24,0v23.52h-23.52v-23.52h23.52Zm-24,0v23.52h-23.52v-23.52h23.52Zm-24,0v23.52h-23.52v-23.52h23.52Zm-24,0v23.52h-23.52v-23.52h23.52Zm-24,0v23.52h-23.52v-23.52h23.52Zm-47.52,0h23.52v23.52h-23.52v-23.52Zm0,24h23.52v23.52h-23.52v-23.52Zm0,24h23.52v23.52h-23.52v-23.52Zm0,24h23.52v23.52h-23.52v-23.52Zm0,24h23.52v23.52h-23.52v-23.52Zm0,24h23.52v23.52h-23.52v-23.52Zm0,24h23.52v23.52h-23.52v-23.52Zm0,24h23.52v23.52h-23.52v-23.52Zm0,24h23.52v23.52h-23.52v-23.52Zm0,24h23.52v23.52h-23.52v-23.52Zm0,24h23.52v23.52h-23.52v-23.52Zm0,24h23.52v23.52h-23.52v-23.52Zm0,24h23.52v23.52h-23.52v-23.52Zm0,24h23.52v23.52h-23.52v-23.52Zm0,24h23.52v23.52h-23.52v-23.52Zm0,24h23.52v23.52h-23.52v-23.52Zm0,24h23.52v23.52h-23.52v-23.52Zm0,24h23.52v23.52h-23.52v-23.52Zm0,24h23.52v23.52h-23.52v-23.52Zm0,24h23.52v23.52h-23.52v-23.52Zm0,24h23.52v23.52h-23.52v-23.52Zm0,24h23.52v23.52h-23.52v-23.52Zm0,24h23.52v23.52h-23.52v-23.52Zm0,24h23.52v23.52h-23.52v-23.52Zm0,24h23.52v23.52h-23.52v-23.52Zm0,24h23.52v23.52h-23.52v-23.52Zm0,24h23.52v23.52h-23.52v-23.52Zm0,24h23.52v23.52h-23.52v-23.52Zm0,24h23.52v23.52h-23.52v-23.52Zm0,47.52v-23.52h23.52v23.52h-23.52Zm24,0v-23.52h23.52v23.52h-23.52Zm24,0v-23.52h23.52v23.52h-23.52Zm24,0v-23.52h23.52v23.52h-23.52Zm24,0v-23.52h23.52v23.52h-23.52Zm24,0v-23.52h23.52v23.52h-23.52Zm24,0v-23.52h23.52v23.52h-23.52Zm24,0v-23.52h23.52v23.52h-23.52Zm24,0v-23.52h23.52v23.52h-23.52Zm24,0v-23.52h23.52v23.52h-23.52Zm24,0v-23.52h23.52v23.52h-23.52Zm24,0v-23.52h23.52v23.52h-23.52Zm24,0v-23.52h23.52v23.52h-23.52Zm24,0v-23.52h23.52v23.52h-23.52Zm24,0v-23.52h23.52v23.52h-23.52Zm24,0v-23.52h23.52v23.52h-23.52Zm24,0v-23.52h23.52v23.52h-23.52Zm24,0v-23.52h23.52v23.52h-23.52Zm24,0v-23.52h23.52v23.52h-23.52Zm24,0v-23.52h23.52v23.52h-23.52Zm24,0v-23.52h23.52v23.52h-23.52Zm24,0v-23.52h23.52v23.52h-23.52Zm24,0v-23.52h23.52v23.52h-23.52Zm24,0v-23.52h23.52v23.52h-23.52Zm24,0v-23.52h23.52v23.52h-23.52Zm24,0v-23.52h23.52v23.52h-23.52Zm24,0v-23.52h23.52v23.52h-23.52Zm24,0v-23.52h23.52v23.52h-23.52Zm24,0v-23.52h23.52v23.52h-23.52Zm24,0v-23.52h23.52v23.52h-23.52Zm24,0v-23.52h23.52v23.52h-23.52Zm24,0v-23.52h23.52v23.52h-23.52Zm24,0v-23.52h23.52v23.52h-23.52Zm24,0v-23.52h23.52v23.52h-23.52Zm24,0v-23.52h23.52v23.52h-23.52Zm24,0v-23.52h23.52v23.52h-23.52Zm24,0v-23.52h23.52v23.52h-23.52Zm24,0v-23.52h23.52v23.52h-23.52Zm24,0v-23.52h23.52v23.52h-23.52Zm24,0v-23.52h23.52v23.52h-23.52Zm24,0v-23.52h23.52v23.52h-23.52Zm24,0v-23.52h23.52v23.52h-23.52Zm24,0v-23.52h23.52v23.52h-23.52Zm24,0v-23.52h23.52v23.52h-23.52Zm47.52,0h-23.52v-23.52h23.52v23.52Zm0-24h-23.52v-23.52h23.52v23.52Zm0-24h-23.52v-23.52h23.52v23.52Zm0-24h-23.52v-23.52h23.52v23.52Zm0-24h-23.52v-23.52h23.52v23.52Zm0-24h-23.52v-23.52h23.52v23.52Zm0-24h-23.52v-23.52h23.52v23.52Zm0-24h-23.52v-23.52h23.52v23.52Zm0-24h-23.52v-23.52h23.52v23.52Zm0-24h-23.52v-23.52h23.52v23.52Zm0-24h-23.52v-23.52h23.52v23.52Zm0-24h-23.52v-23.52h23.52v23.52Zm0-24h-23.52v-23.52h23.52v23.52Zm0-24h-23.52v-23.52h23.52v23.52Zm0-24h-23.52v-23.52h23.52v23.52Zm0-24h-23.52v-23.52h23.52v23.52Zm0-24h-23.52v-23.52h23.52v23.52Zm0-24h-23.52v-23.52h23.52v23.52Zm0-24h-23.52v-23.52h23.52v23.52Zm0-24h-23.52v-23.52h23.52v23.52Zm0-24h-23.52v-23.52h23.52v23.52Zm0-24h-23.52v-23.52h23.52v23.52Zm0-24h-23.52v-23.52h23.52v23.52Zm0-24h-23.52v-23.52h23.52v23.52Zm0-24h-23.52v-23.52h23.52v23.52Zm0-24h-23.52v-23.52h23.52v23.52Zm0-24h-23.52v-23.52h23.52v23.52Zm0-24h-23.52v-23.52h23.52v23.52Zm0-24h-23.52v-23.52h23.52v23.52Zm0-24h-23.52v-23.52h23.52v23.52Z"/></g></svg>