<?xml version="1.0" encoding="UTF-8"?><svg id="Layer_2" xmlns="http://www.w3.org/2000/svg" viewBox="0 0 1080.96 720.96"><defs><style>.cls-1{fill-rule:evenodd;stroke-width:0px;}</style></defs><g id="Layer_1-2"><path class="cls-1" d="m24,.96h.96v-.96h-.96v.96Zm24,0h.96v-.96h-.96v.96Zm24,0h.96v-.96h-.96v.96Zm24,0h.96v-.96h-.96v.96ZM24,24.96h.96v-.96h-.96v.96Zm24,0h.96v-.96h-.96v.96Zm24,0h.96v-.96h-.96v.96Zm24,0h.96v-.96h-.96v.96ZM24,48.96h.96v-.96h-.96v.96Zm24,0h.96v-.96h-.96v.96Zm24,0h.96v-.96h-.96v.96Zm24,0h.96v-.96h-.96v.96Zm-72,24h.96v-.96h-.96v.96Zm24,0h.96v-.96h-.96v.96Zm24,0h.96v-.96h-.96v.96Zm24,0h.96v-.96h-.96v.96Zm-72,24h.96v-.96h-.96v.96Zm24,0h.96v-.96h-.96v.96Zm24,0h.96v-.96h-.96v.96Zm24,0h.96v-.96h-.96v.96Zm-72,24h.96v-.96h-.96v.96Zm24,0h.96v-.96h-.96v.96Zm24,0h.96v-.96h-.96v.96Zm24,0h.96v-.96h-.96v.96Zm24-96h.96v-.96h-.96v.96Zm0,24h.96v-.96h-.96v.96Zm0,24h.96v-.96h-.96v.96Zm0,24h.96v-.96h-.96v.96ZM0,24.96h.96v-.96H0v.96ZM0,48.96h.96v-.96H0v.96ZM0,72.96h.96v-.96H0v.96ZM0,96.96h.96v-.96H0v.96ZM144,.96h.96v-.96h-.96v.96Zm24,0h.96v-.96h-.96v.96Zm24,0h.96v-.96h-.96v.96Zm24,0h.96v-.96h-.96v.96Zm-72,24h.96v-.96h-.96v.96Zm24,0h.96v-.96h-.96v.96Zm24,0h.96v-.96h-.96v.96Zm24,0h.96v-.96h-.96v.96Zm-72,24h.96v-.96h-.96v.96Zm24,0h.96v-.96h-.96v.96Zm24,0h.96v-.96h-.96v.96Zm24,0h.96v-.96h-.96v.96Zm-72,24h.96v-.96h-.96v.96Zm24,0h.96v-.96h-.96v.96Zm24,0h.96v-.96h-.96v.96Zm24,0h.96v-.96h-.96v.96Zm-72,24h.96v-.96h-.96v.96Zm24,0h.96v-.96h-.96v.96Zm24,0h.96v-.96h-.96v.96Zm24,0h.96v-.96h-.96v.96Zm-72,24h.96v-.96h-.96v.96Zm24,0h.96v-.96h-.96v.96Zm24,0h.96v-.96h-.96v.96Zm24,0h.96v-.96h-.96v.96Zm24-96h.96v-.96h-.96v.96Zm0,24h.96v-.96h-.96v.96Zm0,24h.96v-.96h-.96v.96Zm0,24h.96v-.96h-.96v.96ZM24,144.96h.96v-.96h-.96v.96Zm24,0h.96v-.96h-.96v.96Zm24,0h.96v-.96h-.96v.96Zm24,0h.96v-.96h-.96v.96Zm-72,24h.96v-.96h-.96v.96Zm24,0h.96v-.96h-.96v.96Zm24,0h.96v-.96h-.96v.96Zm24,0h.96v-.96h-.96v.96Zm-72,24h.96v-.96h-.96v.96Zm24,0h.96v-.96h-.96v.96Zm24,0h.96v-.96h-.96v.96Zm24,0h.96v-.96h-.96v.96Zm-72,24h.96v-.96h-.96v.96Zm24,0h.96v-.96h-.96v.96Zm24,0h.96v-.96h-.96v.96Zm24,0h.96v-.96h-.96v.96Zm-72,24h.96v-.96h-.96v.96Zm24,0h.96v-.96h-.96v.96Zm24,0h.96v-.96h-.96v.96Zm24,0h.96v-.96h-.96v.96Zm24-96h.96v-.96h-.96v.96Zm0,24h.96v-.96h-.96v.96Zm0,24h.96v-.96h-.96v.96Zm0,24h.96v-.96h-.96v.96ZM0,144.96h.96v-.96H0v.96ZM0,168.96h.96v-.96H0v.96ZM0,192.96h.96v-.96H0v.96ZM0,216.96h.96v-.96H0v.96Zm144-72h.96v-.96h-.96v.96Zm24,0h.96v-.96h-.96v.96Zm24,0h.96v-.96h-.96v.96Zm24,0h.96v-.96h-.96v.96Zm-72,24h.96v-.96h-.96v.96Zm24,0h.96v-.96h-.96v.96Zm24,0h.96v-.96h-.96v.96Zm24,0h.96v-.96h-.96v.96Zm-72,24h.96v-.96h-.96v.96Zm24,0h.96v-.96h-.96v.96Zm24,0h.96v-.96h-.96v.96Zm24,0h.96v-.96h-.96v.96Zm-72,24h.96v-.96h-.96v.96Zm24,0h.96v-.96h-.96v.96Zm24,0h.96v-.96h-.96v.96Zm24,0h.96v-.96h-.96v.96Zm-72,24h.96v-.96h-.96v.96Zm24,0h.96v-.96h-.96v.96Zm24,0h.96v-.96h-.96v.96Zm24,0h.96v-.96h-.96v.96Zm24-96h.96v-.96h-.96v.96Zm0,24h.96v-.96h-.96v.96Zm0,24h.96v-.96h-.96v.96Zm0,24h.96v-.96h-.96v.96ZM264,.96h.96v-.96h-.96v.96Zm24,0h.96v-.96h-.96v.96Zm24,0h.96v-.96h-.96v.96Zm24,0h.96v-.96h-.96v.96Zm-72,24h.96v-.96h-.96v.96Zm24,0h.96v-.96h-.96v.96Zm24,0h.96v-.96h-.96v.96Zm24,0h.96v-.96h-.96v.96Zm-72,24h.96v-.96h-.96v.96Zm24,0h.96v-.96h-.96v.96Zm24,0h.96v-.96h-.96v.96Zm24,0h.96v-.96h-.96v.96Zm-72,24h.96v-.96h-.96v.96Zm24,0h.96v-.96h-.96v.96Zm24,0h.96v-.96h-.96v.96Zm24,0h.96v-.96h-.96v.96Zm-72,24h.96v-.96h-.96v.96Zm24,0h.96v-.96h-.96v.96Zm24,0h.96v-.96h-.96v.96Zm24,0h.96v-.96h-.96v.96Zm-72,24h.96v-.96h-.96v.96Zm24,0h.96v-.96h-.96v.96Zm24,0h.96v-.96h-.96v.96Zm24,0h.96v-.96h-.96v.96Zm24-96h.96v-.96h-.96v.96Zm0,24h.96v-.96h-.96v.96Zm0,24h.96v-.96h-.96v.96Zm0,24h.96v-.96h-.96v.96ZM384,.96h.96v-.96h-.96v.96Zm24,0h.96v-.96h-.96v.96Zm24,0h.96v-.96h-.96v.96Zm24,0h.96v-.96h-.96v.96Zm-72,24h.96v-.96h-.96v.96Zm24,0h.96v-.96h-.96v.96Zm24,0h.96v-.96h-.96v.96Zm24,0h.96v-.96h-.96v.96Zm-72,24h.96v-.96h-.96v.96Zm24,0h.96v-.96h-.96v.96Zm24,0h.96v-.96h-.96v.96Zm24,0h.96v-.96h-.96v.96Zm-72,24h.96v-.96h-.96v.96Zm24,0h.96v-.96h-.96v.96Zm24,0h.96v-.96h-.96v.96Zm24,0h.96v-.96h-.96v.96Zm-72,24h.96v-.96h-.96v.96Zm24,0h.96v-.96h-.96v.96Zm24,0h.96v-.96h-.96v.96Zm24,0h.96v-.96h-.96v.96Zm-72,24h.96v-.96h-.96v.96Zm24,0h.96v-.96h-.96v.96Zm24,0h.96v-.96h-.96v.96Zm24,0h.96v-.96h-.96v.96Zm24-96h.96v-.96h-.96v.96Zm0,24h.96v-.96h-.96v.96Zm0,24h.96v-.96h-.96v.96Zm0,24h.96v-.96h-.96v.96Zm-216,48h.96v-.96h-.96v.96Zm24,0h.96v-.96h-.96v.96Zm24,0h.96v-.96h-.96v.96Zm24,0h.96v-.96h-.96v.96Zm-72,24h.96v-.96h-.96v.96Zm24,0h.96v-.96h-.96v.96Zm24,0h.96v-.96h-.96v.96Zm24,0h.96v-.96h-.96v.96Zm-72,24h.96v-.96h-.96v.96Zm24,0h.96v-.96h-.96v.96Zm24,0h.96v-.96h-.96v.96Zm24,0h.96v-.96h-.96v.96Zm-72,24h.96v-.96h-.96v.96Zm24,0h.96v-.96h-.96v.96Zm24,0h.96v-.96h-.96v.96Zm24,0h.96v-.96h-.96v.96Zm-72,24h.96v-.96h-.96v.96Zm24,0h.96v-.96h-.96v.96Zm24,0h.96v-.96h-.96v.96Zm24,0h.96v-.96h-.96v.96Zm24-96h.96v-.96h-.96v.96Zm0,24h.96v-.96h-.96v.96Zm0,24h.96v-.96h-.96v.96Zm0,24h.96v-.96h-.96v.96Zm24-72h.96v-.96h-.96v.96Zm24,0h.96v-.96h-.96v.96Zm24,0h.96v-.96h-.96v.96Zm24,0h.96v-.96h-.96v.96Zm-72,24h.96v-.96h-.96v.96Zm24,0h.96v-.96h-.96v.96Zm24,0h.96v-.96h-.96v.96Zm24,0h.96v-.96h-.96v.96Zm-72,24h.96v-.96h-.96v.96Zm24,0h.96v-.96h-.96v.96Zm24,0h.96v-.96h-.96v.96Zm24,0h.96v-.96h-.96v.96Zm-72,24h.96v-.96h-.96v.96Zm24,0h.96v-.96h-.96v.96Zm24,0h.96v-.96h-.96v.96Zm24,0h.96v-.96h-.96v.96Zm-72,24h.96v-.96h-.96v.96Zm24,0h.96v-.96h-.96v.96Zm24,0h.96v-.96h-.96v.96Zm24,0h.96v-.96h-.96v.96Zm24-96h.96v-.96h-.96v.96Zm0,24h.96v-.96h-.96v.96Zm0,24h.96v-.96h-.96v.96Zm0,24h.96v-.96h-.96v.96ZM24,264.96h.96v-.96h-.96v.96Zm24,0h.96v-.96h-.96v.96Zm24,0h.96v-.96h-.96v.96Zm24,0h.96v-.96h-.96v.96Zm-72,24h.96v-.96h-.96v.96Zm24,0h.96v-.96h-.96v.96Zm24,0h.96v-.96h-.96v.96Zm24,0h.96v-.96h-.96v.96Zm-72,24h.96v-.96h-.96v.96Zm24,0h.96v-.96h-.96v.96Zm24,0h.96v-.96h-.96v.96Zm24,0h.96v-.96h-.96v.96Zm-72,24h.96v-.96h-.96v.96Zm24,0h.96v-.96h-.96v.96Zm24,0h.96v-.96h-.96v.96Zm24,0h.96v-.96h-.96v.96Zm-72,24h.96v-.96h-.96v.96Zm24,0h.96v-.96h-.96v.96Zm24,0h.96v-.96h-.96v.96Zm24,0h.96v-.96h-.96v.96Zm24-96h.96v-.96h-.96v.96Zm0,24h.96v-.96h-.96v.96Zm0,24h.96v-.96h-.96v.96Zm0,24h.96v-.96h-.96v.96ZM0,264.96h.96v-.96H0v.96ZM0,288.96h.96v-.96H0v.96ZM0,312.96h.96v-.96H0v.96ZM0,336.96h.96v-.96H0v.96Zm144-72h.96v-.96h-.96v.96Zm24,0h.96v-.96h-.96v.96Zm24,0h.96v-.96h-.96v.96Zm24,0h.96v-.96h-.96v.96Zm-72,24h.96v-.96h-.96v.96Zm24,0h.96v-.96h-.96v.96Zm24,0h.96v-.96h-.96v.96Zm24,0h.96v-.96h-.96v.96Zm-72,24h.96v-.96h-.96v.96Zm24,0h.96v-.96h-.96v.96Zm24,0h.96v-.96h-.96v.96Zm24,0h.96v-.96h-.96v.96Zm-72,24h.96v-.96h-.96v.96Zm24,0h.96v-.96h-.96v.96Zm24,0h.96v-.96h-.96v.96Zm24,0h.96v-.96h-.96v.96Zm-72,24h.96v-.96h-.96v.96Zm24,0h.96v-.96h-.96v.96Zm24,0h.96v-.96h-.96v.96Zm24,0h.96v-.96h-.96v.96Zm24-96h.96v-.96h-.96v.96Zm0,24h.96v-.96h-.96v.96Zm0,24h.96v-.96h-.96v.96ZM24,384.96h.96v-.96h-.96v.96Zm24,0h.96v-.96h-.96v.96Zm24,0h.96v-.96h-.96v.96Zm24,0h.96v-.96h-.96v.96Zm-72,24h.96v-.96h-.96v.96Zm24,0h.96v-.96h-.96v.96Zm24,0h.96v-.96h-.96v.96Zm24,0h.96v-.96h-.96v.96Zm-72,24h.96v-.96h-.96v.96Zm24,0h.96v-.96h-.96v.96Zm24,0h.96v-.96h-.96v.96Zm24,0h.96v-.96h-.96v.96Zm-72,24h.96v-.96h-.96v.96Zm24,0h.96v-.96h-.96v.96Zm24,0h.96v-.96h-.96v.96Zm24,0h.96v-.96h-.96v.96Zm-72,24h.96v-.96h-.96v.96Zm24,0h.96v-.96h-.96v.96Zm24,0h.96v-.96h-.96v.96Zm24,0h.96v-.96h-.96v.96Zm24-96h.96v-.96h-.96v.96Zm0,24h.96v-.96h-.96v.96Zm0,24h.96v-.96h-.96v.96Zm0,24h.96v-.96h-.96v.96ZM0,384.96h.96v-.96H0v.96ZM0,408.96h.96v-.96H0v.96ZM0,432.96h.96v-.96H0v.96ZM0,456.96h.96v-.96H0v.96Zm144-72h.96v-.96h-.96v.96Zm24,0h.96v-.96h-.96v.96Zm24,0h.96v-.96h-.96v.96Zm24,0h.96v-.96h-.96v.96Zm-72,24h.96v-.96h-.96v.96Zm24,0h.96v-.96h-.96v.96Zm24,0h.96v-.96h-.96v.96Zm24,0h.96v-.96h-.96v.96Zm-72,24h.96v-.96h-.96v.96Zm24,0h.96v-.96h-.96v.96Zm24,0h.96v-.96h-.96v.96Zm24,0h.96v-.96h-.96v.96Zm-72,24h.96v-.96h-.96v.96Zm24,0h.96v-.96h-.96v.96Zm24,0h.96v-.96h-.96v.96Zm24,0h.96v-.96h-.96v.96Zm-72,24h.96v-.96h-.96v.96Zm24,0h.96v-.96h-.96v.96Zm24,0h.96v-.96h-.96v.96Zm24,0h.96v-.96h-.96v.96Zm24-96h.96v-.96h-.96v.96Zm0,24h.96v-.96h-.96v.96Zm0,24h.96v-.96h-.96v.96Zm24-168h.96v-.96h-.96v.96Zm24,0h.96v-.96h-.96v.96Zm24,0h.96v-.96h-.96v.96Zm24,0h.96v-.96h-.96v.96Zm-72,24h.96v-.96h-.96v.96Zm24,0h.96v-.96h-.96v.96Zm24,0h.96v-.96h-.96v.96Zm24,0h.96v-.96h-.96v.96Zm-72,24h.96v-.96h-.96v.96Zm24,0h.96v-.96h-.96v.96Zm24,0h.96v-.96h-.96v.96Zm24,0h.96v-.96h-.96v.96Zm-72,24h.96v-.96h-.96v.96Zm24,0h.96v-.96h-.96v.96Zm24,0h.96v-.96h-.96v.96Zm24,0h.96v-.96h-.96v.96Zm-72,24h.96v-.96h-.96v.96Zm24,0h.96v-.96h-.96v.96Zm24,0h.96v-.96h-.96v.96Zm24,0h.96v-.96h-.96v.96Zm24-96h.96v-.96h-.96v.96Zm0,24h.96v-.96h-.96v.96Zm0,24h.96v-.96h-.96v.96Zm0,24h.96v-.96h-.96v.96Zm24-72h.96v-.96h-.96v.96Zm24,0h.96v-.96h-.96v.96Zm24,0h.96v-.96h-.96v.96Zm24,0h.96v-.96h-.96v.96Zm-72,24h.96v-.96h-.96v.96Zm24,0h.96v-.96h-.96v.96Zm24,0h.96v-.96h-.96v.96Zm24,0h.96v-.96h-.96v.96Zm-72,24h.96v-.96h-.96v.96Zm24,0h.96v-.96h-.96v.96Zm24,0h.96v-.96h-.96v.96Zm24,0h.96v-.96h-.96v.96Zm-72,24h.96v-.96h-.96v.96Zm24,0h.96v-.96h-.96v.96Zm24,0h.96v-.96h-.96v.96Zm24,0h.96v-.96h-.96v.96Zm-72,24h.96v-.96h-.96v.96Zm24,0h.96v-.96h-.96v.96Zm24,0h.96v-.96h-.96v.96Zm24,0h.96v-.96h-.96v.96Zm24-96h.96v-.96h-.96v.96Zm0,24h.96v-.96h-.96v.96Zm0,24h.96v-.96h-.96v.96Zm0,24h.96v-.96h-.96v.96Zm-216,48h.96v-.96h-.96v.96Zm24,0h.96v-.96h-.96v.96Zm24,0h.96v-.96h-.96v.96Zm24,0h.96v-.96h-.96v.96Zm-72,24h.96v-.96h-.96v.96Zm24,0h.96v-.96h-.96v.96Zm24,0h.96v-.96h-.96v.96Zm24,0h.96v-.96h-.96v.96Zm-72,24h.96v-.96h-.96v.96Zm24,0h.96v-.96h-.96v.96Zm24,0h.96v-.96h-.96v.96Zm24,0h.96v-.96h-.96v.96Zm-72,24h.96v-.96h-.96v.96Zm24,0h.96v-.96h-.96v.96Zm24,0h.96v-.96h-.96v.96Zm24,0h.96v-.96h-.96v.96Zm-72,24h.96v-.96h-.96v.96Zm24,0h.96v-.96h-.96v.96Zm24,0h.96v-.96h-.96v.96Zm24,0h.96v-.96h-.96v.96Zm24-96h.96v-.96h-.96v.96Zm0,24h.96v-.96h-.96v.96Zm0,24h.96v-.96h-.96v.96Zm0,24h.96v-.96h-.96v.96Zm24-72h.96v-.96h-.96v.96Zm24,0h.96v-.96h-.96v.96Zm24,0h.96v-.96h-.96v.96Zm24,0h.96v-.96h-.96v.96Zm-72,24h.96v-.96h-.96v.96Zm24,0h.96v-.96h-.96v.96Zm24,0h.96v-.96h-.96v.96Zm24,0h.96v-.96h-.96v.96Zm-72,24h.96v-.96h-.96v.96Zm24,0h.96v-.96h-.96v.96Zm24,0h.96v-.96h-.96v.96Zm24,0h.96v-.96h-.96v.96Zm-72,24h.96v-.96h-.96v.96Zm24,0h.96v-.96h-.96v.96Zm24,0h.96v-.96h-.96v.96Zm24,0h.96v-.96h-.96v.96Zm-72,24h.96v-.96h-.96v.96Zm24,0h.96v-.96h-.96v.96Zm24,0h.96v-.96h-.96v.96Zm24,0h.96v-.96h-.96v.96Zm24-96h.96v-.96h-.96v.96Zm0,24h.96v-.96h-.96v.96Zm0,24h.96v-.96h-.96v.96Zm0,24h.96v-.96h-.96v.96ZM24,504.96h.96v-.96h-.96v.96Zm24,0h.96v-.96h-.96v.96Zm24,0h.96v-.96h-.96v.96Zm24,0h.96v-.96h-.96v.96Zm-72,24h.96v-.96h-.96v.96Zm24,0h.96v-.96h-.96v.96Zm24,0h.96v-.96h-.96v.96Zm24,0h.96v-.96h-.96v.96Zm-72,24h.96v-.96h-.96v.96Zm24,0h.96v-.96h-.96v.96Zm24,0h.96v-.96h-.96v.96Zm24,0h.96v-.96h-.96v.96Zm-72,24h.96v-.96h-.96v.96Zm24,0h.96v-.96h-.96v.96Zm24,0h.96v-.96h-.96v.96Zm24,0h.96v-.96h-.96v.96Zm-72,24h.96v-.96h-.96v.96Zm24,0h.96v-.96h-.96v.96Zm24,0h.96v-.96h-.96v.96Zm24,0h.96v-.96h-.96v.96Zm24-96h.96v-.96h-.96v.96Zm0,24h.96v-.96h-.96v.96Zm0,24h.96v-.96h-.96v.96Zm0,24h.96v-.96h-.96v.96ZM0,504.96h.96v-.96H0v.96ZM0,528.96h.96v-.96H0v.96ZM0,552.96h.96v-.96H0v.96ZM0,576.96h.96v-.96H0v.96Zm144-72h.96v-.96h-.96v.96Zm24,0h.96v-.96h-.96v.96Zm24,0h.96v-.96h-.96v.96Zm24,0h.96v-.96h-.96v.96Zm-72,24h.96v-.96h-.96v.96Zm24,0h.96v-.96h-.96v.96Zm24,0h.96v-.96h-.96v.96Zm24,0h.96v-.96h-.96v.96Zm-72,24h.96v-.96h-.96v.96Zm24,0h.96v-.96h-.96v.96Zm24,0h.96v-.96h-.96v.96Zm24,0h.96v-.96h-.96v.96Zm-72,24h.96v-.96h-.96v.96Zm24,0h.96v-.96h-.96v.96Zm24,0h.96v-.96h-.96v.96Zm24,0h.96v-.96h-.96v.96Zm-72,24h.96v-.96h-.96v.96Zm24,0h.96v-.96h-.96v.96Zm24,0h.96v-.96h-.96v.96Zm24,0h.96v-.96h-.96v.96Zm24-96h.96v-.96h-.96v.96Zm0,24h.96v-.96h-.96v.96Zm0,24h.96v-.96h-.96v.96Zm0,24h.96v-.96h-.96v.96Zm-216,48h.96v-.96h-.96v.96Zm24,0h.96v-.96h-.96v.96Zm24,0h.96v-.96h-.96v.96Zm24,0h.96v-.96h-.96v.96Zm-72,24h.96v-.96h-.96v.96Zm24,0h.96v-.96h-.96v.96Zm24,0h.96v-.96h-.96v.96Zm24,0h.96v-.96h-.96v.96Zm-72,24h.96v-.96h-.96v.96Zm24,0h.96v-.96h-.96v.96Zm24,0h.96v-.96h-.96v.96Zm24,0h.96v-.96h-.96v.96Zm24-48h.96v-.96h-.96v.96Zm0,24h.96v-.96h-.96v.96Zm0,24h.96v-.96h-.96v.96ZM0,624.96h.96v-.96H0v.96ZM0,648.96h.96v-.96H0v.96ZM0,672.96h.96v-.96H0v.96Zm144-48h.96v-.96h-.96v.96Zm24,0h.96v-.96h-.96v.96Zm24,0h.96v-.96h-.96v.96Zm24,0h.96v-.96h-.96v.96Zm-72,24h.96v-.96h-.96v.96Zm24,0h.96v-.96h-.96v.96Zm24,0h.96v-.96h-.96v.96Zm24,0h.96v-.96h-.96v.96Zm-72,24h.96v-.96h-.96v.96Zm24,0h.96v-.96h-.96v.96Zm24,0h.96v-.96h-.96v.96Zm24,0h.96v-.96h-.96v.96Zm24-48h.96v-.96h-.96v.96Zm0,24h.96v-.96h-.96v.96Zm0,24h.96v-.96h-.96v.96Zm24-168h.96v-.96h-.96v.96Zm24,0h.96v-.96h-.96v.96Zm24,0h.96v-.96h-.96v.96Zm24,0h.96v-.96h-.96v.96Zm-72,24h.96v-.96h-.96v.96Zm24,0h.96v-.96h-.96v.96Zm24,0h.96v-.96h-.96v.96Zm24,0h.96v-.96h-.96v.96Zm-72,24h.96v-.96h-.96v.96Zm24,0h.96v-.96h-.96v.96Zm24,0h.96v-.96h-.96v.96Zm24,0h.96v-.96h-.96v.96Zm-72,24h.96v-.96h-.96v.96Zm24,0h.96v-.96h-.96v.96Zm24,0h.96v-.96h-.96v.96Zm24,0h.96v-.96h-.96v.96Zm-72,24h.96v-.96h-.96v.96Zm24,0h.96v-.96h-.96v.96Zm24,0h.96v-.96h-.96v.96Zm24,0h.96v-.96h-.96v.96Zm24-96h.96v-.96h-.96v.96Zm0,24h.96v-.96h-.96v.96Zm0,24h.96v-.96h-.96v.96Zm0,24h.96v-.96h-.96v.96Zm24-72h.96v-.96h-.96v.96Zm24,0h.96v-.96h-.96v.96Zm24,0h.96v-.96h-.96v.96Zm24,0h.96v-.96h-.96v.96Zm-72,24h.96v-.96h-.96v.96Zm24,0h.96v-.96h-.96v.96Zm24,0h.96v-.96h-.96v.96Zm24,0h.96v-.96h-.96v.96Zm-72,24h.96v-.96h-.96v.96Zm24,0h.96v-.96h-.96v.96Zm24,0h.96v-.96h-.96v.96Zm24,0h.96v-.96h-.96v.96Zm-72,24h.96v-.96h-.96v.96Zm24,0h.96v-.96h-.96v.96Zm24,0h.96v-.96h-.96v.96Zm24,0h.96v-.96h-.96v.96Zm-72,24h.96v-.96h-.96v.96Zm24,0h.96v-.96h-.96v.96Zm24,0h.96v-.96h-.96v.96Zm24,0h.96v-.96h-.96v.96Zm24-96h.96v-.96h-.96v.96Zm0,24h.96v-.96h-.96v.96Zm0,24h.96v-.96h-.96v.96Zm0,24h.96v-.96h-.96v.96Zm-216,48h.96v-.96h-.96v.96Zm24,0h.96v-.96h-.96v.96Zm24,0h.96v-.96h-.96v.96Zm24,0h.96v-.96h-.96v.96Zm-72,24h.96v-.96h-.96v.96Zm24,0h.96v-.96h-.96v.96Zm24,0h.96v-.96h-.96v.96Zm24,0h.96v-.96h-.96v.96Zm-72,24h.96v-.96h-.96v.96Zm24,0h.96v-.96h-.96v.96Zm24,0h.96v-.96h-.96v.96Zm24,0h.96v-.96h-.96v.96Zm24-48h.96v-.96h-.96v.96Zm0,24h.96v-.96h-.96v.96Zm0,24h.96v-.96h-.96v.96Zm24-48h.96v-.96h-.96v.96Zm24,0h.96v-.96h-.96v.96Zm24,0h.96v-.96h-.96v.96Zm24,0h.96v-.96h-.96v.96Zm-72,24h.96v-.96h-.96v.96Zm24,0h.96v-.96h-.96v.96Zm24,0h.96v-.96h-.96v.96Zm24,0h.96v-.96h-.96v.96Zm-72,24h.96v-.96h-.96v.96Zm24,0h.96v-.96h-.96v.96Zm24,0h.96v-.96h-.96v.96Zm24,0h.96v-.96h-.96v.96Zm24-48h.96v-.96h-.96v.96Zm0,24h.96v-.96h-.96v.96Zm0,24h.96v-.96h-.96v.96ZM504,.96h.96v-.96h-.96v.96Zm24,0h.96v-.96h-.96v.96Zm24,0h.96v-.96h-.96v.96Zm24,0h.96v-.96h-.96v.96Zm-72,24h.96v-.96h-.96v.96Zm24,0h.96v-.96h-.96v.96Zm24,0h.96v-.96h-.96v.96Zm24,0h.96v-.96h-.96v.96Zm-72,24h.96v-.96h-.96v.96Zm24,0h.96v-.96h-.96v.96Zm24,0h.96v-.96h-.96v.96Zm24,0h.96v-.96h-.96v.96Zm-72,24h.96v-.96h-.96v.96Zm24,0h.96v-.96h-.96v.96Zm24,0h.96v-.96h-.96v.96Zm24,0h.96v-.96h-.96v.96Zm-72,24h.96v-.96h-.96v.96Zm24,0h.96v-.96h-.96v.96Zm24,0h.96v-.96h-.96v.96Zm24,0h.96v-.96h-.96v.96Zm-72,24h.96v-.96h-.96v.96Zm24,0h.96v-.96h-.96v.96Zm24,0h.96v-.96h-.96v.96Zm24,0h.96v-.96h-.96v.96Zm24-96h.96v-.96h-.96v.96Zm0,24h.96v-.96h-.96v.96Zm0,24h.96v-.96h-.96v.96Zm0,24h.96v-.96h-.96v.96ZM624,.96h.96v-.96h-.96v.96Zm24,0h.96v-.96h-.96v.96Zm24,0h.96v-.96h-.96v.96Zm24,0h.96v-.96h-.96v.96Zm-72,24h.96v-.96h-.96v.96Zm24,0h.96v-.96h-.96v.96Zm24,0h.96v-.96h-.96v.96Zm24,0h.96v-.96h-.96v.96Zm-72,24h.96v-.96h-.96v.96Zm24,0h.96v-.96h-.96v.96Zm24,0h.96v-.96h-.96v.96Zm24,0h.96v-.96h-.96v.96Zm-72,24h.96v-.96h-.96v.96Zm24,0h.96v-.96h-.96v.96Zm24,0h.96v-.96h-.96v.96Zm24,0h.96v-.96h-.96v.96Zm-72,24h.96v-.96h-.96v.96Zm24,0h.96v-.96h-.96v.96Zm24,0h.96v-.96h-.96v.96Zm24,0h.96v-.96h-.96v.96Zm-72,24h.96v-.96h-.96v.96Zm24,0h.96v-.96h-.96v.96Zm24,0h.96v-.96h-.96v.96Zm24,0h.96v-.96h-.96v.96Zm24-96h.96v-.96h-.96v.96Zm0,24h.96v-.96h-.96v.96Zm0,24h.96v-.96h-.96v.96Zm0,24h.96v-.96h-.96v.96Zm-216,48h.96v-.96h-.96v.96Zm24,0h.96v-.96h-.96v.96Zm24,0h.96v-.96h-.96v.96Zm24,0h.96v-.96h-.96v.96Zm-72,24h.96v-.96h-.96v.96Zm24,0h.96v-.96h-.96v.96Zm24,0h.96v-.96h-.96v.96Zm24,0h.96v-.96h-.96v.96Zm-72,24h.96v-.96h-.96v.96Zm24,0h.96v-.96h-.96v.96Zm24,0h.96v-.96h-.96v.96Zm24,0h.96v-.96h-.96v.96Zm-72,24h.96v-.96h-.96v.96Zm24,0h.96v-.96h-.96v.96Zm24,0h.96v-.96h-.96v.96Zm24,0h.96v-.96h-.96v.96Zm-72,24h.96v-.96h-.96v.96Zm24,0h.96v-.96h-.96v.96Zm24,0h.96v-.96h-.96v.96Zm24,0h.96v-.96h-.96v.96Zm24-96h.96v-.96h-.96v.96Zm0,24h.96v-.96h-.96v.96Zm0,24h.96v-.96h-.96v.96Zm0,24h.96v-.96h-.96v.96Zm24-72h.96v-.96h-.96v.96Zm24,0h.96v-.96h-.96v.96Zm24,0h.96v-.96h-.96v.96Zm24,0h.96v-.96h-.96v.96Zm-72,24h.96v-.96h-.96v.96Zm24,0h.96v-.96h-.96v.96Zm24,0h.96v-.96h-.96v.96Zm24,0h.96v-.96h-.96v.96Zm-72,24h.96v-.96h-.96v.96Zm24,0h.96v-.96h-.96v.96Zm24,0h.96v-.96h-.96v.96Zm24,0h.96v-.96h-.96v.96Zm-72,24h.96v-.96h-.96v.96Zm24,0h.96v-.96h-.96v.96Zm24,0h.96v-.96h-.96v.96Zm24,0h.96v-.96h-.96v.96Zm-72,24h.96v-.96h-.96v.96Zm24,0h.96v-.96h-.96v.96Zm24,0h.96v-.96h-.96v.96Zm24,0h.96v-.96h-.96v.96Zm24-96h.96v-.96h-.96v.96Zm0,24h.96v-.96h-.96v.96Zm0,24h.96v-.96h-.96v.96Zm0,24h.96v-.96h-.96v.96ZM744,.96h.96v-.96h-.96v.96Zm24,0h.96v-.96h-.96v.96Zm24,0h.96v-.96h-.96v.96Zm24,0h.96v-.96h-.96v.96Zm-72,24h.96v-.96h-.96v.96Zm24,0h.96v-.96h-.96v.96Zm24,0h.96v-.96h-.96v.96Zm24,0h.96v-.96h-.96v.96Zm-72,24h.96v-.96h-.96v.96Zm24,0h.96v-.96h-.96v.96Zm24,0h.96v-.96h-.96v.96Zm24,0h.96v-.96h-.96v.96Zm-72,24h.96v-.96h-.96v.96Zm24,0h.96v-.96h-.96v.96Zm24,0h.96v-.96h-.96v.96Zm24,0h.96v-.96h-.96v.96Zm-72,24h.96v-.96h-.96v.96Zm24,0h.96v-.96h-.96v.96Zm24,0h.96v-.96h-.96v.96Zm24,0h.96v-.96h-.96v.96Zm-72,24h.96v-.96h-.96v.96Zm24,0h.96v-.96h-.96v.96Zm24,0h.96v-.96h-.96v.96Zm24,0h.96v-.96h-.96v.96Zm24-96h.96v-.96h-.96v.96Zm0,24h.96v-.96h-.96v.96Zm0,24h.96v-.96h-.96v.96Zm0,24h.96v-.96h-.96v.96ZM864,.96h.96v-.96h-.96v.96Zm24,0h.96v-.96h-.96v.96Zm24,0h.96v-.96h-.96v.96Zm24,0h.96v-.96h-.96v.96Zm-72,24h.96v-.96h-.96v.96Zm24,0h.96v-.96h-.96v.96Zm24,0h.96v-.96h-.96v.96Zm24,0h.96v-.96h-.96v.96Zm-72,24h.96v-.96h-.96v.96Zm24,0h.96v-.96h-.96v.96Zm24,0h.96v-.96h-.96v.96Zm24,0h.96v-.96h-.96v.96Zm-72,24h.96v-.96h-.96v.96Zm24,0h.96v-.96h-.96v.96Zm24,0h.96v-.96h-.96v.96Zm24,0h.96v-.96h-.96v.96Zm-72,24h.96v-.96h-.96v.96Zm24,0h.96v-.96h-.96v.96Zm24,0h.96v-.96h-.96v.96Zm24,0h.96v-.96h-.96v.96Zm-72,24h.96v-.96h-.96v.96Zm24,0h.96v-.96h-.96v.96Zm24,0h.96v-.96h-.96v.96Zm24,0h.96v-.96h-.96v.96Zm24-96h.96v-.96h-.96v.96Zm0,24h.96v-.96h-.96v.96Zm0,24h.96v-.96h-.96v.96Zm0,24h.96v-.96h-.96v.96Zm-216,48h.96v-.96h-.96v.96Zm24,0h.96v-.96h-.96v.96Zm24,0h.96v-.96h-.96v.96Zm24,0h.96v-.96h-.96v.96Zm-72,24h.96v-.96h-.96v.96Zm24,0h.96v-.96h-.96v.96Zm24,0h.96v-.96h-.96v.96Zm24,0h.96v-.96h-.96v.96Zm-72,24h.96v-.96h-.96v.96Zm24,0h.96v-.96h-.96v.96Zm24,0h.96v-.96h-.96v.96Zm24,0h.96v-.96h-.96v.96Zm-72,24h.96v-.96h-.96v.96Zm24,0h.96v-.96h-.96v.96Zm24,0h.96v-.96h-.96v.96Zm24,0h.96v-.96h-.96v.96Zm-72,24h.96v-.96h-.96v.96Zm24,0h.96v-.96h-.96v.96Zm24,0h.96v-.96h-.96v.96Zm24,0h.96v-.96h-.96v.96Zm24-96h.96v-.96h-.96v.96Zm0,24h.96v-.96h-.96v.96Zm0,24h.96v-.96h-.96v.96Zm0,24h.96v-.96h-.96v.96Zm24-72h.96v-.96h-.96v.96Zm24,0h.96v-.96h-.96v.96Zm24,0h.96v-.96h-.96v.96Zm24,0h.96v-.96h-.96v.96Zm-72,24h.96v-.96h-.96v.96Zm24,0h.96v-.96h-.96v.96Zm24,0h.96v-.96h-.96v.96Zm24,0h.96v-.96h-.96v.96Zm-72,24h.96v-.96h-.96v.96Zm24,0h.96v-.96h-.96v.96Zm24,0h.96v-.96h-.96v.96Zm24,0h.96v-.96h-.96v.96Zm-72,24h.96v-.96h-.96v.96Zm24,0h.96v-.96h-.96v.96Zm24,0h.96v-.96h-.96v.96Zm24,0h.96v-.96h-.96v.96Zm-72,24h.96v-.96h-.96v.96Zm24,0h.96v-.96h-.96v.96Zm24,0h.96v-.96h-.96v.96Zm24,0h.96v-.96h-.96v.96Zm24-96h.96v-.96h-.96v.96Zm0,24h.96v-.96h-.96v.96Zm0,24h.96v-.96h-.96v.96Zm0,24h.96v-.96h-.96v.96Zm-456,48h.96v-.96h-.96v.96Zm24,0h.96v-.96h-.96v.96Zm24,0h.96v-.96h-.96v.96Zm24,0h.96v-.96h-.96v.96Zm-72,24h.96v-.96h-.96v.96Zm24,0h.96v-.96h-.96v.96Zm24,0h.96v-.96h-.96v.96Zm24,0h.96v-.96h-.96v.96Zm-72,24h.96v-.96h-.96v.96Zm24,0h.96v-.96h-.96v.96Zm24,0h.96v-.96h-.96v.96Zm24,0h.96v-.96h-.96v.96Zm-72,24h.96v-.96h-.96v.96Zm24,0h.96v-.96h-.96v.96Zm24,0h.96v-.96h-.96v.96Zm24,0h.96v-.96h-.96v.96Zm-72,24h.96v-.96h-.96v.96Zm24,0h.96v-.96h-.96v.96Zm24,0h.96v-.96h-.96v.96Zm24,0h.96v-.96h-.96v.96Zm24-96h.96v-.96h-.96v.96Zm0,24h.96v-.96h-.96v.96Zm0,24h.96v-.96h-.96v.96Zm0,24h.96v-.96h-.96v.96Zm24-72h.96v-.96h-.96v.96Zm24,0h.96v-.96h-.96v.96Zm24,0h.96v-.96h-.96v.96Zm24,0h.96v-.96h-.96v.96Zm-72,24h.96v-.96h-.96v.96Zm24,0h.96v-.96h-.96v.96Zm24,0h.96v-.96h-.96v.96Zm24,0h.96v-.96h-.96v.96Zm-72,24h.96v-.96h-.96v.96Zm24,0h.96v-.96h-.96v.96Zm24,0h.96v-.96h-.96v.96Zm24,0h.96v-.96h-.96v.96Zm-72,24h.96v-.96h-.96v.96Zm24,0h.96v-.96h-.96v.96Zm24,0h.96v-.96h-.96v.96Zm24,0h.96v-.96h-.96v.96Zm-72,24h.96v-.96h-.96v.96Zm24,0h.96v-.96h-.96v.96Zm24,0h.96v-.96h-.96v.96Zm24,0h.96v-.96h-.96v.96Zm24-96h.96v-.96h-.96v.96Zm0,24h.96v-.96h-.96v.96Zm0,24h.96v-.96h-.96v.96Zm0,24h.96v-.96h-.96v.96Zm-216,48h.96v-.96h-.96v.96Zm24,0h.96v-.96h-.96v.96Zm24,0h.96v-.96h-.96v.96Zm24,0h.96v-.96h-.96v.96Zm-72,24h.96v-.96h-.96v.96Zm24,0h.96v-.96h-.96v.96Zm24,0h.96v-.96h-.96v.96Zm24,0h.96v-.96h-.96v.96Zm-72,24h.96v-.96h-.96v.96Zm24,0h.96v-.96h-.96v.96Zm24,0h.96v-.96h-.96v.96Zm24,0h.96v-.96h-.96v.96Zm-72,24h.96v-.96h-.96v.96Zm24,0h.96v-.96h-.96v.96Zm24,0h.96v-.96h-.96v.96Zm24,0h.96v-.96h-.96v.96Zm-72,24h.96v-.96h-.96v.96Zm24,0h.96v-.96h-.96v.96Zm24,0h.96v-.96h-.96v.96Zm24,0h.96v-.96h-.96v.96Zm24-96h.96v-.96h-.96v.96Zm0,24h.96v-.96h-.96v.96Zm0,24h.96v-.96h-.96v.96Zm0,24h.96v-.96h-.96v.96Zm24-72h.96v-.96h-.96v.96Zm24,0h.96v-.96h-.96v.96Zm24,0h.96v-.96h-.96v.96Zm24,0h.96v-.96h-.96v.96Zm-72,24h.96v-.96h-.96v.96Zm24,0h.96v-.96h-.96v.96Zm24,0h.96v-.96h-.96v.96Zm24,0h.96v-.96h-.96v.96Zm-72,24h.96v-.96h-.96v.96Zm24,0h.96v-.96h-.96v.96Zm24,0h.96v-.96h-.96v.96Zm24,0h.96v-.96h-.96v.96Zm-72,24h.96v-.96h-.96v.96Zm24,0h.96v-.96h-.96v.96Zm24,0h.96v-.96h-.96v.96Zm24,0h.96v-.96h-.96v.96Zm-72,24h.96v-.96h-.96v.96Zm24,0h.96v-.96h-.96v.96Zm24,0h.96v-.96h-.96v.96Zm24,0h.96v-.96h-.96v.96Zm24-96h.96v-.96h-.96v.96Zm0,24h.96v-.96h-.96v.96Zm0,24h.96v-.96h-.96v.96Zm0,24h.96v-.96h-.96v.96Zm24-192h.96v-.96h-.96v.96Zm24,0h.96v-.96h-.96v.96Zm24,0h.96v-.96h-.96v.96Zm24,0h.96v-.96h-.96v.96Zm-72,24h.96v-.96h-.96v.96Zm24,0h.96v-.96h-.96v.96Zm24,0h.96v-.96h-.96v.96Zm24,0h.96v-.96h-.96v.96Zm-72,24h.96v-.96h-.96v.96Zm24,0h.96v-.96h-.96v.96Zm24,0h.96v-.96h-.96v.96Zm24,0h.96v-.96h-.96v.96Zm-72,24h.96v-.96h-.96v.96Zm24,0h.96v-.96h-.96v.96Zm24,0h.96v-.96h-.96v.96Zm24,0h.96v-.96h-.96v.96Zm-72,24h.96v-.96h-.96v.96Zm24,0h.96v-.96h-.96v.96Zm24,0h.96v-.96h-.96v.96Zm24,0h.96v-.96h-.96v.96Zm24-96h.96v-.96h-.96v.96Zm0,24h.96v-.96h-.96v.96Zm0,24h.96v-.96h-.96v.96Zm0,24h.96v-.96h-.96v.96Zm24-72h.96v-.96h-.96v.96Zm24,0h.96v-.96h-.96v.96Zm24,0h.96v-.96h-.96v.96Zm24,0h.96v-.96h-.96v.96Zm-72,24h.96v-.96h-.96v.96Zm24,0h.96v-.96h-.96v.96Zm24,0h.96v-.96h-.96v.96Zm24,0h.96v-.96h-.96v.96Zm-72,24h.96v-.96h-.96v.96Zm24,0h.96v-.96h-.96v.96Zm24,0h.96v-.96h-.96v.96Zm24,0h.96v-.96h-.96v.96Zm-72,24h.96v-.96h-.96v.96Zm24,0h.96v-.96h-.96v.96Zm24,0h.96v-.96h-.96v.96Zm24,0h.96v-.96h-.96v.96Zm-72,24h.96v-.96h-.96v.96Zm24,0h.96v-.96h-.96v.96Zm24,0h.96v-.96h-.96v.96Zm24,0h.96v-.96h-.96v.96Zm24-96h.96v-.96h-.96v.96Zm0,24h.96v-.96h-.96v.96Zm0,24h.96v-.96h-.96v.96Zm0,24h.96v-.96h-.96v.96Zm-216,48h.96v-.96h-.96v.96Zm24,0h.96v-.96h-.96v.96Zm24,0h.96v-.96h-.96v.96Zm24,0h.96v-.96h-.96v.96Zm-72,24h.96v-.96h-.96v.96Zm24,0h.96v-.96h-.96v.96Zm24,0h.96v-.96h-.96v.96Zm24,0h.96v-.96h-.96v.96Zm-72,24h.96v-.96h-.96v.96Zm24,0h.96v-.96h-.96v.96Zm24,0h.96v-.96h-.96v.96Zm24,0h.96v-.96h-.96v.96Zm-72,24h.96v-.96h-.96v.96Zm24,0h.96v-.96h-.96v.96Zm24,0h.96v-.96h-.96v.96Zm24,0h.96v-.96h-.96v.96Zm-72,24h.96v-.96h-.96v.96Zm24,0h.96v-.96h-.96v.96Zm24,0h.96v-.96h-.96v.96Zm24,0h.96v-.96h-.96v.96Zm24-96h.96v-.96h-.96v.96Zm0,24h.96v-.96h-.96v.96Zm0,24h.96v-.96h-.96v.96Zm0,24h.96v-.96h-.96v.96Zm24-72h.96v-.96h-.96v.96Zm24,0h.96v-.96h-.96v.96Zm24,0h.96v-.96h-.96v.96Zm24,0h.96v-.96h-.96v.96Zm-72,24h.96v-.96h-.96v.96Zm24,0h.96v-.96h-.96v.96Zm24,0h.96v-.96h-.96v.96Zm24,0h.96v-.96h-.96v.96Zm-72,24h.96v-.96h-.96v.96Zm24,0h.96v-.96h-.96v.96Zm24,0h.96v-.96h-.96v.96Zm24,0h.96v-.96h-.96v.96Zm-72,24h.96v-.96h-.96v.96Zm24,0h.96v-.96h-.96v.96Zm24,0h.96v-.96h-.96v.96Zm24,0h.96v-.96h-.96v.96Zm-72,24h.96v-.96h-.96v.96Zm24,0h.96v-.96h-.96v.96Zm24,0h.96v-.96h-.96v.96Zm24,0h.96v-.96h-.96v.96Zm24-96h.96v-.96h-.96v.96Zm0,24h.96v-.96h-.96v.96Zm0,24h.96v-.96h-.96v.96Zm0,24h.96v-.96h-.96v.96Zm-456,48h.96v-.96h-.96v.96Zm24,0h.96v-.96h-.96v.96Zm24,0h.96v-.96h-.96v.96Zm24,0h.96v-.96h-.96v.96Zm-72,24h.96v-.96h-.96v.96Zm24,0h.96v-.96h-.96v.96Zm24,0h.96v-.96h-.96v.96Zm24,0h.96v-.96h-.96v.96Zm-72,24h.96v-.96h-.96v.96Zm24,0h.96v-.96h-.96v.96Zm24,0h.96v-.96h-.96v.96Zm24,0h.96v-.96h-.96v.96Zm-72,24h.96v-.96h-.96v.96Zm24,0h.96v-.96h-.96v.96Zm24,0h.96v-.96h-.96v.96Zm24,0h.96v-.96h-.96v.96Zm-72,24h.96v-.96h-.96v.96Zm24,0h.96v-.96h-.96v.96Zm24,0h.96v-.96h-.96v.96Zm24,0h.96v-.96h-.96v.96Zm24-96h.96v-.96h-.96v.96Zm0,24h.96v-.96h-.96v.96Zm0,24h.96v-.96h-.96v.96Zm0,24h.96v-.96h-.96v.96Zm24-72h.96v-.96h-.96v.96Zm24,0h.96v-.96h-.96v.96Zm24,0h.96v-.96h-.96v.96Zm24,0h.96v-.96h-.96v.96Zm-72,24h.96v-.96h-.96v.96Zm24,0h.96v-.96h-.96v.96Zm24,0h.96v-.96h-.96v.96Zm24,0h.96v-.96h-.96v.96Zm-72,24h.96v-.96h-.96v.96Zm24,0h.96v-.96h-.96v.96Zm24,0h.96v-.96h-.96v.96Zm24,0h.96v-.96h-.96v.96Zm-72,24h.96v-.96h-.96v.96Zm24,0h.96v-.96h-.96v.96Zm24,0h.96v-.96h-.96v.96Zm24,0h.96v-.96h-.96v.96Zm-72,24h.96v-.96h-.96v.96Zm24,0h.96v-.96h-.96v.96Zm24,0h.96v-.96h-.96v.96Zm24,0h.96v-.96h-.96v.96Zm24-96h.96v-.96h-.96v.96Zm0,24h.96v-.96h-.96v.96Zm0,24h.96v-.96h-.96v.96Zm0,24h.96v-.96h-.96v.96Zm-216,48h.96v-.96h-.96v.96Zm24,0h.96v-.96h-.96v.96Zm24,0h.96v-.96h-.96v.96Zm24,0h.96v-.96h-.96v.96Zm-72,24h.96v-.96h-.96v.96Zm24,0h.96v-.96h-.96v.96Zm24,0h.96v-.96h-.96v.96Zm24,0h.96v-.96h-.96v.96Zm-72,24h.96v-.96h-.96v.96Zm24,0h.96v-.96h-.96v.96Zm24,0h.96v-.96h-.96v.96Zm24,0h.96v-.96h-.96v.96Zm24-48h.96v-.96h-.96v.96Zm0,24h.96v-.96h-.96v.96Zm0,24h.96v-.96h-.96v.96Zm24-48h.96v-.96h-.96v.96Zm24,0h.96v-.96h-.96v.96Zm24,0h.96v-.96h-.96v.96Zm24,0h.96v-.96h-.96v.96Zm-72,24h.96v-.96h-.96v.96Zm24,0h.96v-.96h-.96v.96Zm24,0h.96v-.96h-.96v.96Zm24,0h.96v-.96h-.96v.96Zm-72,24h.96v-.96h-.96v.96Zm24,0h.96v-.96h-.96v.96Zm24,0h.96v-.96h-.96v.96Zm24,0h.96v-.96h-.96v.96Zm24-48h.96v-.96h-.96v.96Zm0,24h.96v-.96h-.96v.96Zm0,24h.96v-.96h-.96v.96Zm24-168h.96v-.96h-.96v.96Zm24,0h.96v-.96h-.96v.96Zm24,0h.96v-.96h-.96v.96Zm24,0h.96v-.96h-.96v.96Zm-72,24h.96v-.96h-.96v.96Zm24,0h.96v-.96h-.96v.96Zm24,0h.96v-.96h-.96v.96Zm24,0h.96v-.96h-.96v.96Zm-72,24h.96v-.96h-.96v.96Zm24,0h.96v-.96h-.96v.96Zm24,0h.96v-.96h-.96v.96Zm24,0h.96v-.96h-.96v.96Zm-72,24h.96v-.96h-.96v.96Zm24,0h.96v-.96h-.96v.96Zm24,0h.96v-.96h-.96v.96Zm24,0h.96v-.96h-.96v.96Zm-72,24h.96v-.96h-.96v.96Zm24,0h.96v-.96h-.96v.96Zm24,0h.96v-.96h-.96v.96Zm24,0h.96v-.96h-.96v.96Zm24-96h.96v-.96h-.96v.96Zm0,24h.96v-.96h-.96v.96Zm0,24h.96v-.96h-.96v.96Zm0,24h.96v-.96h-.96v.96Zm24-72h.96v-.96h-.96v.96Zm24,0h.96v-.96h-.96v.96Zm24,0h.96v-.96h-.96v.96Zm24,0h.96v-.96h-.96v.96Zm-72,24h.96v-.96h-.96v.96Zm24,0h.96v-.96h-.96v.96Zm24,0h.96v-.96h-.96v.96Zm24,0h.96v-.96h-.96v.96Zm-72,24h.96v-.96h-.96v.96Zm24,0h.96v-.96h-.96v.96Zm24,0h.96v-.96h-.96v.96Zm24,0h.96v-.96h-.96v.96Zm-72,24h.96v-.96h-.96v.96Zm24,0h.96v-.96h-.96v.96Zm24,0h.96v-.96h-.96v.96Zm24,0h.96v-.96h-.96v.96Zm-72,24h.96v-.96h-.96v.96Zm24,0h.96v-.96h-.96v.96Zm24,0h.96v-.96h-.96v.96Zm24,0h.96v-.96h-.96v.96Zm24-96h.96v-.96h-.96v.96Zm0,24h.96v-.96h-.96v.96Zm0,24h.96v-.96h-.96v.96Zm0,24h.96v-.96h-.96v.96Zm-216,48h.96v-.96h-.96v.96Zm24,0h.96v-.96h-.96v.96Zm24,0h.96v-.96h-.96v.96Zm24,0h.96v-.96h-.96v.96Zm-72,24h.96v-.96h-.96v.96Zm24,0h.96v-.96h-.96v.96Zm24,0h.96v-.96h-.96v.96Zm24,0h.96v-.96h-.96v.96Zm-72,24h.96v-.96h-.96v.96Zm24,0h.96v-.96h-.96v.96Zm24,0h.96v-.96h-.96v.96Zm24,0h.96v-.96h-.96v.96Zm24-48h.96v-.96h-.96v.96Zm0,24h.96v-.96h-.96v.96Zm0,24h.96v-.96h-.96v.96Zm24-48h.96v-.96h-.96v.96Zm24,0h.96v-.96h-.96v.96Zm24,0h.96v-.96h-.96v.96Zm24,0h.96v-.96h-.96v.96Zm-72,24h.96v-.96h-.96v.96Zm24,0h.96v-.96h-.96v.96Zm24,0h.96v-.96h-.96v.96Zm24,0h.96v-.96h-.96v.96Zm-72,24h.96v-.96h-.96v.96Zm24,0h.96v-.96h-.96v.96Zm24,0h.96v-.96h-.96v.96Zm24,0h.96v-.96h-.96v.96Zm24-48h.96v-.96h-.96v.96Zm0,24h.96v-.96h-.96v.96Zm0,24h.96v-.96h-.96v.96ZM984,.96h.96v-.96h-.96v.96Zm24,0h.96v-.96h-.96v.96Zm24,0h.96v-.96h-.96v.96Zm24,0h.96v-.96h-.96v.96Zm-72,24h.96v-.96h-.96v.96Zm24,0h.96v-.96h-.96v.96Zm24,0h.96v-.96h-.96v.96Zm24,0h.96v-.96h-.96v.96Zm-72,24h.96v-.96h-.96v.96Zm24,0h.96v-.96h-.96v.96Zm24,0h.96v-.96h-.96v.96Zm24,0h.96v-.96h-.96v.96Zm-72,24h.96v-.96h-.96v.96Zm24,0h.96v-.96h-.96v.96Zm24,0h.96v-.96h-.96v.96Zm24,0h.96v-.96h-.96v.96Zm-72,24h.96v-.96h-.96v.96Zm24,0h.96v-.96h-.96v.96Zm24,0h.96v-.96h-.96v.96Zm24,0h.96v-.96h-.96v.96Zm-72,24h.96v-.96h-.96v.96Zm24,0h.96v-.96h-.96v.96Zm24,0h.96v-.96h-.96v.96Zm24,0h.96v-.96h-.96v.96Zm24-96h.96v-.96h-.96v.96Zm0,24h.96v-.96h-.96v.96Zm0,24h.96v-.96h-.96v.96Zm0,24h.96v-.96h-.96v.96Zm-96,48h.96v-.96h-.96v.96Zm24,0h.96v-.96h-.96v.96Zm24,0h.96v-.96h-.96v.96Zm24,0h.96v-.96h-.96v.96Zm-72,24h.96v-.96h-.96v.96Zm24,0h.96v-.96h-.96v.96Zm24,0h.96v-.96h-.96v.96Zm24,0h.96v-.96h-.96v.96Zm-72,24h.96v-.96h-.96v.96Zm24,0h.96v-.96h-.96v.96Zm24,0h.96v-.96h-.96v.96Zm24,0h.96v-.96h-.96v.96Zm-72,24h.96v-.96h-.96v.96Zm24,0h.96v-.96h-.96v.96Zm24,0h.96v-.96h-.96v.96Zm24,0h.96v-.96h-.96v.96Zm-72,24h.96v-.96h-.96v.96Zm24,0h.96v-.96h-.96v.96Zm24,0h.96v-.96h-.96v.96Zm24,0h.96v-.96h-.96v.96Zm24-96h.96v-.96h-.96v.96Zm0,24h.96v-.96h-.96v.96Zm0,24h.96v-.96h-.96v.96Zm0,24h.96v-.96h-.96v.96Zm-96,48h.96v-.96h-.96v.96Zm24,0h.96v-.96h-.96v.96Zm24,0h.96v-.96h-.96v.96Zm24,0h.96v-.96h-.96v.96Zm-72,24h.96v-.96h-.96v.96Zm24,0h.96v-.96h-.96v.96Zm24,0h.96v-.96h-.96v.96Zm24,0h.96v-.96h-.96v.96Zm-72,24h.96v-.96h-.96v.96Zm24,0h.96v-.96h-.96v.96Zm24,0h.96v-.96h-.96v.96Zm24,0h.96v-.96h-.96v.96Zm-72,24h.96v-.96h-.96v.96Zm24,0h.96v-.96h-.96v.96Zm24,0h.96v-.96h-.96v.96Zm24,0h.96v-.96h-.96v.96Zm-72,24h.96v-.96h-.96v.96Zm24,0h.96v-.96h-.96v.96Zm24,0h.96v-.96h-.96v.96Zm24,0h.96v-.96h-.96v.96Zm24-96h.96v-.96h-.96v.96Zm0,24h.96v-.96h-.96v.96Zm0,24h.96v-.96h-.96v.96Zm0,24h.96v-.96h-.96v.96Zm-96,48h.96v-.96h-.96v.96Zm24,0h.96v-.96h-.96v.96Zm24,0h.96v-.96h-.96v.96Zm24,0h.96v-.96h-.96v.96Zm-72,24h.96v-.96h-.96v.96Zm24,0h.96v-.96h-.96v.96Zm24,0h.96v-.96h-.96v.96Zm24,0h.96v-.96h-.96v.96Zm-72,24h.96v-.96h-.96v.96Zm24,0h.96v-.96h-.96v.96Zm24,0h.96v-.96h-.96v.96Zm24,0h.96v-.96h-.96v.96Zm-72,24h.96v-.96h-.96v.96Zm24,0h.96v-.96h-.96v.96Zm24,0h.96v-.96h-.96v.96Zm24,0h.96v-.96h-.96v.96Zm-72,24h.96v-.96h-.96v.96Zm24,0h.96v-.96h-.96v.96Zm24,0h.96v-.96h-.96v.96Zm24,0h.96v-.96h-.96v.96Zm24-96h.96v-.96h-.96v.96Zm0,24h.96v-.96h-.96v.96Zm0,24h.96v-.96h-.96v.96Zm0,24h.96v-.96h-.96v.96Zm-96,48h.96v-.96h-.96v.96Zm24,0h.96v-.96h-.96v.96Zm24,0h.96v-.96h-.96v.96Zm24,0h.96v-.96h-.96v.96Zm-72,24h.96v-.96h-.96v.96Zm24,0h.96v-.96h-.96v.96Zm24,0h.96v-.96h-.96v.96Zm24,0h.96v-.96h-.96v.96Zm-72,24h.96v-.96h-.96v.96Zm24,0h.96v-.96h-.96v.96Zm24,0h.96v-.96h-.96v.96Zm24,0h.96v-.96h-.96v.96Zm-72,24h.96v-.96h-.96v.96Zm24,0h.96v-.96h-.96v.96Zm24,0h.96v-.96h-.96v.96Zm24,0h.96v-.96h-.96v.96Zm-72,24h.96v-.96h-.96v.96Zm24,0h.96v-.96h-.96v.96Zm24,0h.96v-.96h-.96v.96Zm24,0h.96v-.96h-.96v.96Zm24-96h.96v-.96h-.96v.96Zm0,24h.96v-.96h-.96v.96Zm0,24h.96v-.96h-.96v.96Zm0,24h.96v-.96h-.96v.96Zm-96,48h.96v-.96h-.96v.96Zm24,0h.96v-.96h-.96v.96Zm24,0h.96v-.96h-.96v.96Zm24,0h.96v-.96h-.96v.96Zm-72,24h.96v-.96h-.96v.96Zm24,0h.96v-.96h-.96v.96Zm24,0h.96v-.96h-.96v.96Zm24,0h.96v-.96h-.96v.96Zm-72,24h.96v-.96h-.96v.96Zm24,0h.96v-.96h-.96v.96Zm24,0h.96v-.96h-.96v.96Zm24,0h.96v-.96h-.96v.96Zm24-48h.96v-.96h-.96v.96Zm0,24h.96v-.96h-.96v.96Zm0,24h.96v-.96h-.96v.96ZM24,696.96h.96v-.96h-.96v.96Zm24,0h.96v-.96h-.96v.96Zm24,0h.96v-.96h-.96v.96Zm24,0h.96v-.96h-.96v.96Zm-72,24h.96v-.96h-.96v.96Zm24,0h.96v-.96h-.96v.96Zm24,0h.96v-.96h-.96v.96Zm24,0h.96v-.96h-.96v.96Zm24-24h.96v-.96h-.96v.96ZM0,696.96h.96v-.96H0v.96Zm144,0h.96v-.96h-.96v.96Zm24,0h.96v-.96h-.96v.96Zm24,0h.96v-.96h-.96v.96Zm24,0h.96v-.96h-.96v.96Zm-72,24h.96v-.96h-.96v.96Zm24,0h.96v-.96h-.96v.96Zm24,0h.96v-.96h-.96v.96Zm24,0h.96v-.96h-.96v.96Zm24-24h.96v-.96h-.96v.96Zm24,0h.96v-.96h-.96v.96Zm24,0h.96v-.96h-.96v.96Zm24,0h.96v-.96h-.96v.96Zm24,0h.96v-.96h-.96v.96Zm-72,24h.96v-.96h-.96v.96Zm24,0h.96v-.96h-.96v.96Zm24,0h.96v-.96h-.96v.96Zm24,0h.96v-.96h-.96v.96Zm24-24h.96v-.96h-.96v.96Zm24,0h.96v-.96h-.96v.96Zm24,0h.96v-.96h-.96v.96Zm24,0h.96v-.96h-.96v.96Zm24,0h.96v-.96h-.96v.96Zm-72,24h.96v-.96h-.96v.96Zm24,0h.96v-.96h-.96v.96Zm24,0h.96v-.96h-.96v.96Zm24,0h.96v-.96h-.96v.96Zm24-24h.96v-.96h-.96v.96Zm24,0h.96v-.96h-.96v.96Zm24,0h.96v-.96h-.96v.96Zm24,0h.96v-.96h-.96v.96Zm24,0h.96v-.96h-.96v.96Zm-72,24h.96v-.96h-.96v.96Zm24,0h.96v-.96h-.96v.96Zm24,0h.96v-.96h-.96v.96Zm24,0h.96v-.96h-.96v.96Zm24-24h.96v-.96h-.96v.96Zm24,0h.96v-.96h-.96v.96Zm24,0h.96v-.96h-.96v.96Zm24,0h.96v-.96h-.96v.96Zm24,0h.96v-.96h-.96v.96Zm-72,24h.96v-.96h-.96v.96Zm24,0h.96v-.96h-.96v.96Zm24,0h.96v-.96h-.96v.96Zm24,0h.96v-.96h-.96v.96Zm24-24h.96v-.96h-.96v.96Zm24,0h.96v-.96h-.96v.96Zm24,0h.96v-.96h-.96v.96Zm24,0h.96v-.96h-.96v.96Zm24,0h.96v-.96h-.96v.96Zm-72,24h.96v-.96h-.96v.96Zm24,0h.96v-.96h-.96v.96Zm24,0h.96v-.96h-.96v.96Zm24,0h.96v-.96h-.96v.96Zm24-24h.96v-.96h-.96v.96Zm24,0h.96v-.96h-.96v.96Zm24,0h.96v-.96h-.96v.96Zm24,0h.96v-.96h-.96v.96Zm24,0h.96v-.96h-.96v.96Zm-72,24h.96v-.96h-.96v.96Zm24,0h.96v-.96h-.96v.96Zm24,0h.96v-.96h-.96v.96Zm24,0h.96v-.96h-.96v.96Zm24-24h.96v-.96h-.96v.96Zm24,0h.96v-.96h-.96v.96Zm24,0h.96v-.96h-.96v.96Zm24,0h.96v-.96h-.96v.96Zm24,0h.96v-.96h-.96v.96Zm-72,24h.96v-.96h-.96v.96Zm24,0h.96v-.96h-.96v.96Zm24,0h.96v-.96h-.96v.96Zm24,0h.96v-.96h-.96v.96Zm24-24h.96v-.96h-.96v.96ZM0,.96h.96v-.96H0v.96ZM0,120.96h.96v-.96H0v.96ZM0,240.96h.96v-.96H0v.96ZM0,360.96h.96v-.96H0v.96ZM0,480.96h.96v-.96H0v.96ZM0,600.96h.96v-.96H0v.96ZM0,720.96h.96v-.96H0v.96ZM120,.96h.96v-.96h-.96v.96Zm0,120h.96v-.96h-.96v.96Zm0,120h.96v-.96h-.96v.96Zm0,120h.96v-.96h-.96v.96Zm0,120h.96v-.96h-.96v.96Zm0,120h.96v-.96h-.96v.96Zm0,120h.96v-.96h-.96v.96Zm120-120h.96v-.96h-.96v.96Zm0,120h.96v-.96h-.96v.96Zm0-384h.96v-.96h-.96v.96Zm0,120h.96v-.96h-.96v.96Zm0-96h.96v-.96h-.96v.96Zm0,120h.96v-.96h-.96v.96ZM240,.96h.96v-.96h-.96v.96Zm0,120h.96v-.96h-.96v.96Zm0,120h.96v-.96h-.96v.96ZM360,.96h.96v-.96h-.96v.96Zm0,120h.96v-.96h-.96v.96Zm0,120h.96v-.96h-.96v.96Zm0,120h.96v-.96h-.96v.96Zm0,120h.96v-.96h-.96v.96Zm0,120h.96v-.96h-.96v.96Zm0,120h.96v-.96h-.96v.96Zm120-120h.96v-.96h-.96v.96Zm120,0h.96v-.96h-.96v.96Zm-120,120h.96v-.96h-.96v.96Zm120,0h.96v-.96h-.96v.96Zm-120-360h.96v-.96h-.96v.96Zm0,120h.96v-.96h-.96v.96Zm120-120h.96v-.96h-.96v.96Zm0,120h.96v-.96h-.96v.96Zm-120-360h.96v-.96h-.96v.96Zm0,120h.96v-.96h-.96v.96Zm120-120h.96v-.96h-.96v.96Zm0,120h.96v-.96h-.96v.96ZM480,.96h.96v-.96h-.96v.96Zm120,0h.96v-.96h-.96v.96Zm120,0h.96v-.96h-.96v.96Zm120,0h.96v-.96h-.96v.96Zm120,0h.96v-.96h-.96v.96Zm120-.96v.96h.96v-.96h-.96Zm-360,120.96h.96v-.96h-.96v.96Zm120,0h.96v-.96h-.96v.96Zm120,0h.96v-.96h-.96v.96Zm120,0h.96v-.96h-.96v.96Zm-360,120h.96v-.96h-.96v.96Zm120,0h.96v-.96h-.96v.96Zm-120,120h.96v-.96h-.96v.96Zm120,0h.96v-.96h-.96v.96Zm120-120h.96v-.96h-.96v.96Zm0,120h.96v-.96h-.96v.96Zm120-120h.96v-.96h-.96v.96Zm0,120h.96v-.96h-.96v.96Zm-360,120h.96v-.96h-.96v.96Zm120,0h.96v-.96h-.96v.96Zm-120,120h.96v-.96h-.96v.96Zm120,0h.96v-.96h-.96v.96Zm-120,120h.96v-.96h-.96v.96Zm120,0h.96v-.96h-.96v.96Zm120,0h.96v-.96h-.96v.96Zm120,0h.96v-.96h-.96v.96Zm-120-120h.96v-.96h-.96v.96Zm120,0h.96v-.96h-.96v.96Zm-120-120h.96v-.96h-.96v.96Zm120,0h.96v-.96h-.96v.96Z"/></g></svg>